<?xml version="1.0" encoding="UTF-8" standalone="no"?>
<svg
   width="120"
   height="120"
   viewBox="0 0 120 120"
   fill="none"
   version="1.1"
   id="svg13725"
   sodipodi:docname="browser.svg"
   inkscape:version="1.2 (dc2aedaf03, 2022-05-15)"
   xmlns:inkscape="http://www.inkscape.org/namespaces/inkscape"
   xmlns:sodipodi="http://sodipodi.sourceforge.net/DTD/sodipodi-0.dtd"
   xmlns="http://www.w3.org/2000/svg"
   xmlns:svg="http://www.w3.org/2000/svg">
  <sodipodi:namedview
     id="namedview13727"
     pagecolor="#ffffff"
     bordercolor="#000000"
     borderopacity="0.25"
     inkscape:showpageshadow="2"
     inkscape:pageopacity="0.0"
     inkscape:pagecheckerboard="0"
     inkscape:deskcolor="#d1d1d1"
     showgrid="false"
     inkscape:zoom="6.9083333"
     inkscape:cx="36.839566"
     inkscape:cy="60.072376"
     inkscape:window-width="1920"
     inkscape:window-height="1009"
     inkscape:window-x="-8"
     inkscape:window-y="-8"
     inkscape:window-maximized="1"
     inkscape:current-layer="svg13725" />
  <g
     clip-path="url(#clip0)"
     id="g13718">
    <path
       d="M117.414 0.241943H10.8354C9.65672 0.241943 8.70117 1.19749 8.70117 2.37616V23.9237H108.44C109.619 23.9237 110.574 24.8792 110.574 26.0579V96.8016H117.414C118.593 96.8016 119.548 95.8461 119.548 94.6674V2.37616C119.548 1.19749 118.593 0.241943 117.414 0.241943Z"
       fill="#E4EAF8"
       id="path13672" />
    <path
       d="M15.6949 0.241943H10.8354C9.65672 0.241943 8.70117 1.19749 8.70117 2.37616V23.9237H13.5609V2.37616C13.5607 1.19749 14.5162 0.241943 15.6949 0.241943Z"
       fill="#C3C8D1"
       id="path13674" />
    <path
       d="M113.299 23.9229H108.439C109.618 23.9229 110.574 24.8784 110.574 26.0571V96.8008H115.433V26.0571C115.433 24.8784 114.478 23.9229 113.299 23.9229Z"
       fill="#C3C8D1"
       id="path13676" />
    <path
       d="M109.165 23.4404H2.58637C1.4077 23.4404 0.452148 24.396 0.452148 25.5746V117.866C0.452148 119.045 1.4077 120 2.58637 120H109.165C110.344 120 111.299 119.045 111.299 117.866V25.5746C111.299 24.396 110.344 23.4404 109.165 23.4404Z"
       fill="#E4EAF8"
       id="path13678" />
    <path
       d="M5.28145 117.866V25.5746C5.28145 24.396 6.23699 23.4404 7.41566 23.4404H2.58637C1.4077 23.4404 0.452148 24.396 0.452148 25.5746V117.866C0.452148 119.045 1.4077 120 2.58637 120H7.41566C6.23699 120 5.28145 119.045 5.28145 117.866Z"
       fill="#D8DCE5"
       id="path13680" />
    <path
       d="M109.165 23.1985H2.58637C1.4077 23.1985 0.452148 24.154 0.452148 25.3327V37.6053H111.299V25.3327C111.299 24.1538 110.344 23.1985 109.165 23.1985Z"
       fill="#302C3F"
       id="path13682"
       style="fill:#063f5c;fill-opacity:1" />
    <path
       d="M15.3842 23.1985H2.58637C1.4077 23.1985 0.452148 24.154 0.452148 25.3327V37.6053H15.3842V23.1985Z"
       fill="#1dd5df"
       id="path13684"
       style="fill:#063f5c;fill-opacity:1" />
    <path
       d="M7.41566 23.1985H2.58637C1.4077 23.1985 0.452148 24.154 0.452148 25.3327V37.6053H5.28145V25.3327C5.28145 24.1538 6.23699 23.1985 7.41566 23.1985Z"
       fill="#0aacca"
       id="path13686"
       style="fill:#f27721;fill-opacity:1" />
    <path
       d="M117.414 0H10.8354C9.65672 0 8.70117 0.955547 8.70117 2.13422V14.4068H119.548V2.13422C119.548 0.955547 118.593 0 117.414 0Z"
       fill="#302C3F"
       id="path13688"
       style="fill:#f27721;fill-opacity:1" />
    <path
       d="M23.6334 0H10.8354C9.65672 0 8.70117 0.955547 8.70117 2.13422V14.4068H23.6332V0H23.6334Z"
       fill="#1dd5df"
       id="path13690"
       style="fill:#063f5c;fill-opacity:1" />
    <path
       d="M15.6649 0H10.8354C9.65672 0 8.70117 0.955547 8.70117 2.13422V14.4068H13.5305V2.13422C13.5305 0.955547 14.486 0 15.6649 0Z"
       fill="#0aacca"
       id="path13692"
       style="fill:#f27221;fill-opacity:1" />
    <path
       d="M54.4051 79.4068H15.0083C14.1964 79.4068 13.5381 78.7487 13.5381 77.9366V51.4304C13.5381 50.6186 14.1962 49.9602 15.0083 49.9602H54.4051C55.217 49.9602 55.8754 50.6183 55.8754 51.4304V77.9366C55.8751 78.7485 55.217 79.4068 54.4051 79.4068Z"
       fill="#1dd5df"
       id="path13694"
       style="fill:#f27221;fill-opacity:1" />
    <path
       d="M18.3674 77.8921V51.475C18.3674 50.6385 19.0454 49.9602 19.8821 49.9602H15.0529C14.2164 49.9602 13.5381 50.6383 13.5381 51.475V77.8921C13.5381 78.7286 14.2161 79.4068 15.0529 79.4068H19.8821C19.0454 79.4068 18.3674 78.7288 18.3674 77.8921Z"
       fill="#0aacca"
       id="path13696"
       style="fill:#063f5c;fill-opacity:1" />
    <path
       d="M37.8781 64.6834L55.8751 52.1661V51.475C55.8751 50.6385 55.197 49.9602 54.3603 49.9602H52.7028L34.7063 62.4772L16.7099 49.9602H15.0524C14.2159 49.9602 13.5376 50.6383 13.5376 51.475V52.1661L31.5345 64.6834L13.5381 77.2007V77.8921C13.5381 78.7286 14.2161 79.4068 15.0528 79.4068H16.7096L34.7068 66.8893L52.704 79.4068H54.3608C55.1973 79.4068 55.8756 78.7288 55.8756 77.8921V77.2007L37.8781 64.6834Z"
       fill="#0aacca"
       id="path13698"
       style="fill:#063f5c;fill-opacity:1" />
    <path
       d="M18.3666 51.4757C18.3666 51.3604 18.3807 51.2484 18.4051 51.1406L16.7094 49.9612H15.0519C14.2154 49.9612 13.5371 50.6392 13.5371 51.476V52.1671L18.3664 55.526L18.3666 51.4757Z"
       fill="#0aacca"
       id="path13700"
       style="fill:#f27721;fill-opacity:1" />
    <path
       d="M18.3659 77.8932V73.8428L13.5366 77.2018V77.8932C13.5366 78.7297 14.2147 79.408 15.0514 79.408H16.7082L18.4044 78.2282C18.38 78.1203 18.3659 78.0085 18.3659 77.8932Z"
       fill="#0aacca"
       id="path13702"
       style="fill:#f27721;fill-opacity:1" />
    <path
       d="M98.2205 52.2209H66.5688C65.5687 52.2209 64.7578 51.4102 64.7578 50.4099C64.7578 49.4098 65.5685 48.5989 66.5688 48.5989H98.2205C99.2205 48.5989 100.031 49.4096 100.031 50.4099C100.031 51.4102 99.2205 52.2209 98.2205 52.2209Z"
       fill="#C3C8D1"
       id="path13704" />
    <path
       d="M98.2205 61.7363H66.5688C65.5687 61.7363 64.7578 60.9256 64.7578 59.9253C64.7578 58.9252 65.5685 58.1143 66.5688 58.1143H98.2205C99.2205 58.1143 100.031 58.925 100.031 59.9253C100.031 60.9256 99.2205 61.7363 98.2205 61.7363Z"
       fill="#C3C8D1"
       id="path13706" />
    <path
       d="M98.2205 71.2534H66.5688C65.5687 71.2534 64.7578 70.4427 64.7578 69.4424C64.7578 68.4423 65.5685 67.6313 66.5688 67.6313H98.2205C99.2205 67.6313 100.031 68.442 100.031 69.4424C100.031 70.4424 99.2205 71.2534 98.2205 71.2534Z"
       fill="#C3C8D1"
       id="path13708" />
    <path
       d="M98.2205 80.7688H66.5688C65.5687 80.7688 64.7578 79.9581 64.7578 78.9577C64.7578 77.9574 65.5685 77.1467 66.5688 77.1467H98.2205C99.2205 77.1467 100.031 77.9574 100.031 78.9577C100.031 79.9581 99.2205 80.7688 98.2205 80.7688Z"
       fill="#C3C8D1"
       id="path13710" />
    <path
       d="M98.2201 90.2841H13.5378C12.5377 90.2841 11.7268 89.4734 11.7268 88.4731C11.7268 87.4728 12.5375 86.6621 13.5378 86.6621H98.2201C99.2202 86.6621 100.031 87.473 100.031 88.4731C100.031 89.4732 99.2202 90.2841 98.2201 90.2841Z"
       fill="#C3C8D1"
       id="path13712" />
    <path
       d="M98.2201 99.8H13.5378C12.5377 99.8 11.7268 98.9893 11.7268 97.989C11.7268 96.9889 12.5375 96.178 13.5378 96.178H98.2201C99.2202 96.178 100.031 96.9887 100.031 97.989C100.031 98.9893 99.2202 99.8 98.2201 99.8Z"
       fill="#C3C8D1"
       id="path13714" />
    <path
       d="M98.2201 109.316H13.5378C12.5377 109.316 11.7268 108.506 11.7268 107.505C11.7268 106.505 12.5375 105.694 13.5378 105.694H98.2201C99.2202 105.694 100.031 106.505 100.031 107.505C100.031 108.505 99.2202 109.316 98.2201 109.316Z"
       fill="#C3C8D1"
       id="path13716" />
  </g>
  <defs
     id="defs13723">
    <clipPath
       id="clip0">
      <rect
         width="120"
         height="120"
         fill="white"
         id="rect13720" />
    </clipPath>
  </defs>
</svg>
