<?xml version="1.0" encoding="UTF-8" standalone="no"?>
<svg
   width="120"
   height="120"
   viewBox="0 0 120 120"
   fill="none"
   version="1.1"
   id="svg7682"
   sodipodi:docname="web-design.svg"
   inkscape:version="1.2 (dc2aedaf03, 2022-05-15)"
   xmlns:inkscape="http://www.inkscape.org/namespaces/inkscape"
   xmlns:sodipodi="http://sodipodi.sourceforge.net/DTD/sodipodi-0.dtd"
   xmlns="http://www.w3.org/2000/svg"
   xmlns:svg="http://www.w3.org/2000/svg">
  <sodipodi:namedview
     id="namedview7684"
     pagecolor="#ffffff"
     bordercolor="#000000"
     borderopacity="0.25"
     inkscape:showpageshadow="2"
     inkscape:pageopacity="0.0"
     inkscape:pagecheckerboard="0"
     inkscape:deskcolor="#d1d1d1"
     showgrid="false"
     inkscape:zoom="6.9083333"
     inkscape:cx="36.839566"
     inkscape:cy="60.072376"
     inkscape:window-width="1920"
     inkscape:window-height="1009"
     inkscape:window-x="-8"
     inkscape:window-y="-8"
     inkscape:window-maximized="1"
     inkscape:current-layer="svg7682" />
  <g
     clip-path="url(#clip0)"
     id="g7675">
    <path
       d="M107.586 70.3445H115.862V105.517H107.586V70.3445Z"
       fill="#BDC3C7"
       id="path7637" />
    <path
       d="M103.448 60V66.2073L107.586 80.69H115.862L120 66.2073V60H103.448Z"
       fill="#95A5A5"
       id="path7639" />
    <path
       d="M95.1727 12.4136V74.4827C95.1727 79.053 91.4676 82.7581 86.8964 82.7581L6.20728 82.4899C2.55158 81.5515 -0.00274438 78.2565 2.21285e-06 74.4827V12.4136H95.1727Z"
       fill="#E4EAF8"
       id="path7641" />
    <path
       d="M95.1727 8.27545V16.5518H0V8.27545C0 3.70514 3.70514 0 8.27545 0H86.8964C91.4676 0 95.1727 3.70514 95.1727 8.27545Z"
       fill="#302C3F"
       id="path7643"
       style="fill:#063f5c;fill-opacity:1" />
    <path
       d="M12.4136 8.27545C12.4136 9.41895 11.4871 10.3445 10.3445 10.3445C9.2019 10.3445 8.27539 9.41895 8.27539 8.27545C8.27539 7.13287 9.2019 6.20728 10.3445 6.20728C11.4871 6.20728 12.4136 7.13287 12.4136 8.27545Z"
       fill="#E64C3C"
       id="path7645" />
    <path
       d="M20.6899 8.27545C20.6899 9.41895 19.7634 10.3445 18.6208 10.3445C17.4783 10.3445 16.5518 9.41895 16.5518 8.27545C16.5518 7.13287 17.4783 6.20728 18.6208 6.20728C19.7634 6.20728 20.6899 7.13287 20.6899 8.27545Z"
       fill="#F0C419"
       id="path7647" />
    <path
       d="M28.9653 8.27545C28.9653 9.41895 28.0388 10.3445 26.8962 10.3445C25.7537 10.3445 24.8271 9.41895 24.8271 8.27545C24.8271 7.13287 25.7537 6.20728 26.8962 6.20728C28.0388 6.20728 28.9653 7.13287 28.9653 8.27545Z"
       fill="#14A085"
       id="path7649" />
    <path
       d="M86.8965 8.27545C86.8965 9.41895 85.97 10.3445 84.8274 10.3445C83.6848 10.3445 82.7583 9.41895 82.7583 8.27545C82.7583 7.13287 83.6848 6.20728 84.8274 6.20728C85.97 6.20728 86.8965 7.13287 86.8965 8.27545Z"
       fill="#955BA5"
       id="path7651" />
    <path
       d="M82.7581 49.6553H84.8272C85.9698 49.6553 86.8963 48.7288 86.8963 47.5862V26.8962C86.8963 25.7537 85.9698 24.8271 84.8272 24.8271H10.3445C9.2019 24.8271 8.27539 25.7537 8.27539 26.8962V47.5862C8.27539 48.7288 9.2019 49.6553 10.3445 49.6553H82.7581Z"
       fill="#0aacca"
       id="path7653"
       style="fill:#f27721;fill-opacity:1" />
    <path
       d="M82.1831 88.9649H82.758C84.0819 88.9667 85.3243 89.6012 86.1016 90.6714C86.8798 91.7426 87.0976 93.1204 86.6893 94.3793C80.9783 111.761 63.4871 122.418 45.4219 119.526C27.3567 116.634 14.0679 101.048 14.0679 82.753C14.0679 64.458 27.3567 48.8721 45.4219 45.9799C63.4871 43.0878 80.9783 53.7454 86.6893 71.1267C87.1022 72.3865 86.8852 73.768 86.107 74.841C85.3298 75.9149 84.0846 76.5503 82.758 76.5512H82.1895C79.0749 76.4734 76.0427 75.5359 73.4279 73.8431C69.0691 71.2778 63.4944 72.2391 60.248 76.1173C57.0015 79.9945 57.0345 85.6516 60.3258 89.4904C63.6171 93.3301 69.2028 94.2273 73.5314 91.6107C76.1086 89.9317 79.1078 89.0143 82.1831 88.9649Z"
       fill="#1dd5df"
       id="path7655"
       style="fill:#f27721;fill-opacity:1" />
    <path
       d="M33.511 82.7582C33.511 85.6156 31.1957 87.931 28.3383 87.931C25.4819 87.931 23.1665 85.6156 23.1665 82.7582C23.1665 79.9018 25.4819 77.5864 28.3383 77.5864C31.1957 77.5864 33.511 79.9018 33.511 82.7582Z"
       fill="#24AE5F"
       id="path7657" />
    <path
       d="M41.7864 100.345C41.7864 103.202 39.4711 105.517 36.6146 105.517C33.7582 105.517 31.4419 103.202 31.4419 100.345C31.4419 97.4882 33.7582 95.1729 36.6146 95.1729C39.4711 95.1729 41.7864 97.4882 41.7864 100.345Z"
       fill="#4482C3"
       id="path7659" />
    <path
       d="M60.4075 106.552C60.4075 109.408 58.0922 111.725 55.2357 111.725C52.3784 111.725 50.063 109.408 50.063 106.552C50.063 103.695 52.3784 101.379 55.2357 101.379C58.0922 101.379 60.4075 103.695 60.4075 106.552Z"
       fill="#804169"
       id="path7661" />
    <path
       d="M41.7864 65.1727C41.7864 68.0292 39.4711 70.3445 36.6146 70.3445C33.7582 70.3445 31.4419 68.0292 31.4419 65.1727C31.4419 62.3154 33.7582 60 36.6146 60C39.4711 60 41.7864 62.3154 41.7864 65.1727Z"
       fill="#E64C3C"
       id="path7663" />
    <path
       d="M60.4075 58.9655C60.4075 61.8219 58.0922 64.1382 55.2357 64.1382C52.3784 64.1382 50.063 61.8219 50.063 58.9655C50.063 56.109 52.3784 53.7927 55.2357 53.7927C58.0922 53.7927 60.4075 56.109 60.4075 58.9655Z"
       fill="#F0C419"
       id="path7665" />
    <path
       d="M120 66.2074H103.448V17.9463C103.472 13.5893 104.625 9.31195 106.794 5.53265L109.188 1.27637C109.785 0.474365 110.725 0.00195312 111.725 0.00195312C112.723 0.00195312 113.665 0.474365 114.261 1.27637L116.655 5.53265C118.824 9.31195 119.976 13.5893 120 17.9463V66.2074Z"
       fill="#302C3F"
       id="path7667"
       style="fill:#063f5c;fill-opacity:1" />
    <path
       d="M110.514 95.1729C110.514 95.1729 102.178 95.1729 103.616 105.104C105.054 115.034 119.713 120 119.713 120C119.713 120 114.095 111.817 117.414 107.586C120.069 104.202 122.145 100.814 115.914 95.1729"
       fill="#1dd5df"
       id="path7669"
       style="fill:#f27721;fill-opacity:1" />
    <path
       d="M111.725 28.9653C110.581 28.9653 109.656 29.8918 109.656 31.0344V53.7926C109.656 54.9361 110.581 55.8617 111.725 55.8617C112.867 55.8617 113.793 54.9361 113.793 53.7926V31.0344C113.793 29.8918 112.867 28.9653 111.725 28.9653Z"
       fill="#E4EAF8"
       id="path7671" />
    <path
       d="M111.725 18.6208C110.581 18.6208 109.656 19.5474 109.656 20.6899V22.7581C109.656 23.9016 110.581 24.8272 111.725 24.8272C112.867 24.8272 113.793 23.9016 113.793 22.7581V20.6899C113.793 19.5474 112.867 18.6208 111.725 18.6208Z"
       fill="#E4EAF8"
       id="path7673" />
  </g>
  <defs
     id="defs7680">
    <clipPath
       id="clip0">
      <rect
         width="120"
         height="120"
         fill="white"
         id="rect7677" />
    </clipPath>
  </defs>
</svg>
