<svg width="81" height="96" viewBox="0 0 81 96" fill="none" xmlns="http://www.w3.org/2000/svg">
<path d="M50.107 95.9999C53.3168 95.9999 56.116 93.2007 56.116 89.9909V75.9573H60.1283C62.536 75.9573 64.1406 74.3521 64.1406 71.945V31.8633H16.0312V71.9454C16.0312 74.3527 17.6362 75.9577 20.0435 75.9577H24.0562V89.9913C24.0562 93.2011 26.8546 96.0002 30.0652 96.0002C33.2746 96.0002 36.0736 93.2011 36.0736 89.9913V75.9577H44.0984V89.9913C44.098 93.2007 46.8972 95.9999 50.107 95.9999Z" fill="#A6D864"/>
<path d="M74.1603 71.9452C77.3701 71.9452 80.1688 69.1464 80.1688 65.9362V37.8694C80.1688 34.6765 77.3703 31.863 74.1603 31.863C70.9502 31.863 68.1514 34.6767 68.1514 37.8694V65.9362C68.1514 69.146 70.95 71.9452 74.1603 71.9452Z" fill="#A6D864"/>
<path d="M6.00842 71.9452C9.21859 71.9452 12.0174 69.1464 12.0174 65.9362V37.8694C12.0174 34.6765 9.21897 31.863 6.00842 31.863C2.79862 31.863 0 34.6767 0 37.8694V65.9362C0.000187499 69.146 2.79862 71.9452 6.00842 71.9452Z" fill="#A6D864"/>
<path d="M59.3252 0.605388C58.5231 -0.201796 57.3289 -0.201796 56.5268 0.605388L51.1454 5.96881L50.8971 6.21668C47.7063 4.61881 44.1286 3.82081 40.1446 3.81313C40.1251 3.81313 40.1058 3.81256 40.0863 3.81256H40.0857C40.0655 3.81256 40.0469 3.81313 40.0269 3.81313C36.0431 3.82081 32.4656 4.61881 29.2749 6.21668L29.0261 5.96881L23.6447 0.605388C22.842 -0.201796 21.6484 -0.201796 20.8462 0.605388C20.0436 1.40807 20.0436 2.59944 20.8462 3.40157L26.0518 8.60805C24.3744 9.72798 22.8534 11.0984 21.5308 12.6659C18.3643 16.4193 16.3444 21.3042 16.0667 26.5969C16.0641 26.652 16.0586 26.7064 16.0562 26.7615C16.0391 27.1219 16.0312 27.4842 16.0312 27.8479H64.1404C64.1404 27.4844 64.1318 27.1221 64.1155 26.7615C64.1128 26.7064 64.1074 26.652 64.1042 26.5969C63.8271 21.3042 61.8068 16.4191 58.6401 12.6663C57.318 11.0988 55.7965 9.72836 54.1191 8.60842L59.3252 3.40194C60.1281 2.59944 60.1281 1.40826 59.3252 0.605388ZM30.0573 20.8424C28.3974 20.8424 27.0515 19.4967 27.0515 17.8366C27.0515 16.1765 28.3972 14.8308 30.0573 14.8308C31.7173 14.8308 33.0631 16.1765 33.0631 17.8366C33.0631 19.4967 31.7173 20.8424 30.0573 20.8424ZM50.1141 20.8424C48.4542 20.8424 47.1083 19.4967 47.1083 17.8366C47.1083 16.1765 48.454 14.8308 50.1141 14.8308C51.7741 14.8308 53.1199 16.1765 53.1199 17.8366C53.1199 19.4967 51.7742 20.8424 50.1141 20.8424Z" fill="#A6D864"/>
</svg>
