<svg width="120" height="120" viewBox="0 0 120 120" fill="none" xmlns="http://www.w3.org/2000/svg">
<path d="M93.5811 24.0189C93.0831 24.0189 92.585 24.0344 92.0879 24.0646C90.0563 17.7228 86.1891 12.0245 80.9835 7.7774C74.8366 2.76215 67.0748 0 59.128 0C50.1567 0 41.6515 3.41949 35.1805 9.6286C29.6709 14.9149 26.1177 21.752 24.9523 29.187C24.6126 29.1705 24.2739 29.1623 23.9342 29.1623C12.0296 29.1623 2.34424 38.8477 2.34424 50.7532C2.34424 62.6578 12.0296 72.3431 23.9342 72.3431C100.492 72.3312 96.4467 72.3734 96.9036 72.3102C108.784 70.6732 117.744 60.2994 117.744 48.1805C117.744 34.8578 106.905 24.0189 93.5811 24.0189Z" fill="#1dd5df"/>
<path d="M117.742 48.1796C117.742 60.3003 108.784 70.6723 96.903 72.3083C96.4462 72.3761 98.811 72.3322 60.043 72.3441V0.0146484C67.6684 0.216064 75.0741 2.95624 80.982 7.7774C86.1895 12.0236 90.0549 17.7237 92.0892 24.0656C92.5863 24.0344 93.0834 24.0179 93.5806 24.0179C106.903 24.0179 117.742 34.8569 117.742 48.1796Z" fill="#0aacca"/>
<path d="M110.638 48.1797C110.638 56.6913 104.432 63.9826 96.1629 65.2396H23.9351C15.9471 65.2396 9.44873 58.7394 9.44873 50.7514C9.44873 42.7662 15.9471 36.2659 23.9351 36.2659C25.0576 36.2659 26.1873 36.4014 27.2951 36.6642C28.3251 36.9077 29.41 36.6807 30.255 36.0407C31.101 35.4044 31.6173 34.4211 31.6649 33.3628C32.3131 18.6375 44.3761 7.10547 59.1271 7.10547C71.9747 7.10547 83.2732 16.2012 85.9941 28.7357C86.4061 30.6345 88.2674 31.8494 90.1708 31.464C91.2886 31.2388 92.4349 31.1225 93.5811 31.1225C102.987 31.1225 110.638 38.7763 110.638 48.1797Z" fill="#1dd5df"/>
<path d="M110.638 48.1798C110.638 56.6915 104.431 63.9827 96.1624 65.2397H60.043V7.12207C72.507 7.54138 83.3358 16.4998 85.9936 28.7358C86.4056 30.6346 88.2668 31.8495 90.1702 31.4641C91.2881 31.2389 92.4343 31.1226 93.5806 31.1226C102.987 31.1226 110.638 38.7764 110.638 48.1798Z" fill="#0aacca"/>
<path d="M92.6286 74.3585L89.4068 76.3113C88.1398 77.0712 87.8752 78.5031 88.1745 79.5853C88.5096 80.7938 89.4517 81.5747 90.5751 81.5747V92.0612C90.5751 95.3497 97.0286 95.4175 97.0286 92.0612V76.5137C97.0286 74.3622 94.1246 73.4064 92.6286 74.3585Z" fill="#302C3F"/>
<path d="M71.8101 74.0444C67.2334 74.0444 64.5015 76.6949 64.5015 81.1334V87.6116C64.5015 92.051 67.2334 94.7006 71.8101 94.7006C76.4711 94.7006 79.1435 92.1169 79.1435 87.6116V81.1334C79.1435 76.6281 76.4711 74.0444 71.8101 74.0444ZM72.6899 87.6116C72.6899 88.5793 72.4308 88.7359 71.8101 88.7359C71.2288 88.7359 70.955 88.6251 70.955 87.6116V81.1334C70.955 80.1199 71.2288 80.0091 71.8101 80.0091C72.4308 80.0091 72.6899 80.1656 72.6899 81.1334V87.6116Z" fill="#0aacca"/>
<path d="M49.132 81.5746V92.0611C49.132 95.3497 55.5856 95.4174 55.5856 92.0611V76.5136C55.5856 74.3621 52.6833 73.4054 51.1855 74.3584L47.9638 76.3112C45.6026 77.7285 46.5777 81.5746 49.132 81.5746Z" fill="#302C3F"/>
<path d="M30.3682 74.0444C25.7915 74.0444 23.0596 76.6949 23.0596 81.1334V87.6116C23.0596 92.051 25.7915 94.7006 30.3682 94.7006C35.0292 94.7006 37.7016 92.1169 37.7016 87.6116V81.1334C37.7016 76.6281 35.0292 74.0444 30.3682 74.0444ZM31.248 87.6116C31.248 88.5793 30.989 88.7359 30.3682 88.7359C29.7869 88.7359 29.5131 88.6251 29.5131 87.6116V81.1334C29.5131 80.1199 29.7869 80.0091 30.3682 80.0091C30.989 80.0091 31.248 80.1656 31.248 81.1334V87.6116Z" fill="#1dd5df"/>
<path d="M92.6278 99.6572L89.4061 101.61C87.044 103.027 88.02 106.873 90.5743 106.873V117.36C90.5743 120.648 97.0279 120.716 97.0279 117.36V101.813C97.0279 99.6618 94.1238 98.705 92.6278 99.6572Z" fill="#302C3F"/>
<path d="M71.8101 99.3433C67.2334 99.3433 64.5015 101.994 64.5015 106.432V112.91C64.5015 117.35 67.2334 119.999 71.8101 119.999C76.4711 119.999 79.1435 117.416 79.1435 112.91V106.432C79.1435 101.927 76.4711 99.3433 71.8101 99.3433ZM72.6899 112.91C72.6899 113.878 72.4308 114.035 71.8101 114.035C71.2288 114.035 70.955 113.924 70.955 112.91V106.432C70.955 105.419 71.2288 105.308 71.8101 105.308C72.4308 105.308 72.6899 105.464 72.6899 106.432V112.91Z" fill="#0aacca"/>
<path d="M30.4649 99.6565L27.2431 101.609C24.8865 103.024 25.8533 106.873 28.4113 106.873V117.359C28.4113 120.648 34.8649 120.715 34.8649 117.359V101.813C34.8649 99.6812 31.9837 98.6897 30.4649 99.6565Z" fill="#302C3F"/>
<path d="M51.0894 99.3438C46.5127 99.3438 43.7808 101.994 43.7808 106.433V112.911C43.7808 117.35 46.5127 120 51.0894 120C55.7504 120 58.4228 117.416 58.4228 112.911V106.433C58.4228 101.927 55.7495 99.3438 51.0894 99.3438ZM51.9692 112.911C51.9692 113.879 51.7101 114.035 51.0894 114.035C50.5081 114.035 50.2343 113.924 50.2343 112.911V106.433C50.2343 105.419 50.5081 105.308 51.0894 105.308C51.7101 105.308 51.9692 105.465 51.9692 106.433V112.911Z" fill="#1dd5df"/>
</svg>
