<svg width="85" height="96" viewBox="0 0 85 96" fill="none" xmlns="http://www.w3.org/2000/svg">
<path d="M42.532 0C19.0244 0 0 18.94 0 42.3434C0 62.9487 14.8363 80.0696 34.4152 83.8788V96C59.8697 92.1794 82.4082 72.063 84.09 45.6566C85.1023 29.7621 77.1422 13.5357 63.7169 5.65657C62.9482 5.20545 62.1673 4.75761 61.363 4.36364C60.5435 3.96219 59.7019 3.57094 58.8468 3.23232C58.5753 3.11927 58.3093 3.01672 58.0351 2.90909C57.2882 2.6346 56.5346 2.3255 55.7624 2.10101C51.6006 0.735351 47.1516 0 42.532 0Z" fill="#00A818"/>
<path d="M51.3435 15.6454C49.8856 15.4966 48.3504 16.0016 47.2768 17.2648C46.496 18.3013 46.008 19.3053 45.4875 20.3418C43.9259 23.9693 44.4464 27.856 46.7888 30.7062C50.4326 29.9289 53.5232 27.6131 55.0848 23.9855C55.6053 22.9491 55.8981 21.6211 55.8981 20.5847C56.0608 17.8316 53.7733 15.8933 51.3435 15.6454ZM32.3929 15.8883C30.0164 16.1135 27.7569 17.9936 27.7569 20.5847C27.7569 21.6211 28.0497 22.9491 28.5702 23.9855C30.1318 27.6131 33.4665 29.9289 37.1102 30.7062C39.1923 27.856 39.7291 23.9693 38.1675 20.3418C37.647 19.3053 37.159 18.2851 36.3782 17.5077C35.3046 16.2446 33.8187 15.7532 32.3929 15.8883ZM19.6236 28.358C15.5194 28.5677 13.6863 33.7022 17.1022 36.3743C18.1433 37.1517 19.1518 37.7185 20.1929 38.2367C23.8366 39.7914 28.0497 39.2569 31.1729 37.184C30.3921 33.8156 27.7406 30.7224 24.0969 29.1678C22.7956 28.6495 21.7382 28.358 20.4369 28.358C20.1441 28.3257 19.8972 28.344 19.6236 28.358ZM59.7208 44.0667C57.3367 44.0212 54.9221 44.7145 52.9701 46.01C53.7509 49.3785 56.4024 52.4716 60.0461 54.0263C61.3475 54.5445 62.4048 54.836 63.7061 54.836C68.3909 55.0952 70.6845 49.3299 67.0408 46.7388C65.9997 45.9615 64.9912 45.4756 63.9501 44.9574C62.5837 44.3744 61.1512 44.094 59.7208 44.0667ZM24.1782 44.3096C22.7478 44.337 21.3153 44.6173 19.9489 45.2003C18.6476 45.7185 17.639 46.2854 16.8582 47.0627C13.4748 49.9129 15.7521 55.3381 20.4369 55.079C21.7382 55.079 23.0558 54.7875 24.0969 54.2692C27.7406 52.7146 30.327 49.6214 30.8475 46.253C28.8955 44.9574 26.5623 44.2641 24.1782 44.3096ZM37.3542 52.2449C33.7105 53.0223 30.6198 55.3381 29.0582 58.9656C28.5377 60.0021 28.2449 61.2491 28.2449 62.2855C27.9846 66.6904 34.0195 69.0548 36.6222 65.6864C37.403 64.6499 37.891 63.6459 38.4115 62.6094C39.9731 59.2409 39.4363 55.3543 37.3542 52.2449ZM47.0328 52.4878C44.9507 55.3381 44.4139 59.2248 45.9755 62.8523C46.496 63.8888 46.984 64.909 47.7648 65.6864C50.6278 68.7957 56.6464 66.4961 56.3861 62.6094C56.3861 61.573 56.0933 60.245 55.5728 59.2086C54.0112 55.581 50.6766 53.2652 47.0328 52.4878Z" fill="white"/>
</svg>
