<svg width="120" height="120" viewBox="0 0 120 120" fill="none" xmlns="http://www.w3.org/2000/svg">
<path d="M89.742 21.3984C85.3123 8.81227 73.4998 0 60 0C46.5002 0 34.6877 8.81227 30.258 21.3984C17.4609 22.2422 7.26562 32.9299 7.26562 45.9375C7.26562 59.5078 18.3047 70.5469 31.875 70.5469H88.125C101.695 70.5469 112.734 59.5078 112.734 45.9375C112.734 32.9299 102.539 22.2422 89.742 21.3984Z" fill="#1dd5df"/>
<path d="M112.734 45.9375C112.734 59.5078 101.695 70.5469 88.125 70.5469H60V0C73.4998 0 85.3123 8.81227 89.742 21.3984C102.539 22.2422 112.734 32.9299 112.734 45.9375Z" fill="#0aacca"/>
<path d="M77.5781 52.9688C77.5781 54.9377 76.0315 56.4844 74.0625 56.4844H45.9375C43.9685 56.4844 42.4219 54.9377 42.4219 52.9688C42.4219 50.9998 43.9685 49.4531 45.9375 49.4531H74.0625C76.0315 49.4531 77.5781 50.9998 77.5781 52.9688Z" fill="#302C3F"/>
<path d="M77.5781 67.0312C77.5781 69.0002 76.0315 70.5469 74.0625 70.5469H45.9375C43.9685 70.5469 42.4219 69.0002 42.4219 67.0312C42.4219 65.0623 43.9685 63.5156 45.9375 63.5156H74.0625C76.0315 63.5156 77.5781 65.0623 77.5781 67.0312Z" fill="#302C3F"/>
<path d="M77.5781 95.1562C77.5781 97.1252 76.0315 98.6719 74.0625 98.6719H45.9375C43.9685 98.6719 42.4219 97.1252 42.4219 95.1562C42.4219 93.1873 43.9685 91.6406 45.9375 91.6406H74.0625C76.0315 91.6406 77.5781 93.1873 77.5781 95.1562Z" fill="#302C3F"/>
<path d="M77.5781 109.453C77.5781 111.422 76.0315 112.969 74.0625 112.969H45.9375C43.9685 112.969 42.4219 111.422 42.4219 109.453C42.4219 107.484 43.9685 105.938 45.9375 105.938H74.0625C76.0315 105.938 77.5781 107.484 77.5781 109.453Z" fill="#302C3F"/>
<path d="M77.5781 81.0938C77.5781 83.0627 76.0315 84.6094 74.0625 84.6094H45.9375C43.9685 84.6094 42.4219 83.0627 42.4219 81.0938C42.4219 79.1248 43.9685 77.5781 45.9375 77.5781H74.0625C76.0315 77.5781 77.5781 79.1248 77.5781 81.0938Z" fill="#302C3F"/>
<path d="M77.5781 109.453C77.5781 111.422 76.0315 112.969 74.0625 112.969H60V105.938H74.0625C76.0315 105.938 77.5781 107.484 77.5781 109.453Z" fill="#302C3F"/>
<path d="M77.5781 95.1562C77.5781 97.1252 76.0315 98.6719 74.0625 98.6719H60V91.6406H74.0625C76.0315 91.6406 77.5781 93.1873 77.5781 95.1562Z" fill="#302C3F"/>
<path d="M77.5781 81.0938C77.5781 83.0627 76.0315 84.6094 74.0625 84.6094H60V77.5781H74.0625C76.0315 77.5781 77.5781 79.1248 77.5781 81.0938Z" fill="#302C3F"/>
<path d="M77.5781 67.0312C77.5781 69.0002 76.0315 70.5469 74.0625 70.5469H60V63.5156H74.0625C76.0315 63.5156 77.5781 65.0623 77.5781 67.0312Z" fill="#302C3F"/>
<path d="M74.0625 56.4844H60V49.4531H74.0625C76.0315 49.4531 77.5781 50.9998 77.5781 52.9688C77.5781 54.9377 76.0315 56.4844 74.0625 56.4844Z" fill="#302C3F"/>
<path d="M45.9375 120C43.9943 120 42.4219 118.428 42.4219 116.484V45.9375C42.4219 43.9943 43.9943 42.4219 45.9375 42.4219C47.8807 42.4219 49.4531 43.9943 49.4531 45.9375V116.484C49.4531 118.428 47.8807 120 45.9375 120Z" fill="#302C3F"/>
<path d="M74.0625 120C72.1193 120 70.5469 118.428 70.5469 116.484V45.9375C70.5469 43.9943 72.1193 42.4219 74.0625 42.4219C76.0057 42.4219 77.5781 43.9943 77.5781 45.9375V116.484C77.5781 118.428 76.0057 120 74.0625 120Z" fill="#302C3F"/>
</svg>
