<svg width="120" height="120" viewBox="0 0 120 120" fill="none" xmlns="http://www.w3.org/2000/svg">
<path d="M120 14.2969V74.0625L112.969 81.0938H7.6643L0 74.0625V14.2969C0 8.4607 4.7107 3.75 10.5469 3.75H109.453C115.289 3.75 120 8.4607 120 14.2969Z" fill="#302C3F"/>
<path d="M120 14.2969V74.0625L112.969 81.0938H60V3.75H109.453C115.289 3.75 120 8.4607 120 14.2969Z" fill="#302C3F"/>
<path d="M112.969 14.2969V81.0938H7.03125V14.2969C7.03125 12.3279 8.57789 10.7812 10.5469 10.7812H109.453C111.422 10.7812 112.969 12.3279 112.969 14.2969Z" fill="#1dd5df"/>
<path d="M112.969 14.2969V81.0938H60V10.7812H109.453C111.422 10.7812 112.969 12.3279 112.969 14.2969Z" fill="#0aacca"/>
<path d="M84.3989 111.609H35.6025L42.6338 90.5154C43.0557 89.1094 44.3916 88.125 45.9382 88.125H74.0632C75.6099 88.125 76.9458 89.1094 77.3677 90.5154L84.3989 111.609Z" fill="#302C3F"/>
<path d="M77.367 90.5154L84.3982 111.609H60V88.125H74.0625C75.6091 88.125 76.9451 89.1094 77.367 90.5154Z" fill="#302C3F"/>
<path d="M95.1562 38.9062C89.3405 38.9062 84.6094 34.1752 84.6094 28.3594C84.6094 22.5436 89.3405 17.8125 95.1562 17.8125C100.972 17.8125 105.703 22.5436 105.703 28.3594C105.703 34.1752 100.972 38.9062 95.1562 38.9062Z" fill="#1dd5df"/>
<path d="M98.6719 63.5156V77.5781C98.6719 79.5466 97.1252 81.0938 95.1562 81.0938H73.9922C76.2422 78.1404 77.5781 74.5547 77.5781 70.5469C77.5781 60.8438 69.7031 52.9688 60 52.9688C50.2969 52.9688 42.4219 60.8438 42.4219 70.5469C42.4219 74.5547 43.7578 78.1404 46.0078 81.0938H24.8438C22.8748 81.0938 21.3281 79.5466 21.3281 77.5781V63.5156C21.3281 61.5466 22.8748 60 24.8438 60H30.258C30.6096 58.9451 31.0315 57.9607 31.5237 56.9766L27.6565 53.1091C26.3205 51.7732 26.3205 49.5237 27.6565 48.1875L37.6406 38.2029C38.9766 36.867 41.2266 36.867 42.5625 38.2029L46.4297 42.0703C47.4141 41.5781 48.3982 41.1563 49.4531 40.8042V35.3906C49.4531 33.4216 50.9998 31.875 52.9688 31.875H67.0312C69.0002 31.875 70.5469 33.4216 70.5469 35.3906V40.8045C71.6018 41.1562 72.5857 41.5781 73.5703 42.0705L77.4375 38.2031C78.7734 36.8672 81.0234 36.8672 82.3594 38.2031L92.3435 48.1877C93.6795 49.5237 93.6795 51.7732 92.3435 53.1094L88.4766 56.9766C88.9688 57.9607 89.3906 58.9451 89.7422 60H95.1562C97.1252 60 98.6719 61.5466 98.6719 63.5156Z" fill="#302C3F"/>
<path d="M98.6719 63.5156V77.5781C98.6719 79.5466 97.1252 81.0938 95.1562 81.0938H73.9922C76.2422 78.1404 77.5781 74.5547 77.5781 70.5469C77.5781 60.8438 69.7031 52.9688 60 52.9688V31.875H67.0312C69.0002 31.875 70.5469 33.4216 70.5469 35.3906V40.8045C71.6018 41.1562 72.5857 41.5781 73.5703 42.0705L77.4375 38.2031C78.7734 36.8672 81.0234 36.8672 82.3594 38.2031L92.3435 48.1877C93.6795 49.5237 93.6795 51.7732 92.3435 53.1094L88.4766 56.9766C88.9688 57.9607 89.3906 58.9451 89.7422 60H95.1562C97.1252 60 98.6719 61.5466 98.6719 63.5156Z" fill="#302C3F"/>
<path d="M120 74.0625V84.6094C120 90.4451 115.289 95.1562 109.453 95.1562H10.5469C4.7107 95.1562 0 90.4451 0 84.6094V74.0625H120Z" fill="#302C3F"/>
<path d="M120 74.0625V84.6094C120 90.4451 115.289 95.1562 109.453 95.1562H60V74.0625H120Z" fill="#302C3F"/>
<path d="M98.6719 112.734C98.6719 114.703 97.1252 116.25 95.1562 116.25H24.8438C22.8748 116.25 21.3281 114.703 21.3281 112.734C21.3281 110.765 22.8748 109.219 24.8438 109.219H95.1562C97.1252 109.219 98.6719 110.765 98.6719 112.734Z" fill="#302C3F"/>
<path d="M98.6719 112.734C98.6719 114.703 97.1252 116.25 95.1562 116.25H60V109.219H95.1562C97.1252 109.219 98.6719 110.765 98.6719 112.734Z" fill="#302C3F"/>
</svg>
