<svg width="930" height="543" viewBox="0 0 930 543" fill="none" xmlns="http://www.w3.org/2000/svg">
<g clip-path="url(#clip0)">
<g opacity="0.1">
<path opacity="0.1" d="M426.673 415.787C399.448 415.887 372.222 416.691 344.996 420.407C334.748 421.813 324.702 424.927 314.455 426.132C293.96 428.644 273.766 433.264 253.171 435.474C236.595 437.181 219.917 438.186 203.441 440.396C187.97 442.505 170.79 442.003 155.419 438.588C144.067 436.077 132.614 434.67 121.362 430.552C108.804 426.032 95.241 422.818 82.1806 422.918C63.5946 423.119 45.4106 423.119 27.6283 431.155C21.3995 433.967 13.7642 438.588 8.94195 444.514C-1.90822 457.974 -3.41519 491.723 7.43498 505.685C25.7195 529.289 64.6998 538.53 90.3182 538.932C118.348 539.434 145.674 536.823 173.804 535.316C199.925 533.91 225.945 531.901 252.167 532.001C305.614 532.102 359.061 532.001 412.407 527.582C462.539 523.464 512.771 524.87 563.004 524.87C614.542 524.87 665.678 525.372 716.815 533.809C739.118 537.526 761.823 538.832 784.227 541.343C804.319 543.653 823.508 541.343 843.501 539.133C860.278 537.325 876.955 532.001 892.226 522.961C904.282 515.83 925.781 493.631 929.498 476.556C939.846 428.744 783.322 429.949 759.311 430.05C732.387 430.15 705.362 431.255 678.437 429.949C667.185 429.447 656.034 426.635 644.983 423.722C634.032 420.708 622.881 421.512 611.829 420.206C565.415 414.983 518.799 415.787 472.184 415.787C457.014 415.887 441.844 415.686 426.673 415.787Z" fill="#9EA6AD"/>
</g>
<path d="M746.952 79.8008H170.688V443.31H746.952V79.8008Z" fill="#E3E3E3"/>
<path d="M746.952 51.4746H170.688V73.2711H746.952V51.4746Z" fill="#145566"/>
<path d="M746.952 73.2715H170.688V101.898H746.952V73.2715Z" fill="#cbeff5"/>
<path d="M720.429 83.7168H230.363V95.9711H720.429V83.7168Z" fill="white"/>
<path d="M191.183 65.0348C193.181 65.0348 194.8 63.4158 194.8 61.4187C194.8 59.4217 193.181 57.8027 191.183 57.8027C189.186 57.8027 187.566 59.4217 187.566 61.4187C187.566 63.4158 189.186 65.0348 191.183 65.0348Z" fill="#aecbd0"/>
<path d="M201.933 65.0348C203.931 65.0348 205.55 63.4158 205.55 61.4187C205.55 59.4217 203.931 57.8027 201.933 57.8027C199.936 57.8027 198.316 59.4217 198.316 61.4187C198.316 63.4158 199.936 65.0348 201.933 65.0348Z" fill="#EBB044"/>
<path d="M212.582 65.0348C214.579 65.0348 216.198 63.4158 216.198 61.4187C216.198 59.4217 214.579 57.8027 212.582 57.8027C210.584 57.8027 208.965 59.4217 208.965 61.4187C208.965 63.4158 210.584 65.0348 212.582 65.0348Z" fill="#EAC5B0"/>
<g opacity="0.36">
<g opacity="0.36">
<path d="M210.473 84.0195V95.7716L214.692 89.8453L210.473 84.0195Z" fill="#F3F3F3"/>
</g>
<g opacity="0.36">
<path d="M193.294 95.7716V84.0195L189.074 89.8453L193.294 95.7716Z" fill="white"/>
</g>
</g>
<path d="M62.9912 485.394L62.1875 491.923L74.4442 500.16L81.7781 494.434L76.1521 487.102L63.8954 478.865L62.9912 485.394Z" fill="#1A3151"/>
<path d="M62.5885 483.186L72.0322 399.716L60.6797 306.302L63.1913 286.414L114.026 284.506L115.835 316.849L107.295 399.816L75.247 487.404L62.5885 483.186Z" fill="#8C8E90"/>
<path d="M118.75 192.096L144.268 199.026L173.805 251.358L159.84 264.315L140.149 241.012L118.75 192.096Z" fill="#1A3151"/>
<path d="M151.297 293.847L151.398 378.02L134.419 486.5L122.263 486.4L115.532 386.055L99.8594 285.711L151.297 293.847Z" fill="#8C8E90"/>
<path d="M122.262 491.522L135.423 498.252L142.053 491.723L135.523 484.993L122.262 484.893V491.522Z" fill="#1A3151"/>
<path d="M55.4555 322.473C55.5559 318.857 55.7568 315.743 55.7568 314.738C56.0582 304.995 56.862 295.152 58.0675 285.408C59.1726 276.67 60.5791 255.074 62.0861 246.436C63.2917 239.304 67.6117 221.425 70.7261 214.796C78.4618 198.323 76.0507 196.816 109.907 191.894C124.776 189.785 128.292 199.026 140.348 209.673C141.554 210.677 141.453 217.006 141.754 218.613C142.257 221.526 142.759 224.438 143.362 227.351C143.864 229.662 144.367 231.871 144.969 234.182C144.969 234.182 155.116 280.487 161.847 290.33C168.578 300.174 182.543 313.935 159.235 322.372C155.116 323.678 150.997 324.984 146.677 325.687C146.677 325.687 127.589 323.577 117.844 323.678C108.802 323.778 99.7603 324.682 90.9194 326.189C84.992 327.193 78.9641 328.6 73.6395 331.412C68.6163 334.024 64.8991 337.941 59.7754 340.653C59.2731 340.954 58.7708 341.155 58.168 341.055C55.355 340.452 55.1541 330.106 55.4555 322.473Z" fill="#1A3151"/>
<path d="M109.362 196.24C107.628 197.034 103.548 197.332 99.2644 195.744C98.4484 195.446 97.8364 194.652 97.8364 193.66C97.8364 191.18 98.0405 188.6 98.4485 186.119C95.2865 185.028 91.5125 183.341 91.0025 180.165C90.7985 179.173 91.0025 178.082 91.2065 177.089C91.9205 172.823 92.7365 168.655 93.4505 164.388C93.7565 162.9 93.9605 161.412 94.7765 160.122C96.2045 157.939 98.9584 156.946 101.61 156.549C108.342 155.458 115.686 156.847 120.99 161.114C122.418 162.305 123.642 163.595 124.254 165.281C125.172 167.861 124.458 170.739 123.744 173.319C123.132 175.799 122.418 178.181 121.806 180.662C121.092 183.44 119.97 186.615 117.216 187.707C115.788 188.302 113.952 188.104 112.626 188.897C110.178 190.386 110.586 193.759 109.362 196.24Z" fill="#EAC2A7"/>
<path d="M148.283 153.726C148.885 152.621 149.589 151.617 150.392 150.612C152.1 148.503 154.21 146.695 155.616 144.385C157.023 142.074 157.425 138.86 155.817 136.751C154.712 135.345 153.004 134.641 151.397 134.139C145.871 132.532 139.944 132.432 134.318 133.838C128.993 135.144 124.272 137.454 118.947 135.445C113.924 133.537 110.307 134.34 105.083 136.249C99.3564 138.257 91.8215 138.76 86.5974 141.572C84.4876 142.777 82.7797 144.585 81.3732 146.695C76.7519 153.826 76.7519 163.67 81.2728 170.902C82.2774 172.509 83.5834 174.016 84.789 175.422C87.5016 178.335 90.7164 181.951 94.3331 182.955C94.4336 179.641 91.4197 169.295 93.9313 166.583C97.9499 162.264 106.992 163.77 112.015 164.875C117.44 165.98 122.262 169.898 127.687 170.701C131.605 171.304 136.528 169.395 139.844 167.386C144.063 164.875 145.972 157.643 148.283 153.726Z" fill="#1A3151"/>
<path d="M81.777 198.223L60.6795 216.704L37.0703 266.224L66.9083 301.681L72.032 281.893L81.777 198.223Z" fill="#1A3151"/>
<g opacity="0.06">
<g opacity="0.06">
<g opacity="0.06">
<g opacity="0.06">
<path opacity="0.06" d="M639.155 166.482H283.812V263.813H639.155V166.482Z" fill="#A0A1A3"/>
</g>
</g>
</g>
</g>
<path d="M631.32 159.652H275.977V256.983H631.32V159.652Z" fill="white"/>
<g opacity="0.14">
<path opacity="0.14" d="M339.231 212.432L154.441 228.211L172.745 442.489L357.535 426.71L339.231 212.432Z" fill="#B5B7B8"/>
</g>
<path d="M331.141 206.649L116.82 224.949L135.124 439.227L349.444 420.927L331.141 206.649Z" fill="#302C3F"/>
<path d="M146.913 247.581L142.641 252.65L319.876 401.975L324.149 396.905L146.913 247.581Z" fill="white"/>
<path d="M305.467 234.053L156.113 411.254L161.184 415.526L310.537 238.325L305.467 234.053Z" fill="white"/>
<path d="M153.81 417.094L138.941 243.626L312.444 228.76L327.312 402.228L153.81 417.094ZM146.074 249.552L159.738 409.962L320.179 396.302L306.516 235.891L146.074 249.552Z" fill="white"/>
<path d="M129.411 291.135L141.366 287.62L140.06 282.396L131.32 282.999L131.923 280.287L121.977 284.606L122.68 290.131L129.411 291.135Z" fill="#EAC2A7"/>
<path d="M375.535 480.473L368 478.363L355.844 496.745H368L375.334 493.028L375.535 480.473Z" fill="#141414"/>
<path d="M510.256 443.309C510.256 443.309 520.805 451.043 520.704 457.873C520.704 457.873 521.809 472.237 518.996 477.962L503.123 492.426L473.787 490.518L464.344 448.934L510.256 443.309Z" fill="#162A42"/>
<path d="M478.11 452.45C478.11 452.45 490.768 449.436 495.088 458.074L503.728 474.045L488.558 494.335L373.426 493.933L373.627 480.172L410.899 469.626C407.584 467.416 404.871 463.9 403.264 460.385C400.35 454.057 402.661 449.336 404.972 443.409C405.675 441.601 409.191 431.457 412.105 432.26L478.11 452.45Z" fill="#1A3151"/>
<path d="M561.899 337.339L570.94 331.312L568.529 327.395L561.396 330.107L561.195 327.696L554.062 333.723L555.971 338.243L561.899 337.339Z" fill="#A0675C"/>
<path d="M483.233 321.469L511.162 346.982L555.769 330.911L559.184 339.951L506.441 377.316L470.977 348.89L483.233 321.469Z" fill="#aecbd0"/>
<path d="M387.087 261.403L385.781 250.655L390.403 249.852L392.914 257.084L394.924 255.677V265.019L390.302 266.525L387.087 261.403Z" fill="#A0675C"/>
<path d="M450.28 310.921L412.706 306.2L395.929 261.904L386.887 265.219L392.714 329.504L437.42 338.041L450.28 310.921Z" fill="#aecbd0"/>
<path d="M504.734 420.105C496.797 398.007 495.29 374.503 492.377 351.3C491.573 344.47 490.669 337.439 487.554 331.311C484.038 324.18 478.513 320.564 472.083 318.756C463.945 316.345 454.401 316.847 446.063 316.646C438.126 316.646 432.098 346.78 424.463 361.445C419.741 370.485 414.919 378.52 411.905 388.264C408.991 397.605 406.178 407.248 404.671 416.89C402.36 431.555 395.428 442.002 402.461 446.722C403.064 446.923 403.667 447.124 404.269 447.325C415.722 451.042 427.477 453.653 439.532 454.859C450.182 455.863 460.931 455.863 471.48 454.457C485.947 452.548 500.012 450.037 512.57 442.002C509.958 434.569 507.346 427.337 504.734 420.105Z" fill="#aecbd0"/>
<path d="M441.538 294.448C445.657 280.687 465.449 275.263 470.573 290.932C472.079 295.653 473.084 300.675 472.381 305.597C471.577 310.519 468.764 315.24 464.243 317.45H464.143C464.344 318.755 464.545 319.961 464.846 321.266C464.846 321.568 464.947 321.869 464.746 322.07C464.545 322.371 464.243 322.371 463.942 322.472C462.435 322.773 460.928 322.974 459.421 323.275C458.718 323.376 457.914 323.577 457.211 323.376C455.603 322.874 454.9 321.066 454.8 319.358C454.8 318.956 454.8 318.554 454.8 318.153C445.657 315.441 438.826 303.488 441.538 294.448Z" fill="#A0675C"/>
<path d="M465.048 270.342C468.665 269.639 471.879 273.154 475.295 274.862C478.108 276.268 481.323 276.67 484.237 277.775C487.15 278.98 490.164 281.592 490.264 284.906C493.178 283.299 496.292 281.592 499.608 282.094C502.923 282.596 506.138 286.413 504.932 289.728C503.827 292.64 500.11 293.444 498.904 296.357C497.096 300.977 502.722 307.808 499.105 310.921C498.201 311.625 496.996 311.926 496.192 312.629C495.187 313.633 494.886 315.14 494.383 316.647C492.374 323.075 486.145 327.495 479.716 326.792C475.697 325.084 472.382 321.368 470.875 317.049C468.966 311.825 471.779 309.917 472.08 304.895C472.382 299.471 470.473 293.745 466.957 289.728C464.646 287.016 461.431 284.806 458.015 284.605C456.609 284.504 457.111 285.609 455.504 284.605C454.8 284.203 453.896 282.496 453.695 281.692C457.413 278.679 460.225 271.145 465.048 270.342Z" fill="#1A3151"/>
<path d="M425.765 278.578C423.856 279.181 421.847 279.181 420.039 279.985C417.427 281.29 417.628 284.002 416.924 286.513C416.121 289.226 415.016 292.842 413.308 295.051C412.102 296.558 410.294 297.562 408.787 298.768C407.28 299.973 405.873 301.781 405.974 303.89C406.074 305.899 407.481 307.607 407.682 309.616C407.983 312.529 407.581 314.136 408.586 317.049C409.088 318.555 409.691 320.263 410.897 321.267C412.504 322.573 414.714 322.473 416.623 322.171C418.532 321.77 420.541 321.167 422.45 321.77C426.67 322.975 425.966 327.194 427.172 330.709C428.98 335.932 435.309 338.845 439.931 336.836C443.849 335.129 446.059 330.408 445.758 325.787C445.557 323.477 444.653 321.368 444.452 319.058C444.351 316.848 445.456 313.734 443.447 312.026C442.945 311.625 442.342 311.424 441.84 310.922C441.438 310.52 441.237 310.018 441.136 309.515C440.634 307.707 441.036 305.698 442.041 304.292C442.744 303.288 443.849 302.484 444.351 301.279C444.854 299.873 444.351 298.266 444.251 296.759C443.949 293.042 445.858 289.326 448.872 287.819C450.881 286.815 452.69 286.212 454.498 284.706C454.8 284.505 458.718 280.788 458.818 281.491C458.617 280.185 457.813 278.98 456.909 277.976C455.503 276.268 453.996 274.561 452.087 273.556C445.959 270.342 445.959 278.377 441.136 277.473C439.931 277.273 439.027 276.268 438.022 275.665C436.013 274.561 433.602 275.063 431.592 275.967C429.683 276.569 427.875 277.976 425.765 278.578Z" fill="#1A3151"/>
<g opacity="0.09">
<path opacity="0.09" d="M751.617 52.6373L605.273 44.4258L600.297 133.077L746.64 141.288L751.617 52.6373Z" fill="#A0A1A3"/>
</g>
<path d="M831.291 12.5678L614.133 0.382812L607.012 127.242L824.169 139.427L831.291 12.5678Z" fill="#1dd5df"/>
<path d="M804.834 38.3834L641.539 29.2207L641.213 35.0372L804.507 44.1999L804.834 38.3834Z" fill="white"/>
<path d="M803.029 69.1139L639.734 59.9512L639.408 65.7676L802.702 74.9303L803.029 69.1139Z" fill="white"/>
<path d="M801.314 99.9498L638.02 90.7871L637.693 96.6036L800.988 105.766L801.314 99.9498Z" fill="white"/>
<path d="M695.315 491.925L696.119 498.655L683.36 506.891L675.926 500.865L681.853 493.432L694.612 485.195L695.315 491.925Z" fill="#1A3151"/>
<path d="M664.775 490.318L665.579 497.047L652.82 505.284L645.285 499.257L651.313 491.824L664.072 483.588L664.775 490.318Z" fill="#1A3151"/>
<path d="M719.325 361.748L705.762 422.115L697.424 493.13L681.751 491.623L675.422 319.26L717.215 320.063L719.325 361.748Z" fill="#1A3151"/>
<path d="M639.356 358.132L637.648 416.59L649.302 491.623L665.578 489.915L667.788 412.372L679.341 359.337L683.259 324.483L648.499 320.465L639.356 358.132Z" fill="#1A3151"/>
<path d="M666.885 200.634L704.358 199.73L726.059 240.109L718.323 277.876L716.916 323.177L663.57 323.88L645.988 320.967L650.61 272.653L647.998 208.067L666.885 200.634Z" fill="#9FA8AC"/>
<path d="M707.974 296.761L708.175 303.089L697.023 307.207L690.594 302.285V294.952L696.722 294.651L696.923 293.044L699.033 291.738L707.974 296.761Z" fill="#EAC2A7"/>
<path d="M705.562 202.543L747.054 250.254L749.063 271.046L708.174 303.39L700.84 292.742L727.262 264.517L701.644 239.406L705.562 202.543Z" fill="#9FA8AC"/>
<path d="M665.578 225.044L645.988 264.016L624.991 268.235L587.316 266.628L588.12 248.648H626.698L648.499 208.068L665.578 225.044Z" fill="#9FA8AC"/>
<path d="M669.195 169.296C674.821 152.923 696.521 159.05 700.942 173.615C703.855 183.157 696.521 195.512 686.575 198.224C686.575 198.626 686.475 198.927 686.475 199.228C686.475 200.735 686.274 202.242 686.073 203.748C685.972 204.351 677.332 202.643 676.428 202.443C676.127 202.342 675.725 202.242 675.524 202.041C675.223 201.539 675.725 199.931 675.825 199.329C675.926 198.626 675.926 197.922 676.026 197.219C671.204 194.809 668.09 189.786 667.186 184.664C666.382 179.441 667.487 174.218 669.195 169.296Z" fill="#EAC2A7"/>
<path d="M692.84 200.002L682.041 216.728L676.503 216.584L666.715 200.502L692.84 200.002Z" fill="#ECECEC"/>
<path d="M665.378 155.636C665.378 155.334 665.277 155.134 665.277 154.832C665.177 154.029 665.076 153.125 665.478 152.321C666.081 151.116 667.588 150.714 668.693 149.91C671.406 148.102 671.908 144.185 673.817 141.473C677.434 136.25 681.754 139.263 686.576 139.866C692.101 140.569 696.12 138.661 700.942 142.076C704.86 144.888 709.783 147.5 712.395 151.819C717.017 159.252 716.816 169.397 711.993 176.629C710.888 178.236 709.582 179.743 708.276 181.149C705.463 184.062 702.148 187.678 698.33 188.682C698.33 185.267 701.645 174.72 699.033 171.908C696.522 169.095 692.704 169.296 689.489 167.991C686.475 166.785 684.064 163.27 680.95 162.667C677.434 161.964 666.483 166.484 665.78 159.553C665.579 158.247 665.478 156.942 665.378 155.636Z" fill="#1A3151"/>
<path d="M675.524 315.444L705.865 287.42L620.369 260.199L587.316 288.525L675.524 315.444Z" fill="#1A3151"/>
<path d="M675.524 315.444L587.316 288.524V218.414L675.524 245.333V315.444Z" fill="#F4F4F4"/>
<path d="M751.575 143.482L740.523 135.748L742.03 128.717L753.282 132.634L758.708 136.15V140.067L751.575 143.482Z" fill="#EAC2A7"/>
<path d="M856.76 442.003C857.865 440.697 859.272 440.095 860.779 440.296C862.185 440.497 863.491 441.501 864.094 442.807C864.496 443.711 864.596 444.715 864.697 445.72C865.099 450.742 865.099 462.795 858.368 464.503C855.555 465.206 853.244 463.197 852.44 460.686C851.235 456.869 852.942 446.222 856.76 442.003Z" fill="#1A3151"/>
<path d="M854.348 365.865L854.749 396.702C854.348 410.362 856.457 424.123 856.056 437.784C855.955 440.897 855.151 444.212 855.955 447.326C856.759 450.339 859.17 450.942 861.782 449.335C865.198 447.225 864.595 442.404 865.198 438.889C866.805 429.246 868.614 419.603 870.221 409.86C871.025 405.139 869.417 398.51 869.719 393.688L874.742 367.874L854.348 365.865Z" fill="#EAC2A7"/>
<path d="M889.613 316.044L876.15 375.608L873.337 431.857L852.039 431.355L846.312 274.059L887.503 274.862L889.613 316.044Z" fill="#9EA6AD"/>
<path d="M826.324 440.898C827.53 439.693 828.836 439.09 830.343 439.391C831.749 439.693 833.055 440.797 833.557 442.103C833.959 443.007 833.959 444.012 833.959 445.016C834.16 450.139 833.658 462.092 826.826 463.398C824.013 464 821.703 461.79 821.1 459.179C820.196 455.362 822.406 444.916 826.324 440.898Z" fill="#1A3151"/>
<path d="M837.575 370.186L835.767 400.922C835.666 409.459 834.461 417.997 833.556 426.435C832.753 434.37 834.059 442.506 829.94 449.738C828.634 451.948 826.022 453.454 824.213 450.742C822.807 448.633 823.61 445.117 823.41 442.707C822.304 432.964 820.898 423.22 819.793 413.477C819.19 408.656 821.199 402.127 820.998 397.306L817.281 371.29L837.575 370.186Z" fill="#EAC2A7"/>
<path d="M810.649 312.43L808.941 370.286L817.983 428.745L839.583 429.348L838.679 366.068L850.132 313.636L853.949 279.283L819.591 275.266L810.649 312.43Z" fill="#9EA6AD"/>
<path d="M837.775 156.941L874.746 156.037L896.245 195.914L888.61 233.279L887.204 277.877L834.46 278.58L817.18 275.767L821.701 228.056L819.289 169.798L837.775 156.941Z" fill="#1A3151"/>
<path d="M875.95 158.748L905.988 204.45L901.467 229.963L855.053 262.106L846.312 254.472L877.356 215.198L876.15 190.388L875.95 158.748Z" fill="#1A3151"/>
<path d="M839.984 182.755L804.52 195.512L783.925 190.489L748.461 143.883L760.818 138.459L798.09 170.501L831.846 160.356L839.984 182.755Z" fill="#1A3151"/>
<path d="M863.796 156.74L852.343 172.912L847.018 172.51L837.977 156.037L863.796 156.74Z" fill="#E0E0E1"/>
<path d="M854.754 256.482L854.955 262.71L843.903 266.727L837.574 261.906V254.574L843.703 254.272L843.903 252.665L845.913 251.359L854.754 256.482Z" fill="#EAC2A7"/>
<path d="M850.891 124.088C848.4 121.971 845.598 121.568 842.381 121.568C840.928 121.568 840.409 121.971 839.579 121.769C839.267 121.668 838.852 121.568 838.23 121.164C837.088 120.459 836.05 118.644 835.531 117.232C832.625 119.047 830.446 122.273 829.927 127.214C829.304 132.557 829.304 138.304 831.172 143.647C833.041 148.99 837.088 154.132 842.381 156.048C842.692 156.149 843.004 156.249 843.315 156.35C845.598 157.056 847.674 157.258 849.645 156.854L856.287 153.83C856.599 153.527 856.91 153.225 857.222 152.922C859.609 143.949 857.222 129.432 850.891 124.088Z" fill="#EAC2A7"/>
<path d="M893.53 214.898C892.827 214.296 892.123 213.593 891.42 212.99C891.922 214.195 892.324 215.401 892.827 216.606C893.329 217.811 893.731 219.117 894.233 220.322C894.534 221.126 894.836 221.93 895.037 222.834C894.735 222.03 894.434 221.126 894.233 220.322C893.731 219.017 893.329 217.811 892.827 216.606C892.324 215.401 891.922 214.195 891.42 212.99C886.296 208.369 881.072 203.548 879.666 196.919C878.962 193.705 879.264 190.591 879.967 187.377C881.072 182.254 883.081 177.131 883.684 172.008C884.588 163.069 883.885 150.312 881.675 141.574C879.364 132.232 874.241 123.795 868.213 116.463C860.879 107.523 847.115 97.5789 837.37 109.231C837.27 109.331 837.169 109.532 837.069 109.632C835.964 109.13 834.859 108.628 833.753 108.327C827.022 113.951 825.314 123.092 826.018 131.429C826.721 139.766 830.94 149.308 828.529 157.645C828.328 158.448 828.027 159.252 828.027 160.056C828.027 160.859 828.429 161.763 829.233 162.064C829.735 162.265 830.237 162.165 830.74 162.165C834.859 161.663 839.279 160.96 842.092 157.846C842.494 157.344 842.795 156.942 843.097 156.44C842.795 156.339 842.494 156.239 842.192 156.138C837.069 154.129 833.151 149.107 831.342 143.784C829.534 138.46 829.534 132.735 830.137 127.411C830.739 122.489 832.749 119.275 835.562 117.467C836.064 118.873 837.069 120.681 838.174 121.384C838.676 121.686 839.078 121.887 839.48 121.987C840.183 122.087 840.685 121.786 842.192 121.786C845.206 121.786 848.019 122.188 850.431 124.297C856.559 129.721 858.769 144.085 856.76 153.225C862.486 147.5 864.797 136.853 861.08 128.817C860.879 128.315 860.678 127.913 860.377 127.511C860.577 127.913 860.879 128.415 861.08 128.817C864.897 136.752 862.587 147.4 856.76 153.225C856.76 153.426 856.659 153.527 856.659 153.728C856.358 154.732 856.057 155.736 855.655 156.54C855.454 156.942 855.353 157.243 855.152 157.544C853.244 160.96 850.33 164.174 850.431 168.091C850.431 168.794 850.531 169.497 850.732 170.2C851.033 171.506 851.536 172.712 852.038 173.917C857.061 186.975 851.536 201.74 843.398 212.789C839.279 218.414 833.753 223.336 831.342 229.965C830.94 231.07 830.639 232.275 830.539 233.581C830.036 239.507 832.749 246.036 838.475 246.94C839.781 247.141 841.288 247.041 842.494 247.643C846.713 249.652 844.905 256.583 848.019 259.998C850.029 262.208 853.444 262.308 856.458 262.208C857.463 262.208 858.468 262.107 859.271 261.605C861.08 260.5 860.879 257.889 861.381 255.88C862.285 252.163 866.003 249.753 869.72 248.949C873.437 248.146 877.355 248.547 881.173 248.547C885.894 248.547 890.817 247.844 895.037 245.635C896.644 244.73 898.252 243.626 899.558 242.219C899.357 241.215 899.256 240.21 899.055 239.306C899.256 240.311 899.357 241.215 899.558 242.219C901.567 240.11 903.074 237.599 903.576 234.686C904.882 226.952 899.256 220.021 893.53 214.898ZM850.129 117.768C850.933 118.17 851.737 118.572 852.44 119.074C851.737 118.572 850.933 118.17 850.129 117.768Z" fill="#242424"/>
</g>
<defs>
<clipPath id="clip0">
<rect width="930" height="542" fill="white" transform="translate(0 0.347656)"/>
</clipPath>
</defs>
</svg>
