<?xml version="1.0" encoding="UTF-8" standalone="no"?>
<svg
   width="120"
   height="120"
   viewBox="0 0 120 120"
   fill="none"
   version="1.1"
   id="svg54021"
   sodipodi:docname="coding.svg"
   inkscape:version="1.2 (dc2aedaf03, 2022-05-15)"
   xmlns:inkscape="http://www.inkscape.org/namespaces/inkscape"
   xmlns:sodipodi="http://sodipodi.sourceforge.net/DTD/sodipodi-0.dtd"
   xmlns="http://www.w3.org/2000/svg"
   xmlns:svg="http://www.w3.org/2000/svg">
  <defs
     id="defs54025" />
  <sodipodi:namedview
     id="namedview54023"
     pagecolor="#ffffff"
     bordercolor="#000000"
     borderopacity="0.25"
     inkscape:showpageshadow="2"
     inkscape:pageopacity="0.0"
     inkscape:pagecheckerboard="0"
     inkscape:deskcolor="#d1d1d1"
     showgrid="false"
     inkscape:zoom="6.9083333"
     inkscape:cx="36.839566"
     inkscape:cy="60.072376"
     inkscape:window-width="1920"
     inkscape:window-height="1009"
     inkscape:window-x="-8"
     inkscape:window-y="-8"
     inkscape:window-maximized="1"
     inkscape:current-layer="svg54021" />
  <path
     d="M95.3906 28.3594H24.6094C22.6404 28.3594 21.0938 29.906 21.0938 31.875V88.3594C21.0938 90.3279 22.6404 91.875 24.6094 91.875H95.3906C97.3596 91.875 98.9062 90.3279 98.9062 88.3594V31.875C98.9062 29.906 97.3596 28.3594 95.3906 28.3594Z"
     fill="#1dd5df"
     id="path53977"
     style="fill:#f27721;fill-opacity:1" />
  <path
     d="M98.9062 31.875V88.3594C98.9062 90.3279 97.3596 91.875 95.3906 91.875H60V28.3594H95.3906C97.3596 28.3594 98.9062 29.906 98.9062 31.875Z"
     fill="#0aacca"
     id="path53979"
     style="fill:#063f5c;fill-opacity:1" />
  <path
     d="M28.125 35.3906V84.8438H91.875V35.3906H28.125Z"
     fill="#E4EAF8"
     id="path53981" />
  <path
     d="M91.875 35.3906H60V84.8438H91.875V35.3906Z"
     fill="#C3C8D1"
     id="path53983" />
  <path
     d="M52.9688 14.0625H17.5781C15.6349 14.0625 14.0625 12.4901 14.0625 10.5469C14.0625 8.60367 15.6349 7.03125 17.5781 7.03125H52.9688C54.912 7.03125 56.4844 8.60367 56.4844 10.5469C56.4844 12.4901 54.912 14.0625 52.9688 14.0625Z"
     fill="#302C3F"
     id="path53985"
     style="fill:#063f5c;fill-opacity:1" />
  <path
     d="M102.422 14.0625H67.0312C65.088 14.0625 63.5156 12.4901 63.5156 10.5469C63.5156 8.60367 65.088 7.03125 67.0312 7.03125H102.422C104.365 7.03125 105.938 8.60367 105.938 10.5469C105.938 12.4901 104.365 14.0625 102.422 14.0625Z"
     fill="black"
     id="path53987"
     style="fill:#f27721;fill-opacity:1" />
  <path
     d="M109.453 105.938C107.51 105.938 105.938 104.365 105.938 102.422V17.5781C105.938 15.6349 107.51 14.0625 109.453 14.0625C111.396 14.0625 112.969 15.6349 112.969 17.5781V102.422C112.969 104.365 111.396 105.938 109.453 105.938Z"
     fill="black"
     id="path53989"
     style="fill:#f27721;fill-opacity:1" />
  <path
     d="M102.422 112.969H67.0312C65.088 112.969 63.5156 111.396 63.5156 109.453C63.5156 107.51 65.088 105.938 67.0312 105.938H102.422C104.365 105.938 105.938 107.51 105.938 109.453C105.938 111.396 104.365 112.969 102.422 112.969Z"
     fill="black"
     id="path53991"
     style="fill:#f27721;fill-opacity:1" />
  <path
     d="M52.9688 112.969H17.5781C15.6349 112.969 14.0625 111.396 14.0625 109.453C14.0625 107.51 15.6349 105.938 17.5781 105.938H52.9688C54.912 105.938 56.4844 107.51 56.4844 109.453C56.4844 111.396 54.912 112.969 52.9688 112.969Z"
     fill="#302C3F"
     id="path53993"
     style="fill:#063f5c;fill-opacity:1" />
  <path
     d="M10.5469 105.938C8.60367 105.938 7.03125 104.365 7.03125 102.422V17.5781C7.03125 15.6349 8.60367 14.0625 10.5469 14.0625C12.4901 14.0625 14.0625 15.6349 14.0625 17.5781V102.422C14.0625 104.365 12.4901 105.938 10.5469 105.938Z"
     fill="#302C3F"
     id="path53995"
     style="fill:#063f5c;fill-opacity:1" />
  <path
     d="M43.4525 69.5166L36.4213 62.4854C35.0481 61.1122 35.0481 58.8872 36.4213 57.514L43.4525 50.4828C44.8257 49.1096 47.0506 49.1096 48.4238 50.4828C49.797 51.856 49.797 54.0809 48.4238 55.4541L43.8781 59.9998L48.4238 64.5455C49.797 65.9187 49.797 68.1436 48.4238 69.5168C47.0504 70.8901 44.8257 70.8901 43.4525 69.5166Z"
     fill="#1dd5df"
     id="path53997"
     style="fill:#063f5c;fill-opacity:1" />
  <path
     d="M71.5768 69.5166C70.2036 68.1434 70.2036 65.9185 71.5768 64.5453L76.1222 59.9998L71.5765 55.4541C70.2033 54.0809 70.2033 51.856 71.5765 50.4828C72.9497 49.1096 75.1747 49.1096 76.5479 50.4828L83.5791 57.514C84.9523 58.8872 84.9523 61.1122 83.5791 62.4854L76.5479 69.5166C75.1747 70.8901 72.95 70.8901 71.5768 69.5166Z"
     fill="#0aacca"
     id="path53999"
     style="fill:#f27721;fill-opacity:1" />
  <path
     d="M70.1949 47.4843L56.1324 75.6093C55.2184 77.3672 53.1795 78.0705 51.4217 77.2268C49.6639 76.3127 48.9606 74.2029 49.8043 72.5156L59.9996 52.1252L63.8668 44.3906C64.7809 42.6328 66.8902 41.9299 68.5775 42.7736C70.3353 43.6877 71.0387 45.7968 70.1949 47.4843Z"
     fill="#1dd5df"
     id="path54001"
     style="fill:#f27721;fill-opacity:1" />
  <path
     d="M70.1953 47.4843L60 67.8752V52.1252L63.8672 44.3906C64.7813 42.6328 66.8906 41.9299 68.5779 42.7736C70.3357 43.6877 71.0391 45.7968 70.1953 47.4843Z"
     fill="#0aacca"
     id="path54003"
     style="fill:#063f5c;fill-opacity:1" />
  <path
     d="M17.5781 21.0938H3.51562C1.57242 21.0938 0 19.5213 0 17.5781V3.51562C0 1.57242 1.57242 0 3.51562 0H17.5781C19.5213 0 21.0938 1.57242 21.0938 3.51562V17.5781C21.0938 19.5213 19.5213 21.0938 17.5781 21.0938Z"
     fill="#1dd5df"
     id="path54005"
     style="fill:#f27721;fill-opacity:1" />
  <path
     d="M67.0312 0H52.9688C50.9998 0 49.4531 1.54664 49.4531 3.51562V17.5781C49.4531 19.5466 50.9998 21.0938 52.9688 21.0938H67.0312C69.0002 21.0938 70.5469 19.5466 70.5469 17.5781V3.51562C70.5469 1.54664 69.0002 0 67.0312 0Z"
     fill="#1dd5df"
     id="path54007"
     style="fill:#f27721;fill-opacity:1" />
  <path
     d="M116.484 21.0938H102.422C100.479 21.0938 98.9062 19.5213 98.9062 17.5781V3.51562C98.9062 1.57242 100.479 0 102.422 0H116.484C118.428 0 120 1.57242 120 3.51562V17.5781C120 19.5213 118.428 21.0938 116.484 21.0938Z"
     fill="#0aacca"
     id="path54009"
     style="fill:#063f5c;fill-opacity:1" />
  <path
     d="M17.5781 120H3.51562C1.57242 120 0 118.428 0 116.484V102.422C0 100.479 1.57242 98.9062 3.51562 98.9062H17.5781C19.5213 98.9062 21.0938 100.479 21.0938 102.422V116.484C21.0938 118.428 19.5213 120 17.5781 120Z"
     fill="#1dd5df"
     id="path54011"
     style="fill:#f27721;fill-opacity:1" />
  <path
     d="M67.0312 98.9062H52.9688C50.9998 98.9062 49.4531 100.453 49.4531 102.422V116.484C49.4531 118.453 50.9998 120 52.9688 120H67.0312C69.0002 120 70.5469 118.453 70.5469 116.484V102.422C70.5469 100.453 69.0002 98.9062 67.0312 98.9062Z"
     fill="#1dd5df"
     id="path54013"
     style="fill:#f27721;fill-opacity:1" />
  <path
     d="M116.484 120H102.422C100.479 120 98.9062 118.428 98.9062 116.484V102.422C98.9062 100.479 100.479 98.9062 102.422 98.9062H116.484C118.428 98.9062 120 100.479 120 102.422V116.484C120 118.428 118.428 120 116.484 120Z"
     fill="#0aacca"
     id="path54015"
     style="fill:#063f5c;fill-opacity:1" />
  <path
     d="M67.0312 21.0938H60V0H67.0312C69.0002 0 70.5469 1.54664 70.5469 3.51562V17.5781C70.5469 19.5466 69.0002 21.0938 67.0312 21.0938Z"
     fill="#0aacca"
     id="path54017"
     style="fill:#063f5c;fill-opacity:1" />
  <path
     d="M70.5469 102.422V116.484C70.5469 118.453 69.0002 120 67.0312 120H60V98.9062H67.0312C69.0002 98.9062 70.5469 100.453 70.5469 102.422Z"
     fill="#0aacca"
     id="path54019"
     style="fill:#063f5c;fill-opacity:1" />
</svg>
