<svg width="65" height="96" viewBox="0 0 65 96" fill="none" xmlns="http://www.w3.org/2000/svg">
<g clip-path="url(#clip0)">
<path d="M16.0413 96C24.8921 96 32.0754 88.832 32.0754 80V64H16.0413C7.19039 64 0.00708008 71.168 0.00708008 80C0.00708008 88.832 7.19039 96 16.0413 96Z" fill="#1CC870"/>
<path d="M0.00708008 48C0.00708008 39.168 7.19039 32 16.0413 32H32.0754V64H16.0413C7.19039 64 0.00708008 56.832 0.00708008 48Z" fill="#8E37FF"/>
<path d="M0.00708008 16C0.00708008 7.168 7.19039 0 16.0413 0H32.0754V32H16.0413C7.19039 32 0.00708008 24.832 0.00708008 16Z" fill="#EB3718"/>
<path d="M32.0747 0H48.1089C56.9598 0 64.1431 7.168 64.1431 16C64.1431 24.832 56.9598 32 48.1089 32H32.0747V0Z" fill="#FC5A4F"/>
<path d="M64.1431 48C64.1431 56.832 56.9598 64 48.1089 64C39.258 64 32.0747 56.832 32.0747 48C32.0747 39.168 39.258 32 48.1089 32C56.9598 32 64.1431 39.168 64.1431 48Z" fill="#1EADFE"/>
</g>
<defs>
<clipPath id="clip0">
<rect width="64.1495" height="96" fill="white"/>
</clipPath>
</defs>
</svg>
