<svg width="120" height="120" viewBox="0 0 120 120" fill="none" xmlns="http://www.w3.org/2000/svg">
<g clip-path="url(#clip0)">
<path d="M118.22 46.9228H106.461C105.419 43.2129 103.948 39.6841 102.099 36.3937L110.414 28.0779C111.109 27.3832 111.109 26.257 110.414 25.5623L94.4367 9.58453C93.742 8.88984 92.6158 8.88984 91.9211 9.58453L83.6053 17.9004C80.3147 16.0514 76.7861 14.5805 73.0762 13.5382V1.77867C73.0762 0.796406 72.2798 0 71.2973 0H48.7012C47.7187 0 46.9223 0.796406 46.9223 1.77867V13.5382C43.2124 14.5805 39.6841 16.0512 36.3935 17.9004L28.0776 9.58453C27.3829 8.88984 26.2565 8.88984 25.5619 9.58453L9.58404 25.5623C8.88935 26.257 8.88935 27.3832 9.58404 28.0779L17.8999 36.3937C16.0509 39.6844 14.58 43.2129 13.5377 46.9228H1.77818C0.795918 46.9228 -0.000488281 47.7192 -0.000488281 48.7017V71.2978C-0.000488281 72.2803 0.795918 73.0767 1.77818 73.0767H13.5377C14.58 76.7866 16.0509 80.3154 17.8999 83.6058L9.58404 91.9219C8.88935 92.6166 8.88935 93.7427 9.58404 94.4374L25.5619 110.415C26.2565 111.11 27.3829 111.11 28.0776 110.415L36.3933 102.099C39.6839 103.948 43.2124 105.42 46.9223 106.462H73.0762C76.7861 105.42 80.3149 103.948 83.6053 102.099L91.9211 110.415C92.6158 111.11 93.742 111.11 94.4367 110.415L110.414 94.4374C111.109 93.7427 111.109 92.6166 110.414 91.9219L102.099 83.606C103.948 80.3154 105.419 76.7869 106.461 73.077H118.22C119.203 73.077 119.999 72.2805 119.999 71.298V48.702C119.999 47.7192 119.203 46.9228 118.22 46.9228ZM73.6232 86.4054L46.5051 86.4722C36.8815 81.5569 30.2925 71.5479 30.2925 60C30.2925 43.5935 43.5925 30.2932 59.9993 30.2932C76.406 30.2932 89.7061 43.5935 89.7061 60C89.7061 71.4959 83.1761 81.4666 73.6232 86.4054Z" fill="#1dd5df"/>
<path d="M17.9001 36.393C16.0511 39.6836 14.5802 43.2121 13.5379 46.922H17.8277C18.1474 46.922 18.4263 46.7099 18.5161 46.4034C19.4784 43.1198 20.7775 39.9817 22.3783 37.0291C22.5834 36.6508 22.5199 36.1837 22.2157 35.8792L14.4136 28.0771C13.7189 27.3824 13.7189 26.2563 14.4136 25.5616L29.2347 10.7404L28.0781 9.58376C27.3834 8.88907 26.257 8.88907 25.5623 9.58376L9.58449 25.5616C8.8898 26.2563 8.8898 27.3824 9.58449 28.0771L17.9001 36.393Z" fill="#0aacca"/>
<path d="M14.4126 94.4366C13.7179 93.742 13.7179 92.6158 14.4126 91.9211L22.0187 84.3149C22.4345 83.8992 22.532 83.2602 22.2548 82.7418C20.7925 80.0097 19.5878 77.1206 18.6679 74.106C18.4811 73.4936 17.9146 73.0764 17.2743 73.0764H13.5369C14.5792 76.7863 16.0501 80.3151 17.8991 83.6055L9.58327 91.9211C8.88858 92.6158 8.88858 93.742 9.58327 94.4366L25.5611 110.414C26.2558 111.109 27.3822 111.109 28.0769 110.414L29.2335 109.258L14.4126 94.4366Z" fill="#0aacca"/>
<path d="M4.82881 71.2969V48.7008C4.82881 47.7183 5.62522 46.9219 6.60748 46.9219H1.77818C0.795918 46.9219 -0.000488281 47.7183 -0.000488281 48.7008V71.2969C-0.000488281 72.2794 0.795918 73.0758 1.77818 73.0758H6.60748C5.62522 73.076 4.82881 72.2796 4.82881 71.2969Z" fill="#0aacca"/>
<path d="M59.9989 23.6804C39.9401 23.6804 23.6794 39.9411 23.6794 59.9999C23.6794 75.2968 33.1374 88.3829 46.5235 93.7351L73.4928 93.7276C86.8693 88.371 96.3184 75.2898 96.3184 59.9999C96.3188 39.9411 80.0576 23.6804 59.9989 23.6804ZM73.6231 86.4053L46.505 86.4721C36.8813 81.5568 30.2923 71.5478 30.2923 59.9999C30.2923 43.5934 43.5924 30.2931 59.9991 30.2931C76.4058 30.2931 89.7059 43.5934 89.7059 59.9999C89.7059 71.4957 83.176 81.4665 73.6231 86.4053Z" fill="#0aacca"/>
<path d="M28.2908 59.9996C28.2908 40.7152 43.3208 24.9444 62.3052 23.7549C41.2766 22.4375 23.6804 39.1179 23.6804 59.9996C23.6804 75.2965 33.1384 88.3826 46.5245 93.7348L51.1318 93.7337C37.7471 88.3808 28.2908 75.2954 28.2908 59.9996Z" fill="#0aacca"/>
<path d="M46.9236 66.4399L58.714 41.4347C59.2269 40.347 60.7742 40.347 61.287 41.4347L73.0775 66.4399H46.9236Z" fill="#E4EAF8"/>
<path d="M61.2875 41.4347C60.7747 40.347 59.2274 40.347 58.7145 41.4347L46.9241 66.4399H51.7569L62.4174 43.8309L61.2875 41.4347Z" fill="#D8DCE5"/>
<path d="M58.7138 41.4348L51.7563 56.1903H68.2444L61.287 41.4348C60.7821 40.3649 59.232 40.3363 58.7138 41.4348Z" fill="#1dd5df"/>
<path d="M51.7559 56.1903H56.5887L62.4162 43.8313L61.2862 41.4348C61.286 41.4341 61.2855 41.4336 61.2851 41.4329C60.7619 40.3285 59.2144 40.3714 58.713 41.4348L51.7559 56.1903Z" fill="#0aacca"/>
<path d="M46.9236 66.4397V106.461V118.221C46.9236 119.203 47.72 119.999 48.7025 119.999H60.2419V66.4397H46.9236Z" fill="#302C3F"/>
<path d="M51.7524 118.221V106.461V66.4397H46.9231V106.461V118.221C46.9231 119.203 47.7195 119.999 48.702 119.999H53.5313C52.5488 120 51.7524 119.203 51.7524 118.221Z" fill="#302C3F"/>
<path d="M60.0005 66.4397V120H71.2985C72.281 120 73.0774 119.203 73.0774 118.221V106.462V66.4397H60.0005Z" fill="#302C3F"/>
<path d="M51.7524 1.77867C51.7524 0.796406 52.5488 0 53.5313 0H48.7018C47.7195 0 46.9231 0.796406 46.9231 1.77867V13.537C46.9231 13.537 48.9364 12.9598 51.3085 12.612C51.5635 12.5745 51.7524 12.3546 51.7524 12.0968V1.77867Z" fill="#0aacca"/>
</g>
<defs>
<clipPath id="clip0">
<rect width="120" height="120" fill="white"/>
</clipPath>
</defs>
</svg>
