<svg width="120" height="120" viewBox="0 0 120 120" fill="none" xmlns="http://www.w3.org/2000/svg">
<path d="M117.609 49.6637L111.257 47.6249C109.992 42.2812 107.883 37.2189 105 32.5781L107.882 26.7419C108.585 25.406 108.304 23.789 107.249 22.7346L97.2654 12.7497C96.211 11.6953 94.5936 11.4138 93.2576 12.1172L87.4219 14.9997C82.7811 12.1172 77.7188 10.0078 72.3751 8.74194L70.3358 2.39039C69.9137 0.984373 68.5778 0 67.0311 0H52.9687C51.422 0 50.0861 0.984373 49.6642 2.39039L47.6249 8.74194C42.2812 10.008 37.2189 12.1172 32.5781 14.9997L26.7424 12.1172C25.4064 11.4138 23.789 11.6953 22.7346 12.7497L12.7502 22.7343C11.6953 23.7888 11.4143 25.4057 12.1172 26.7417L14.9997 32.5778C12.1172 37.2187 10.0078 42.2809 8.7424 47.6249L2.39085 49.6637C0.984373 50.0856 0 51.4215 0 52.9687V67.0311C0 68.5778 0.984373 69.9137 2.39085 70.3356L8.7424 72.3749C10.008 77.7181 12.1172 82.7809 15 87.4215L12.1172 93.2574C11.4143 94.5933 11.6953 96.2103 12.7502 97.2652L22.7343 107.25C23.7888 108.304 25.4062 108.585 26.7421 107.883L32.5778 105C37.2187 107.883 42.2809 109.992 47.6247 111.257L49.664 117.609C50.0858 119.015 51.4218 120 52.9684 120H67.0309C68.5775 120 69.9135 119.015 70.3353 117.609L72.3746 111.257C77.7184 109.992 82.7806 107.883 87.4215 105L93.2572 107.883C94.5931 108.585 96.2105 108.304 97.265 107.25L107.25 97.2654C108.304 96.2105 108.585 94.5936 107.883 93.2576L105 87.4215C107.883 82.7811 109.992 77.7184 111.258 72.3749L117.609 70.3356C119.015 69.9137 120 68.5778 120 67.0311V52.9687C120 51.4215 119.015 50.0856 117.609 49.6637Z" fill="#1dd5df"/>
<path d="M119.999 52.9687V67.0311C119.999 68.5778 119.015 69.9137 117.608 70.3356L111.257 72.3749C109.991 77.7181 107.882 82.7809 104.999 87.4215L107.882 93.2576C108.585 94.5936 108.304 96.2105 107.249 97.2654L97.2648 107.25C96.2104 108.304 94.593 108.585 93.257 107.883L87.4213 105C82.7805 107.883 77.7182 109.992 72.3745 111.257L70.3352 117.609C69.9133 119.015 68.5774 120 67.0308 120H59.9995V0H67.0308C68.5774 0 69.9133 0.984373 70.3352 2.39039L72.3745 8.74194C77.7182 10.008 82.7805 12.1172 87.4213 14.9997L93.2568 12.1172C94.5927 11.4138 96.2102 11.6953 97.2646 12.7497L107.249 22.7343C108.304 23.7888 108.585 25.4057 107.882 26.7417L104.999 32.5778C107.882 37.2187 109.991 42.2809 111.257 47.6247L117.609 49.6635C119.015 50.0856 119.999 51.4215 119.999 52.9687Z" fill="#0aacca"/>
<path d="M59.9999 21.3281C38.695 21.3281 21.3281 38.695 21.3281 59.9999C21.3281 81.3043 38.695 98.6717 59.9999 98.6717C81.3048 98.6717 98.6717 81.3043 98.6717 59.9999C98.6717 38.695 81.3048 21.3281 59.9999 21.3281Z" fill="#302C3F"/>
<path d="M98.6718 59.9999C98.6718 81.3043 81.3049 98.6717 60 98.6717V21.3281C81.3049 21.3281 98.6718 38.695 98.6718 59.9999Z" fill="#302C3F"/>
<path d="M43.4523 69.5163L36.421 62.4851C35.0478 61.1119 35.0478 58.887 36.421 57.5138L43.4523 50.4825C44.8255 49.1093 47.0504 49.1093 48.4236 50.4825C49.7968 51.8557 49.7968 54.0807 48.4236 55.4539L43.8779 59.9995L48.4236 64.5452C49.7968 65.9184 49.7968 68.1434 48.4236 69.5166C47.0501 70.8898 44.8255 70.8898 43.4523 69.5163Z" fill="#1dd5df"/>
<path d="M71.5765 69.5163C70.2033 68.1431 70.2033 65.9182 71.5765 64.545L76.122 59.9995L71.5763 55.4539C70.2031 54.0807 70.2031 51.8557 71.5763 50.4825C72.9495 49.1093 75.1744 49.1093 76.5476 50.4825L83.5788 57.5138C84.952 58.887 84.952 61.1119 83.5788 62.4851L76.5476 69.5163C75.1744 70.8898 72.9497 70.8898 71.5765 69.5163Z" fill="#1dd5df"/>
<path d="M66.8902 46.7802L59.9998 74.3424L59.8589 74.9051C59.4371 76.8038 57.4685 77.9286 55.6404 77.4364C53.7418 77.0145 52.617 75.1158 53.1092 73.2179L59.9998 45.655L60.1407 45.0927C60.5625 43.194 62.4607 42.0693 64.3592 42.5612C66.2576 42.9831 67.3826 44.8815 66.8902 46.7802Z" fill="#1dd5df"/>
<path d="M66.8904 46.7802L60 74.3424V45.655L60.1409 45.0927C60.5627 43.194 62.4609 42.0693 64.3594 42.5612C66.2578 42.9831 67.3828 44.8815 66.8904 46.7802Z" fill="#1dd5df"/>
</svg>
