<svg width="120" height="120" viewBox="0 0 120 120" fill="none" xmlns="http://www.w3.org/2000/svg">
<g clip-path="url(#clip0)">
<path d="M115.469 49.568L66.5222 49.5657C64.3608 49.5657 62.6089 51.3174 62.6089 53.4788V69.1151C62.6089 71.2761 64.3608 73.0283 66.522 73.0283H94.0859C91.0676 80.8613 85.4342 87.4212 78.2469 91.5893L90.0001 111.935C108.854 101.031 120 81.8996 120 60.4829C120 57.4334 119.775 55.2535 119.326 52.7989C118.984 50.934 117.365 49.568 115.469 49.568Z" fill="#0aacca"/>
<path d="M60.0008 96.5212C46.5116 96.5212 34.7357 89.151 28.4111 78.2449L8.06592 89.9716C18.4194 107.916 37.8149 119.999 60.0008 119.999C70.8845 119.999 81.1541 117.069 90.0008 111.962V111.934L78.2476 91.5883C72.8715 94.7064 66.6503 96.5212 60.0008 96.5212Z" fill="#1dd5df"/>
<path d="M90 111.963V111.935L78.2468 91.5886C72.8707 94.7065 66.6499 96.5215 60 96.5215V120C70.8837 120 81.1537 117.069 90 111.963Z" fill="#0aacca"/>
<path d="M23.4783 59.9999C23.4783 53.351 25.2928 47.1304 28.4102 41.7545L8.06508 30.0278C2.93016 38.8467 0 49.0884 0 59.9999C0 70.9115 2.93016 81.1532 8.06508 89.972L28.4102 78.2453C25.2928 72.8695 23.4783 66.6489 23.4783 59.9999Z" fill="#1dd5df"/>
<path d="M60.0008 23.4783C68.7972 23.4783 76.877 26.6039 83.188 31.803C84.745 33.0855 87.0079 32.993 88.434 31.5668L99.5129 20.4879C101.131 18.8698 101.016 16.2211 99.2872 14.7216C88.7134 5.54836 74.9556 0 60.0008 0C37.8149 0 18.4194 12.0837 8.06592 30.0279L28.4111 41.7546C34.7357 30.8484 46.5116 23.4783 60.0008 23.4783Z" fill="#1dd5df"/>
<path d="M83.1872 31.803C84.7442 33.0855 87.0073 32.993 88.4332 31.5668L99.5121 20.4879C101.13 18.8698 101.015 16.2211 99.2864 14.7216C88.7126 5.54813 74.9548 0 60 0V23.4783C68.7961 23.4783 76.8762 26.6039 83.1872 31.803Z" fill="#0aacca"/>
<path fill-rule="evenodd" clip-rule="evenodd" d="M59.8305 8.00027L60 8L60.1695 8.00027C61.8828 8.00574 63.2672 9.39908 63.2617 11.1124C63.2563 12.8257 61.8629 14.2101 60.1497 14.2046L60 14.2044L59.8503 14.2046C58.137 14.2101 56.7437 12.8257 56.7382 11.1124C56.7328 9.39908 58.1172 8.00574 59.8305 8.00027ZM27.7371 23.1255C28.9447 24.3409 28.9383 26.3051 27.7229 27.5126C27.6526 27.5825 27.5825 27.6526 27.5126 27.7229C26.3051 28.9383 24.3409 28.9447 23.1255 27.7371C21.9101 26.5295 21.9038 24.5653 23.1113 23.3499C23.1906 23.2701 23.2701 23.1906 23.3499 23.1113C24.5653 21.9038 26.5295 21.9101 27.7371 23.1255ZM11.1124 56.7382C12.8257 56.7437 14.2101 58.137 14.2046 59.8503L14.2044 60L14.2046 60.1497C14.2101 61.8629 12.8257 63.2563 11.1124 63.2617C9.39908 63.2672 8.00574 61.8828 8.00027 60.1695L8 60L8.00027 59.8305C8.00574 58.1172 9.39908 56.7328 11.1124 56.7382ZM108.888 56.7382C110.601 56.7328 111.994 58.1172 112 59.8305L112 60L112 60.1695C111.994 61.8828 110.601 63.2672 108.888 63.2617C107.174 63.2563 105.79 61.8629 105.795 60.1497L105.796 60L105.795 59.8503C105.79 58.137 107.174 56.7437 108.888 56.7382ZM23.1255 92.2629C24.3409 91.0553 26.3051 91.0617 27.5126 92.2771C27.5825 92.3474 27.6526 92.4175 27.7229 92.4874C28.9383 93.6949 28.9447 95.6591 27.7371 96.8745C26.5295 98.0899 24.5653 98.0962 23.3499 96.8887C23.2701 96.8094 23.1906 96.7298 23.1113 96.6501C21.9038 95.4347 21.9101 93.4705 23.1255 92.2629ZM96.8745 92.2629C98.0899 93.4705 98.0962 95.4347 96.8887 96.6501C96.8094 96.7298 96.7298 96.8094 96.6501 96.8887C95.4347 98.0962 93.4705 98.0899 92.2629 96.8745C91.0553 95.6591 91.0617 93.6949 92.2771 92.4874C92.3474 92.4175 92.4175 92.3474 92.4874 92.2771C93.6949 91.0617 95.6591 91.0553 96.8745 92.2629ZM56.7382 108.888C56.7437 107.174 58.137 105.79 59.8503 105.795L60 105.796L60.1497 105.795C61.8629 105.79 63.2563 107.174 63.2617 108.888C63.2672 110.601 61.8828 111.994 60.1695 112L60 112L59.8305 112C58.1172 111.994 56.7328 110.601 56.7382 108.888Z" fill="#302C3F"/>
</g>
<defs>
<clipPath id="clip0">
<rect width="120" height="120" fill="white"/>
</clipPath>
</defs>
</svg>
