<svg width="120" height="120" viewBox="0 0 120 120" fill="none" xmlns="http://www.w3.org/2000/svg">
<g clip-path="url(#clip0)">
<path d="M78.8284 86.2747H41.1719C39.2303 86.2747 37.6562 87.849 37.6562 89.7903V116.485C37.6562 118.426 39.2303 120 41.1719 120H78.8284C80.77 120 82.3441 118.426 82.3441 116.485V89.7903C82.3441 87.8487 80.77 86.2747 78.8284 86.2747Z" fill="#302C3F"/>
<path d="M78.8283 86.2747H60V120H78.8283C80.7698 120 82.3439 118.426 82.3439 116.485V89.7903C82.3439 87.8487 80.7698 86.2747 78.8283 86.2747Z" fill="#302C3F"/>
<path d="M59.9997 0C33.1446 0 11.2964 21.8482 11.2964 48.7031C11.2964 58.2054 14.0353 67.414 19.2166 75.333C24.2629 83.0456 31.3479 89.1495 39.705 92.985C40.1651 93.1962 40.6652 93.3054 41.1715 93.3054H78.828C79.3343 93.3054 79.8344 93.1962 80.2945 92.985C88.6516 89.1495 95.7365 83.0456 100.783 75.333C105.964 67.414 108.703 58.2056 108.703 48.7031C108.703 21.8482 86.8549 0 59.9997 0Z" fill="#1dd5df"/>
<path d="M60 0V93.3056H78.8283C79.3345 93.3056 79.8347 93.1964 80.2948 92.9852C88.6519 89.1497 95.7368 83.0459 100.783 75.3333C105.964 67.4142 108.703 58.2059 108.703 48.7034C108.703 21.8482 86.8552 0 60 0Z" fill="#0aacca"/>
<path d="M82.594 45.1873H74.3876C74.0231 43.6969 73.4358 42.2932 72.6581 41.0168L78.4624 35.2125C79.8354 33.8395 79.8354 31.6137 78.4624 30.2407C77.0897 28.8677 74.8636 28.8677 73.4907 30.2405L67.6861 36.0448C66.4097 35.2669 65.006 34.6795 63.5156 34.3153V26.1091C63.5156 24.1676 61.9416 22.5935 60 22.5935C58.0585 22.5935 56.4844 24.1676 56.4844 26.1091V34.3153C54.994 34.6795 53.5903 35.2671 52.3139 36.045L46.5096 30.2407C45.1369 28.8677 42.9108 28.8677 41.5378 30.2407C40.1649 31.6137 40.1649 33.8395 41.5378 35.2125L47.3421 41.0168C46.5642 42.2932 45.9769 43.6969 45.6127 45.1873H37.4067C35.4652 45.1873 33.8911 46.7613 33.8911 48.7029C33.8911 50.6444 35.4652 52.2185 37.4067 52.2185H45.6131C45.9774 53.7089 46.5649 55.1126 47.3428 56.3887L41.5385 62.1928C40.1656 63.5658 40.1656 65.7919 41.5385 67.1646C42.225 67.8511 43.1248 68.1944 44.0245 68.1944C44.9241 68.1944 45.8241 67.8511 46.5103 67.1648L52.3146 61.3608C53.5908 62.1387 54.9945 62.726 56.4849 63.0902V71.2966C56.4849 73.2384 58.0589 74.8123 60.0005 74.8123C61.9421 74.8123 63.5161 73.2384 63.5161 71.2966V63.0902C65.0063 62.726 66.4102 62.1387 67.6863 61.3608L73.4911 67.1648C74.1778 67.8513 75.0774 68.1944 75.9769 68.1944C76.8767 68.1944 77.7767 67.8511 78.4629 67.1646C79.8356 65.7916 79.8354 63.5658 78.4627 62.1928L72.6581 56.389C73.436 55.1126 74.0234 53.7089 74.3878 52.2185H82.5942C84.5358 52.2185 86.1099 50.6444 86.1099 48.7029C86.1099 46.7613 84.5358 45.1873 82.594 45.1873ZM60.0003 56.4841C55.7098 56.4841 52.2192 52.9936 52.2192 48.7031C52.2192 44.4124 55.71 40.9219 60.0003 40.9219C64.291 40.9219 67.7815 44.4126 67.7815 48.7031C67.7815 52.9934 64.291 56.4841 60.0003 56.4841Z" fill="#302C3F"/>
<path d="M82.5935 45.1873H74.3871C74.0226 43.6969 73.4353 42.2932 72.6576 41.0168L78.4619 35.2125C79.8349 33.8395 79.8349 31.6137 78.4619 30.2407C77.0892 28.8677 74.8631 28.8677 73.4901 30.2405L67.6856 36.0448C66.4092 35.2669 65.0055 34.6795 63.5151 34.3153V26.1091C63.5151 24.1676 61.9411 22.5935 59.9995 22.5935V40.9216C64.2902 40.9216 67.7808 44.4124 67.7808 48.7029C67.7808 52.9934 64.2902 56.4839 59.9995 56.4839V74.812C61.9411 74.812 63.5151 73.2382 63.5151 71.2964V63.09C65.0053 62.7258 66.4092 62.1384 67.6854 61.3605L73.4901 67.1646C74.1769 67.8511 75.0764 68.1942 75.9759 68.1942C76.8757 68.1942 77.7757 67.8509 78.4619 67.1644C79.8347 65.7914 79.8344 63.5655 78.4617 62.1926L72.6572 56.3887C73.4351 55.1123 74.0224 53.7087 74.3869 52.2183H82.5933C84.5348 52.2183 86.1089 50.6442 86.1089 48.7026C86.1089 46.7611 84.5353 45.1873 82.5935 45.1873Z" fill="#302C3F"/>
</g>
<defs>
<clipPath id="clip0">
<rect width="120" height="120" fill="white"/>
</clipPath>
</defs>
</svg>
