<svg width="96" height="96" viewBox="0 0 96 96" fill="none" xmlns="http://www.w3.org/2000/svg">
<path d="M87.2975 0H8.70255C3.89636 0 0 3.89636 0 8.70255V87.2975C0 92.1036 3.89636 96 8.70255 96H87.2975C92.1036 96 96 92.1036 96 87.2975V8.70255C96 3.89636 92.1036 0 87.2975 0Z" fill="#DC395F"/>
<path d="M32.0832 30.2038C35.2745 30.2038 37.9476 27.7024 37.9476 24.4242C37.9476 21.1482 35.2745 18.6475 32.0832 18.6475C28.892 18.6475 26.2192 21.1482 26.2192 24.4242C26.2192 27.7024 28.892 30.2038 32.0832 30.2038Z" fill="white"/>
<path d="M19.9236 61.1496C19.5792 62.6158 19.4061 64.199 19.4061 65.4907C19.4061 70.5798 22.1658 73.9583 28.0305 73.9583C32.8945 73.9583 36.8374 71.0696 39.6763 66.406L37.9429 73.3634H47.601L53.121 51.2238C54.5007 45.618 57.1741 42.7085 61.2279 42.7085C64.4188 42.7085 66.4025 44.6929 66.4025 47.9689C66.4025 48.9183 66.3159 49.9521 65.9712 51.0736L63.1247 61.25C62.6934 62.7161 62.5218 64.1834 62.5218 65.562C62.5218 70.3932 65.3668 73.927 71.3178 73.927C76.4061 73.927 80.4592 70.6514 82.7018 62.803L78.9076 61.338C77.0097 66.5961 75.3712 67.5467 74.0778 67.5467C72.7839 67.5467 72.0938 66.6849 72.0938 64.9609C72.0938 64.1849 72.2668 63.3234 72.525 62.2863L75.2854 52.3718C75.9748 50.0438 76.2341 47.9794 76.2341 46.0827C76.2341 38.666 71.749 34.7954 66.3159 34.7954C61.2279 34.7954 56.053 39.3849 53.4665 44.215L55.3632 35.5452H40.6163L38.5461 43.1816H45.4458L41.1974 60.1918C37.8607 67.6085 31.7319 67.7289 30.9628 67.5565C29.6999 67.2718 28.8923 66.7921 28.8923 65.1511C28.8923 64.2041 29.0647 62.8441 29.4959 61.2041L35.9647 35.5452H19.5792L17.509 43.1816H24.3218L19.9236 61.1496Z" fill="white"/>
</svg>
