<svg width="75" height="96" viewBox="0 0 75 96" fill="none" xmlns="http://www.w3.org/2000/svg">
<path d="M51.4824 14.5901C55.0947 10.7229 57.538 5.3539 56.8692 0C51.6651 0.185719 45.3579 3.05481 41.6225 6.92164C38.2739 10.3449 35.3423 15.8161 36.1247 21.0649C41.9317 21.4578 47.8641 18.451 51.4824 14.5901ZM62.5652 51.5643C62.4543 39.5614 72.0682 33.7965 72.4939 33.5179C67.089 25.3671 58.6714 24.2518 55.6735 24.126C48.5059 23.3736 41.6979 28.4667 38.0589 28.4667C34.4348 28.4667 28.829 24.2248 22.8843 24.3387C15.0693 24.4674 7.86844 29.0182 3.85475 36.2306C-4.26353 50.7401 1.77397 72.2337 9.6848 84.0028C13.552 89.7644 18.1564 96.2276 24.2028 95.9938C30.0394 95.76 32.2397 92.1119 39.2816 92.1119C46.3264 92.1119 48.2988 95.9938 54.4621 95.8769C60.7334 95.76 64.7023 90.0044 68.5365 84.2247C72.973 77.5428 74.8019 71.0736 74.9066 70.747C74.7719 70.6689 62.694 65.9176 62.5652 51.5643Z" fill="#CCD0D2"/>
</svg>
