<svg width="70" height="96" viewBox="0 0 70 96" fill="none" xmlns="http://www.w3.org/2000/svg">
<path d="M68.3962 46.2582C68.3962 65.272 53.3209 80.7004 34.7145 80.7004C16.1081 80.7004 1.03278 65.272 1.03278 46.2582C1.03278 27.2443 16.1081 11.8159 34.7145 11.8159C53.3209 11.8159 68.3962 27.2443 68.3962 46.2582Z" fill="#D33833"/>
<path d="M2.41767 54.7876C2.41767 54.7876 -0.0269672 18.8785 33.0843 17.8464L30.7755 13.9893L12.821 20.0194L7.68723 25.9137L3.20539 34.4971L0.6521 44.4929L1.41265 51.1749" fill="#EF3D3A"/>
<path d="M11.6528 22.7622C5.75848 28.8194 2.09153 37.1584 2.09153 46.3937C2.09153 55.629 5.75848 63.9679 11.6528 70.0252C17.5742 76.0825 25.6959 79.8038 34.7139 79.8038C43.7319 79.8038 51.8535 76.0825 57.775 70.0252C63.6693 63.9679 67.3362 55.629 67.3362 46.3937C67.3362 37.1584 63.6693 28.8194 57.775 22.7622C51.8535 16.7321 43.7319 12.9836 34.7139 12.9836C25.723 12.9836 17.5742 16.7049 11.6528 22.7622ZM10.1588 71.4648C3.88426 65.0544 0 56.1722 0 46.3937C0 36.6151 3.88426 27.7329 10.1588 21.2954C16.4334 14.885 25.1255 10.8921 34.7139 10.8921C44.3023 10.8921 52.9944 14.885 59.2689 21.2954C65.5435 27.7058 69.4278 36.588 69.4278 46.3937C69.4278 56.1722 65.5435 65.0544 59.2689 71.4648C52.9944 77.9024 44.3023 81.8681 34.7139 81.8681C25.1255 81.8681 16.4334 77.9024 10.1588 71.4648Z" fill="#231F20"/>
<path d="M48.893 46.4482L43.7593 47.2088L36.8328 47.9965L32.3509 48.1052L27.9778 47.9693L24.6368 46.9372L21.676 43.732L19.3672 37.1858L18.8511 35.7733L15.7817 34.7411L13.989 31.7804L12.7123 27.543L14.1248 23.8217L17.4658 22.6537L20.1549 23.9304L21.4316 26.7553L22.9798 26.5108L23.4959 25.8589L22.9798 22.8982L22.844 19.1769L23.6046 14.0432L23.5774 11.1096L25.9134 7.36117L30.015 4.40044L37.1859 1.33105L45.1446 2.49905L52.071 7.49698L55.2762 12.6307L57.3406 16.352L57.8567 25.5873L56.3084 33.546L53.4835 40.6083L50.8216 44.3839" fill="#F0D6B7"/>
<path d="M44.5468 68.6407L26.212 69.4013V72.4706L27.7603 83.2542L26.9997 84.1506L14.179 79.7774L13.2826 78.2291L12.0059 63.7243L8.99089 55.0322L8.33899 52.9678L18.6065 45.9055L21.8117 44.6289L24.6366 48.1057L27.0812 50.2787L29.9061 51.1751L31.1828 51.5554L32.7311 58.2374L33.899 59.6499L36.8598 58.6177L34.7954 62.6106L45.9321 67.8801L44.5468 68.6407Z" fill="#335061"/>
<path d="M14.1239 23.8759L17.4649 22.7079L20.154 23.9846L21.4306 26.8095L22.9789 26.565L23.3592 25.0167L22.5986 22.056L23.3592 14.9937L22.7073 11.1366L25.0161 8.44752L30.014 4.48177L28.6016 2.55322L21.5393 6.03004L18.5786 8.33887L16.9216 11.9243L14.3683 15.4012L13.6078 19.5027L14.1239 23.8759Z" fill="#6D6B6D"/>
<path d="M19.3943 11.8158C19.3943 11.8158 21.3229 7.06238 29.0099 4.75355C36.6969 2.44473 29.3902 3.09663 29.3902 3.09663L21.0512 6.30182L17.8461 9.50702L16.4336 12.0603L19.3943 11.8158Z" fill="#DCD9D8"/>
<path d="M15.5363 22.9803C15.5363 22.9803 12.8472 13.9895 23.1147 12.7128L22.7344 11.1646L15.6722 12.8215L13.6078 19.5035L14.1239 23.8767L15.5363 22.9803Z" fill="#DCD9D8"/>
<path d="M19.639 34.9047L21.3231 33.2749C21.3231 33.2749 22.0836 33.3564 22.2194 34.2528C22.3552 35.1491 22.7355 43.2436 28.2495 47.5896C28.7656 47.9971 24.148 46.9377 24.148 46.9377L20.0464 40.5273" fill="#F7E4CD"/>
<path d="M43.2436 32.4598C43.2436 32.4598 43.5424 28.5755 44.6018 28.8743C45.6611 29.1731 45.6611 30.2324 45.6611 30.2324C45.6611 30.2324 43.1078 31.8622 43.2436 32.4598Z" fill="#F7E4CD"/>
<path d="M53.8913 18.2266C53.8913 18.2266 51.7726 18.6612 51.5824 20.5354C51.3923 22.4096 53.8913 20.9157 54.2716 20.7799" fill="#F7E4CD"/>
<path d="M38.3806 18.3628C38.3806 18.3628 35.5557 18.7431 35.5557 20.5358C35.5557 22.3285 38.7609 22.1927 39.6572 21.4322" fill="#F7E4CD"/>
<path d="M20.9431 26.7008C20.9431 26.7008 16.081 23.74 15.5649 26.565C15.0488 29.3899 13.908 31.4271 16.3255 34.3878L14.6685 33.8717L13.1203 29.906L12.6042 26.0489L15.5649 22.9795L18.9059 23.224L20.8345 24.7722L20.9431 26.7008Z" fill="#F7E4CD"/>
<path d="M23.2509 18.6071C23.2509 18.6071 25.4239 7.30743 36.4519 5.13441C45.5243 3.34168 50.3049 5.51469 52.0976 7.57905C52.0976 7.57905 44.0032 -2.03653 36.3161 0.897037C28.6291 3.85777 22.9793 9.23598 23.1151 12.6856C23.3324 18.6071 23.2509 18.6071 23.2509 18.6071Z" fill="#F7E4CD"/>
<path d="M52.9945 8.85575C52.9945 8.85575 49.2733 8.71993 49.1375 12.0609C49.1375 12.0609 49.1375 12.577 49.3819 13.0931C49.3819 13.0931 52.3426 9.75212 54.1354 11.5449" fill="#F7E4CD"/>
<path d="M36.7244 13.4456C36.7244 13.4456 36.0725 8.33906 31.7265 11.2998C28.9015 13.2283 29.1732 15.9174 29.6621 16.4335C30.1782 16.9496 30.0424 17.9818 30.4226 17.2756C30.8029 16.5694 30.6943 14.2605 32.1067 13.6086C33.492 12.9567 35.828 12.2505 36.7244 13.4456Z" fill="#F7E4CD"/>
<path d="M24.6636 48.105L12.6034 53.4832C12.6034 53.4832 17.6013 73.3663 15.048 79.5322L13.2553 78.8803L13.1195 71.3019L9.77849 56.96L8.36603 52.9943L20.9423 44.5195L24.6636 48.105Z" fill="#49728B"/>
<path d="M25.8859 59.106L27.5972 61.1975V68.8845H25.56C25.56 68.8845 25.3155 63.5063 25.3155 62.8544C25.3155 62.2025 25.56 59.8937 25.56 59.8937" fill="#49728B"/>
<path d="M25.9405 70.0527L20.1548 70.2972L21.8118 71.4652L25.9133 72.1171" fill="#49728B"/>
<path d="M45.6877 68.776L50.4411 68.6401L51.6091 80.4287L46.747 81.0806L45.6877 68.776Z" fill="#335061"/>
<path d="M46.9648 68.7765L54.1358 68.3963C54.1358 68.3963 57.0965 60.9537 57.0965 60.5734C57.0965 60.1931 59.6498 49.7898 59.6498 49.7898L53.8642 43.7597L52.6962 42.7275L49.6268 45.7969V57.7213L46.9648 68.7765Z" fill="#335061"/>
<path d="M50.1695 67.8799L45.6877 68.7762L46.3396 72.3617C47.9965 73.1223 50.8214 71.0851 50.8214 71.0851" fill="#49728B"/>
<path d="M50.3054 45.4168L59.2963 52.0988L59.5407 49.0295L52.7501 42.7549L50.3054 45.4168Z" fill="#49728B"/>
<path d="M30.3951 94.038L27.7332 83.2544L26.4022 75.2957L26.1849 69.4014L38.218 68.7495H45.6877L45.0087 82.2222L46.1767 92.6255L46.0408 94.554L36.2894 95.3146L30.3951 94.038Z" fill="white"/>
<path d="M44.0302 68.6404C44.0302 68.6404 43.3783 81.9773 45.3069 91.4842C45.3069 91.4842 41.4498 93.9289 35.8271 94.5536L46.6107 94.1733L47.8873 93.4128L46.339 72.3889L45.9316 67.8799" fill="#DCD9D8"/>
<path d="M51.7987 79.4249L56.7967 78.0125L66.2764 77.4964L67.6889 73.1232L65.1356 65.5448L62.1749 65.1646L58.0733 66.4412L54.1619 68.3697L52.0704 67.9895L50.4406 68.6414" fill="white"/>
<path d="M51.7178 76.8434C51.7178 76.8434 55.0588 75.2952 55.5749 75.431L54.1624 68.3687L55.8193 67.7168C55.8193 67.7168 56.9873 74.3988 56.9873 75.1594C56.9873 75.1594 64.1583 75.5396 64.8102 75.5396C64.8102 75.5396 66.3585 72.5789 65.9782 69.5095L67.3906 73.6111L67.5264 75.9199L65.4621 78.9893L63.1533 79.5054L59.2962 79.3696L58.0195 77.7127L53.5377 78.3646L52.1252 78.8806" fill="#DCD9D8"/>
<path d="M46.6652 67.7435L43.8403 60.5726L40.8796 56.3352C40.8796 56.3352 41.5315 54.5425 42.4278 54.5425H45.3886L48.2135 55.5747L47.969 60.3281L46.6652 67.7435Z" fill="white"/>
<path d="M47.2355 65.2993C47.2355 65.2993 43.65 58.3729 43.65 57.3407C43.65 57.3407 44.3019 55.7924 45.1983 56.1727C46.0946 56.553 48.0232 57.5851 48.0232 57.5851V55.1405L43.65 54.2441L40.6893 54.6244L45.6872 66.4673L46.7194 66.6031" fill="#DCD9D8"/>
<path d="M31.5357 48.3773L27.9774 47.997L24.6364 46.9648V48.1328L26.2661 49.9256L31.3999 52.2344" fill="white"/>
<path d="M25.8048 48.7568C25.8048 48.7568 29.7706 50.4138 31.0744 50.0335L31.2102 51.5818L27.6247 50.8212L25.4517 49.2729L25.8048 48.7568Z" fill="#DCD9D8"/>
<path d="M51.7994 54.9771C49.6264 54.9227 47.6435 54.6511 45.9323 54.1622C46.0409 53.456 45.8236 52.7769 46.0138 52.2608C46.5027 51.9077 47.2904 51.9077 48.0238 51.8262C47.3991 51.5274 46.5027 51.3916 45.7965 51.5817C45.7693 51.0928 45.552 50.794 45.4162 50.4137C46.6385 49.9791 49.5178 47.1271 51.1475 48.0506C51.9352 48.5124 52.2612 51.0656 52.3155 52.3423C52.3698 53.3745 52.2069 54.4066 51.7994 54.9771Z" fill="#D33833"/>
<path d="M51.7994 54.9771C49.6264 54.9227 47.6435 54.6511 45.9323 54.1622C46.0409 53.456 45.8236 52.7769 46.0138 52.2608C46.5027 51.9077 47.2904 51.9077 48.0238 51.8262C47.3991 51.5274 46.5027 51.3916 45.7965 51.5817C45.7693 51.0928 45.552 50.794 45.4162 50.4137C46.6385 49.9791 49.5178 47.1271 51.1475 48.0506C51.9352 48.5124 52.2612 51.0656 52.3155 52.3423C52.3698 53.3745 52.2069 54.4066 51.7994 54.9771Z" fill="black" stroke="#D33833" stroke-width="2"/>
<path d="M41.3961 51.419C41.3961 51.5819 41.3961 51.7449 41.3689 51.9079C40.6899 52.3425 39.6034 52.3425 38.8428 52.7228C39.9293 52.7771 40.7985 53.0487 41.5591 53.4018C41.5319 53.8093 41.5319 54.2439 41.5047 54.6513C40.2553 55.4934 39.1144 56.77 37.6476 57.5849C36.9414 57.9652 34.5239 58.943 33.7905 58.7529C33.3831 58.6442 33.3288 58.1281 33.1658 57.6392C32.8127 56.607 31.9978 54.9229 31.9163 53.3475C31.8348 51.3646 31.6175 48.0236 33.7634 48.4311C35.5018 48.757 37.5118 49.5447 38.8428 50.2781C39.6848 50.767 40.1466 51.3103 41.3961 51.419Z" fill="#D33833"/>
<path d="M41.3961 51.419C41.3961 51.5819 41.3961 51.7449 41.3689 51.9079C40.6899 52.3425 39.6034 52.3425 38.8428 52.7228C39.9293 52.7771 40.7985 53.0487 41.5591 53.4018C41.5319 53.8093 41.5319 54.2439 41.5047 54.6513C40.2553 55.4934 39.1144 56.77 37.6476 57.5849C36.9414 57.9652 34.5239 58.943 33.7905 58.7529C33.3831 58.6442 33.3288 58.1281 33.1658 57.6392C32.8127 56.607 31.9978 54.9229 31.9163 53.3475C31.8348 51.3646 31.6175 48.0236 33.7634 48.4311C35.5018 48.757 37.5118 49.5447 38.8428 50.2781C39.6848 50.767 40.1466 51.3103 41.3961 51.419Z" fill="black" stroke="#D33833" stroke-width="2"/>
<path d="M42.6189 53.7825C42.4287 52.696 42.2114 52.3972 42.2929 51.4465C45.1993 49.518 45.7154 54.7604 42.6189 53.7825Z" fill="#D33833"/>
<path d="M42.6189 53.7825C42.4287 52.696 42.2114 52.3972 42.2929 51.4465C45.1993 49.518 45.7154 54.7604 42.6189 53.7825Z" fill="black" stroke="#D33833" stroke-width="2"/>
<path d="M46.8012 54.6522C46.8012 54.6522 45.9048 53.3755 46.5567 52.9953C47.2086 52.615 47.8333 52.9953 48.2136 52.3434C48.5939 51.6915 48.2136 51.3112 48.3494 50.5506C48.4852 49.7901 49.11 49.6543 49.7619 49.5184C50.4138 49.3826 52.2065 49.1382 52.451 49.7629L51.6904 47.4541L50.1422 46.938L45.2801 49.7629L45.0356 51.1754V54.0003" fill="#EF3D3A"/>
<path d="M33.3281 58.8887C33.1652 56.8787 33.0022 54.8958 32.8392 52.8858C32.5676 49.8979 33.5454 50.414 36.153 50.414C36.5605 50.414 38.5977 50.8758 38.7335 51.1745C39.4397 52.6142 37.5655 52.2882 39.5484 53.3747C41.2053 54.2711 44.166 52.8315 43.487 50.7943C43.1067 50.3325 41.5313 50.6585 40.9608 50.3597C39.9558 49.8436 38.9508 49.3275 37.9458 48.8114C36.6691 48.1595 33.7356 47.1816 32.3774 48.1052C28.9278 50.4412 32.5947 56.3083 33.8171 58.7529" fill="#EF3D3A"/>
<path d="M36.7236 13.4462C33.2196 12.6313 31.4812 14.913 30.4219 17.2761C29.4712 17.0588 29.8515 15.755 30.0959 15.1031C30.7207 13.3919 33.2468 11.083 35.3112 11.409C36.1804 11.5176 37.3755 12.3325 36.7236 13.4462Z" fill="#231F20"/>
<path d="M53.7549 17.4121H53.9179C54.7056 19.0419 55.3846 20.7803 56.3897 22.2471C55.7106 23.8225 51.3374 25.1806 51.3917 22.41C52.3424 22.0026 53.9722 22.3286 54.8142 21.7853C54.3253 20.4543 53.6462 19.3135 53.7549 17.4121Z" fill="#231F20"/>
<path d="M38.4895 17.4663C39.25 18.8516 39.4945 20.2912 40.5538 21.3234C41.0428 21.7852 41.9663 22.3556 41.5045 23.6594C41.3959 23.9582 40.6081 24.6372 40.1464 24.7731C38.4895 25.262 34.6052 24.8817 35.909 22.7902C37.2943 22.8445 39.1414 23.6866 40.1735 22.6815C39.3858 21.4321 37.9734 18.9331 38.4895 17.4663Z" fill="#231F20"/>
<path d="M53.1306 31.4269C50.6316 33.0295 47.8338 34.7951 43.7051 34.3877C42.8359 33.6271 42.4828 31.9158 43.352 30.8022C43.7866 31.5627 43.515 32.9752 44.7645 33.1925C47.1005 33.5999 49.8167 31.7529 51.5008 31.1281C52.533 29.3626 51.4193 28.7378 50.4686 27.597C48.5401 25.2882 45.9868 22.4089 46.0683 18.9593C46.856 18.3888 46.9103 19.8285 47.019 20.0729C48.024 22.4089 50.5501 25.424 52.37 27.434C52.8318 27.9229 53.5652 28.4119 53.6467 28.7378C53.8911 29.6613 53.0219 30.8022 53.1306 31.4269Z" fill="#231F20"/>
<path d="M20.0458 29.743C19.2581 29.2812 19.068 27.3255 18.1445 27.2712C16.8135 27.1897 17.0579 29.8245 17.0579 31.3727C16.1616 30.5579 15.9986 28.0046 16.6505 26.7008C15.8899 26.3205 15.564 27.1082 15.1294 27.3798C15.6998 23.4412 20.915 25.5599 20.0458 29.743Z" fill="#231F20"/>
<path d="M54.7053 33.0845C53.5373 35.3118 51.8803 37.7564 48.4578 37.8379C48.3764 37.1317 48.322 36.018 48.4578 35.5834C51.0926 35.3118 52.7224 33.9808 54.7053 33.0845Z" fill="#231F20"/>
<path d="M38.2993 34.5239C40.4723 35.6648 44.4923 35.8006 47.4802 35.7191C47.6432 36.371 47.6432 37.1859 47.6432 37.9736C43.8133 38.1366 39.3043 37.1859 38.2993 34.5239Z" fill="#231F20"/>
<path d="M37.8924 36.6426C39.4135 40.4454 44.6016 40.0107 48.9747 39.9021C48.7846 40.391 48.3772 40.9886 47.8339 41.1787C46.4215 41.7492 42.5644 42.1838 40.6086 41.1516C39.3863 40.4997 38.5714 39.0057 37.8924 38.1365C37.5936 37.7291 35.9638 36.6697 37.8924 36.6426Z" fill="#231F20"/>
<path d="M52.9398 57.5854C51.1742 60.6277 49.463 63.7514 47.3715 66.4133C48.2407 63.8329 48.6209 59.4868 48.7568 56.173C50.6038 55.3038 52.1792 56.3631 52.9398 57.5854Z" fill="#81B0C4"/>
<path d="M62.4738 68.5049C60.4909 68.9123 59.1056 70.8409 57.1499 70.7051C58.2364 69.2111 60.0835 68.5592 62.4738 68.5049Z" fill="#231F20"/>
<path d="M63.3435 71.6009C61.7138 71.7639 59.8124 72.0355 58.1826 71.8997C58.9703 70.7045 61.9582 71.1391 63.3435 71.6009Z" fill="#231F20"/>
<path d="M63.9143 74.2895C62.0944 74.3167 59.8399 74.2895 58.1015 74.1537C59.1337 73.04 62.7463 73.7462 63.9143 74.2895Z" fill="#231F20"/>
<path d="M49.5179 81.6238C49.7895 83.9054 50.6859 86.2142 50.5772 88.7132C49.5722 89.0392 49.0018 89.338 47.6437 89.338C47.5622 87.2193 47.2634 83.9597 47.3449 81.9225C47.9968 81.9769 48.9746 81.4608 49.5179 81.6238Z" fill="#DCD9D8"/>
<path d="M46.5844 47.9424C45.6609 48.54 44.9003 49.2734 44.0039 49.9253C42.0482 50.0339 40.9889 49.7894 39.5764 48.6758C39.6036 48.5943 39.7394 48.6215 39.7394 48.5128C41.8309 49.4363 44.4929 48.1325 46.5844 47.9424Z" fill="#F0D6B7"/>
<path d="M35.6638 62.1484C36.2342 59.6766 38.4887 58.3728 40.5259 57.0146C42.6175 59.6766 43.8941 63.0991 45.3066 66.4129C41.9656 65.4079 38.5702 63.8053 35.6638 62.1484Z" fill="#81B0C4"/>
<path d="M47.3445 81.9502C47.263 83.9874 47.5346 87.2198 47.6433 89.3656C49.0014 89.3656 49.5718 89.0668 50.5768 88.7409C50.6855 86.2419 49.7891 83.9331 49.5175 81.6514C48.9742 81.4613 47.9964 81.9774 47.3445 81.9502ZM26.3749 70.4332C27.2713 78.6092 28.5479 85.4542 30.9111 92.7066C36.1534 94.3092 42.4552 94.445 47.1 93.0054C46.258 88.931 46.6111 83.9603 46.1221 79.5871C45.7419 76.3004 45.932 73.0137 45.4159 69.6727C39.7932 68.5047 31.8617 69.4011 26.3749 70.4332ZM46.7469 69.727C46.6926 73.231 46.9099 76.7078 47.1815 80.2118C48.5396 80.0217 49.436 79.8858 50.6855 79.5871C50.278 76.2189 50.3324 72.389 49.4903 69.4011C48.5396 69.4282 47.6976 69.4011 46.7469 69.727ZM53.5647 69.1566C52.9128 69.0208 52.1794 69.1566 51.5818 69.1566C51.8806 72.0087 52.5597 75.1595 52.8042 78.1746C53.7548 78.2018 54.2709 77.74 55.0587 77.6042C55.113 74.9694 54.8414 71.3296 53.5647 69.1566ZM63.9137 78.6092C65.9237 78.1203 67.1732 75.6756 66.6028 73.1495C66.2225 71.4654 65.5706 68.2602 64.8372 67.1737C64.3211 66.386 62.8815 65.3267 61.7135 66.0601C59.8393 67.2552 56.5526 67.6083 55.1945 69.0479C55.8735 71.3296 56.0908 74.4262 56.3625 77.3054C58.6985 77.4412 61.5505 76.6535 63.5062 77.4955C62.1481 77.9301 60.4097 77.9301 59.2417 78.582C60.2196 79.0438 62.4469 78.9623 63.9137 78.6092ZM45.2801 66.4132C43.8676 63.0993 42.591 59.6768 40.4995 57.0149C38.4623 58.373 36.2349 59.6768 35.6374 62.1486C38.5709 63.8056 41.9663 65.4081 45.2801 66.4132ZM48.7569 56.1728C48.6211 59.4867 48.2408 63.8327 47.3716 66.4132C49.4632 63.7241 51.1744 60.6275 52.94 57.5853C52.1794 56.363 50.604 55.3036 48.7569 56.1728ZM44.8183 54.7876C44.0306 54.7061 43.3516 55.7111 42.3194 55.2765C42.0749 55.5481 41.8576 55.8197 41.6131 56.0914C43.8948 58.8619 44.9542 62.7734 46.7197 66.0057C47.6704 62.882 47.5618 59.4867 47.7791 56.0914C46.4753 56.1457 45.7419 54.869 44.8183 54.7876ZM42.2922 51.4465C42.2107 52.3972 42.428 52.696 42.6182 53.7825C45.7147 54.7604 45.1986 49.518 42.2922 51.4465ZM38.8426 50.3057C37.5116 49.5723 35.5015 48.7846 33.7631 48.4586C31.6173 48.0512 31.8346 51.3922 31.9161 53.3751C31.9976 54.9505 32.8124 56.6074 33.1656 57.6668C33.3285 58.1557 33.3829 58.6718 33.7903 58.7805C34.5237 58.9434 36.9683 57.9927 37.6474 57.6125C39.1142 56.8247 40.255 55.5481 41.5045 54.6789C41.5317 54.2715 41.5317 53.8369 41.5588 53.4294C40.7983 53.0491 39.9562 52.8047 38.8426 52.7504C39.5759 52.3701 40.6896 52.3701 41.3687 51.9355C41.3687 51.7725 41.3687 51.6095 41.3958 51.4465C40.1464 51.3107 39.6846 50.7675 38.8426 50.3057ZM26.0761 47.9969C24.9624 49.1377 29.1998 50.6588 30.5308 50.7403C30.5308 50.0341 30.9382 49.355 30.8567 48.8389C29.2541 48.5673 27.1626 48.7574 26.0761 47.9969ZM39.7661 48.513C39.7661 48.6216 39.6303 48.5945 39.6031 48.6759C41.0427 49.7896 42.1021 50.0341 44.0306 49.9254C44.8998 49.3007 45.6875 48.5401 46.6111 47.9426C44.4924 48.1327 41.8304 49.4365 39.7661 48.513ZM52.3152 52.3157C52.2609 51.0663 51.935 48.4858 51.1472 48.024C49.5175 47.0734 46.6382 49.9526 45.4159 50.3872C45.5517 50.7675 45.769 51.0663 45.7962 51.5552C46.5296 51.3651 47.3988 51.5009 48.0235 51.7997C47.2901 51.8811 46.5024 51.8811 46.0135 52.2343C45.8505 52.7504 46.0678 53.4294 45.932 54.1356C47.6433 54.6246 49.6261 54.869 51.7991 54.9505C52.2066 54.4073 52.3696 53.3751 52.3152 52.3157ZM24.2019 49.0834C23.8488 48.8389 21.4856 45.7695 21.1597 45.9054C16.8951 47.5894 12.9022 50.4958 9.3439 53.2664C12.7392 60.5732 14.1245 69.5097 14.369 78.1203C18.2533 79.9402 21.6757 82.575 26.9725 82.8466C26.3477 78.5277 25.8045 74.6434 25.4514 70.5691C24.1204 69.9986 22.219 70.5962 20.9695 70.4061C20.9695 68.9121 22.8709 69.7542 23.0339 68.7492C23.1425 67.9886 21.9745 67.9343 22.3548 66.7391C23.3327 67.0922 23.8488 67.88 24.8809 68.1787C25.8316 66.1144 24.8809 62.4474 25.0168 60.709C25.0439 60.3831 25.1797 58.9163 25.9131 59.1607C26.565 59.378 25.886 63.0993 25.9403 64.7291C25.9946 66.2502 25.7501 67.6898 26.3749 68.6405C31.4815 67.9343 36.6695 67.4997 42.2107 67.3367C40.9884 66.8206 39.5488 66.3317 37.9733 65.4353C37.1041 64.9464 34.415 63.9414 34.1706 63.1265C33.7631 61.8227 35.2028 61.1436 35.4472 60.0299C32.8668 61.4424 32.3778 58.6718 31.7531 56.7433C31.2098 54.9777 30.8839 53.6467 30.7481 52.6417C28.4936 51.5009 26.1033 50.4415 24.2019 49.0834ZM50.0607 46.2585C53.619 44.5472 54.2709 52.696 52.8585 55.3308C53.0758 56.1185 53.8092 56.4173 54.108 57.1235C52.1251 60.6818 49.9249 63.9957 47.8877 67.4997C49.3817 66.549 51.5547 67.3367 53.3202 66.6305C53.9721 66.386 54.4339 64.8921 54.9228 63.6969C56.281 60.4374 57.6934 56.3087 58.3182 53.2121C58.454 52.5059 58.8614 50.9576 58.7528 50.3329C58.5898 49.192 57.0687 48.35 56.281 47.6709C54.8414 46.3671 53.945 45.2535 52.4239 44.0311C51.8535 44.9275 50.5497 45.5251 50.0607 46.2585ZM16.0802 14.7226C14.3962 16.5968 14.7493 20.0737 14.9394 22.5726C18.0088 20.6441 22.056 22.7356 22.0289 25.9951C23.4956 25.968 22.5721 24.1752 22.3005 23.0072C21.4313 19.2316 23.7673 15.1572 22.4091 11.7076C19.7744 11.9249 17.6285 12.9842 16.0802 14.7226ZM28.1948 3.88472C24.3649 4.97123 19.4484 7.76898 17.873 11.2186C19.0953 11.0285 19.9373 10.4309 21.1325 10.3494C21.5943 10.3223 22.1918 10.5396 22.7079 10.4038C23.7401 10.1321 24.6365 7.79614 25.4242 6.92694C26.1847 6.0849 27.1083 5.70462 27.733 4.94406C28.1405 4.75393 28.738 4.75393 28.7652 4.15635C28.6022 3.96621 28.4121 3.8304 28.1948 3.88472ZM48.1593 4.9169C44.1664 2.6624 37.4301 0.978316 33.1927 3.097C29.7702 4.80825 25.1526 7.63317 23.5771 11.1915C25.0439 14.6411 23.1425 17.792 23.0067 21.296C22.9524 23.1702 23.8759 24.7728 23.9574 26.81C23.4413 27.652 21.9202 27.7335 20.8609 27.6792C20.5078 25.8865 19.883 23.8764 18.036 23.6591C15.4283 23.3603 13.4998 25.5334 13.3911 27.7879C13.2553 30.4498 15.4283 34.8502 18.5249 34.5514C19.72 34.4427 20.0188 33.2476 21.3226 33.2476C22.0289 34.66 20.2361 35.0946 20.046 36.0996C19.9917 36.3713 20.1818 37.3763 20.3176 37.8652C20.888 40.174 22.1375 43.1891 23.3598 44.9547C24.9353 47.2092 28.0046 47.5351 31.3185 47.7524C31.9161 46.4758 34.0891 46.5844 35.5015 46.9104C33.7903 46.2313 32.2149 44.6016 30.9111 43.1619C29.4171 41.505 27.896 39.7394 27.8145 37.5664C30.6666 41.505 33.0026 44.9547 38.1635 46.6931C42.0749 47.9969 46.6382 46.0955 49.6533 43.9768C50.9028 43.1076 51.6362 41.6951 52.5325 40.4457C55.8464 35.665 57.3946 28.8744 57.0687 22.2738C56.9329 19.5576 56.9329 16.8413 56.0093 15.0214C55.0587 13.12 51.8263 11.3816 49.9249 13.12C49.5718 11.2458 51.5004 10.105 53.7549 10.784C52.1523 8.69251 50.4682 6.22071 48.1593 4.9169ZM55.6019 66.3317C58.7256 64.7834 64.5384 62.1758 66.467 66.3317C67.2004 67.88 68.0424 70.4604 68.3955 72.063C68.9116 74.2903 67.8251 79.0166 65.5163 79.75C63.4791 80.4019 61.1159 80.3748 58.6713 79.8858C58.3725 79.6414 58.0737 79.2339 57.8293 78.7993C56.0908 78.745 54.4339 78.8808 53.0758 79.6142C53.2116 80.918 52.3424 81.1082 51.5004 81.3798C50.9028 83.7973 52.7227 86.9481 52.2881 89.1212C51.9893 90.6966 50.0607 90.941 48.6483 91.2127C48.5939 92.0819 48.7026 92.8153 48.8112 93.5487C48.4853 94.7438 47.0457 95.4229 45.6604 95.5859C41.1242 96.1291 34.2521 96.3736 29.906 94.7981C28.6837 91.8103 27.733 88.1976 26.728 84.8023C22.4906 85.2641 19.041 82.9824 15.8086 81.4613C14.6949 80.9452 13.1467 80.6464 12.7121 79.75C12.3046 78.8808 12.4676 77.2239 12.359 75.6756C12.1145 71.6827 11.87 67.8256 10.8378 63.7512C10.3761 61.9042 9.53404 60.3016 8.96362 58.536C8.42037 56.9062 7.49684 54.869 7.25238 53.2393C6.89926 50.8218 9.18092 50.686 10.6205 49.6266C12.875 47.9969 14.6406 47.1005 17.0853 45.6337C17.8187 45.1991 19.9917 44.1126 20.2361 43.5965C20.7251 42.5915 19.3941 41.1791 19.041 40.3913C18.4706 39.1419 18.1718 38.0825 18.0903 36.8602C16.0531 36.5342 14.4776 35.3119 13.5541 33.9538C12.0058 31.6721 10.9193 27.4619 12.2775 24.2839C12.3861 24.0394 12.9022 23.5233 12.9837 23.143C13.1467 22.3825 12.6849 21.3775 12.6577 20.5626C12.5219 16.4067 13.364 12.8212 16.1617 11.5718C17.3026 7.03559 21.377 5.54164 25.2069 3.28714C26.6465 2.4451 28.222 1.90185 29.8517 1.30427C35.6917 -0.841583 44.6825 -0.434143 49.5446 3.23282C51.609 4.78109 54.8957 8.06777 56.0637 10.4581C59.1874 16.7327 58.9429 27.2446 56.7699 34.9045C56.4711 35.9367 56.0637 37.4306 55.4661 38.6801C55.0587 39.5493 53.782 41.2605 53.9178 42.0211C54.0808 42.8088 56.8514 44.9003 57.449 45.4708C58.5083 46.5029 60.5455 47.8611 60.7085 49.1649C60.8986 50.5502 60.1109 52.4516 59.7035 53.7825C58.3997 58.2372 57.0959 62.3388 55.6019 66.3317Z" fill="#231F20"/>
<path d="M34.8227 35.4751C34.9857 35.2578 35.9092 34.9047 37.213 35.5294C37.213 35.5294 35.6648 35.7739 35.8006 38.3544L35.1487 38.2186C35.1758 38.2457 34.4968 35.9097 34.8227 35.4751Z" fill="#F7E4CD"/>
<path d="M46.0674 57.5304C46.0674 57.9107 45.7414 58.2367 45.3611 58.2367C44.9809 58.2367 44.6549 57.9107 44.6549 57.5304C44.6549 57.1502 44.9809 56.8242 45.3611 56.8242C45.7686 56.8242 46.0674 57.1502 46.0674 57.5304Z" fill="#1D1919"/>
<path d="M46.7735 60.8171C46.7735 61.1973 46.4476 61.5233 46.0673 61.5233C45.687 61.5233 45.3611 61.1973 45.3611 60.8171C45.3611 60.4368 45.687 60.1108 46.0673 60.1108C46.4748 60.1108 46.7735 60.4096 46.7735 60.8171Z" fill="#1D1919"/>
</svg>
