<svg width="120" height="120" viewBox="0 0 120 120" fill="none" xmlns="http://www.w3.org/2000/svg">
<path d="M107.109 15.2344C107.109 13.2928 105.535 11.7188 103.594 11.7188H16.4062C14.4647 11.7188 12.8906 13.2928 12.8906 15.2344V116.484C12.8906 118.426 14.4647 120 16.4062 120H103.594C105.535 120 107.109 118.426 107.109 116.484V15.2344Z" fill="#302C3F"/>
<path d="M60 11.7188H16.4062C14.4647 11.7188 12.8906 13.2928 12.8906 15.2344V116.484C12.8906 118.426 14.4647 120 16.4062 120H60V11.7188Z" fill="#302C3F"/>
<path d="M103.594 11.7188H96.3281V3.51562C96.3281 1.57406 94.7541 0 92.8125 0H80.3906C78.4491 0 76.875 1.57406 76.875 3.51562V11.7188H69.8438V3.51562C69.8438 1.57406 68.2697 0 66.3281 0H53.9062C51.9647 0 50.3906 1.57406 50.3906 3.51562V11.7188H43.125V3.51562C43.125 1.57406 41.5509 0 39.6094 0H27.1875C25.2459 0 23.6719 1.57406 23.6719 3.51562V11.7188H16.4062C14.4647 11.7188 12.8906 13.2928 12.8906 15.2344V48.9844H107.109V15.2344C107.109 13.2928 105.535 11.7188 103.594 11.7188Z" fill="#0aacca"/>
<path d="M12.8906 82.7344V116.484C12.8906 118.426 14.4647 120 16.4062 120H103.594C105.535 120 107.109 118.426 107.109 116.484V82.7344H12.8906Z" fill="#0aacca"/>
<path d="M60 0H53.9062C51.9647 0 50.3906 1.57406 50.3906 3.51562V11.7188H43.125V3.51562C43.125 1.57406 41.5509 0 39.6094 0H27.1875C25.2459 0 23.6719 1.57406 23.6719 3.51562V11.7188H16.4062C14.4647 11.7188 12.8906 13.2928 12.8906 15.2344V48.9844H60V0Z" fill="#1dd5df"/>
<path d="M60 82.7344H12.8906V116.484C12.8906 118.426 14.4647 120 16.4062 120H60V82.7344Z" fill="#1dd5df"/>
</svg>
