<svg width="194" height="38" viewBox="0 0 194 38" fill="none" xmlns="http://www.w3.org/2000/svg">
<path d="M123.486 22.8984L116.118 22.8823C114.608 22.8823 113.361 21.657 113.361 20.1576C113.361 18.6744 114.608 17.4491 116.134 17.4491L126.653 17.4652C128.163 17.4652 129.623 18.755 129.623 20.2866L129.607 28.7991C129.607 30.0244 129.328 30.8144 128.688 31.6205C126.079 35.0223 120.335 37.4084 114.542 37.4084C103.761 37.3922 97.5908 31.7978 97.6072 18.755C97.6236 6.13132 103.81 0.0855027 114.592 0.101625C121.156 0.117747 125.422 2.66505 127.638 5.87337C128.064 6.51826 128.228 7.05029 128.228 7.63069C128.228 9.17842 126.916 10.4521 125.291 10.4521C124.536 10.4521 123.781 10.1296 123.076 9.38801C120.86 6.96968 118.53 5.63154 114.575 5.63154C107.371 5.61541 104.106 9.98453 104.106 18.7711C104.089 28.0897 107.338 31.8785 114.542 31.8785C118.546 31.8785 121.369 30.9756 123.486 28.8636V22.8984ZM142.39 27.3965L139.075 35.1029C138.583 36.2153 137.549 37.1182 136.154 37.1182C134.481 37.1182 133.069 35.7317 133.069 34.0872C133.069 33.7648 133.119 33.3456 133.283 32.9748L146.115 2.39098C146.444 1.64935 147.313 0.472435 148.987 0.472435C150.661 0.472435 151.531 1.64935 151.859 2.39098L164.593 33.0231C164.757 33.3939 164.806 33.8292 164.806 34.1356C164.806 35.78 163.395 37.1665 161.721 37.1665C160.31 37.1665 159.293 36.2637 158.8 35.1351L155.502 27.4126L142.39 27.3965ZM148.971 10.581L144.524 21.7537L153.401 21.7698L148.971 10.581ZM175.391 22.8017L175.375 34.0872C175.375 35.7962 173.963 37.1665 172.224 37.1665C170.484 37.1665 169.09 35.78 169.09 34.0711L169.139 4.00319C169.139 2.29424 170.55 0.923856 172.289 0.923856L182.644 0.939979C188.979 0.956101 194.016 4.42237 194 11.8708C193.984 19.2225 189.061 22.8339 182.611 22.8178L175.391 22.8017ZM175.424 6.46989L175.407 17.2718L182.119 17.2879C185.483 17.2879 187.485 15.321 187.485 11.8708C187.485 8.35618 185.434 6.48601 182.136 6.48601L175.424 6.46989ZM10.8799 0.35958L3.29843 0.343458C1.50973 0.343458 0.0492303 1.77833 0.0492303 3.53565L0 34.2323C0 35.9896 1.4605 37.4245 3.2492 37.4406L10.8307 37.4567C21.9895 37.4729 29.0787 32.5717 29.0951 18.9646C29.1115 5.34134 22.0387 0.375702 10.8799 0.35958ZM10.8307 31.7172H6.5148L6.54762 6.08296H10.8635C18.0511 6.09908 22.3669 9.35576 22.3505 18.9485C22.3341 28.5412 18.0183 31.7334 10.8307 31.7172ZM40.0242 15.9981L50.6251 16.0142C52.2005 16.0142 53.4805 17.2879 53.4805 18.8356C53.4805 20.3833 52.1841 21.6409 50.6087 21.6409L40.0078 21.6247L39.9914 31.7656L54.8589 31.7817C56.4835 31.7817 57.7799 33.0554 57.7799 34.6515C57.7799 36.2476 56.4835 37.5212 54.8589 37.5212L36.7422 37.489C34.9535 37.489 33.493 36.0541 33.493 34.2807L33.5422 3.58402C33.5422 1.8267 35.0027 0.391824 36.8078 0.391824L54.3174 0.424069C55.942 0.424069 57.2384 1.69772 57.2384 3.29382C57.2384 4.88991 55.942 6.16357 54.3174 6.16357L40.0406 6.13132L40.0242 15.9981ZM96.5733 6.85682C96.4749 6.64723 96.2616 6.51826 96.0482 6.51826L92.5529 6.5505C92.3231 6.5505 92.1098 6.4054 92.0113 6.19581C91.9293 6.01847 91.8965 5.77663 91.9785 5.51868C92.0606 5.29297 92.2411 5.0995 92.4872 5.0995H93.7344C93.9806 5.0995 94.1939 4.9544 94.2759 4.71257C94.3252 4.56747 94.3416 4.39013 94.2923 4.21278C94.2103 3.97095 93.9806 3.82585 93.7344 3.82585H93.2257C92.9795 3.82585 92.7662 3.66463 92.6677 3.43892C92.6021 3.24545 92.5529 2.9875 92.6349 2.72954C92.717 2.48771 92.9467 2.32649 93.1929 2.32649L94.4893 2.34261C94.9323 2.34261 95.2277 1.85894 95.0144 1.45589C94.6698 0.811001 93.8329 0.0371361 91.8308 0.0210139H89.2873H89.2709C89.2709 0.0210139 89.2709 0.0210139 89.2544 0.0210139C87.6463 0.0371361 86.6452 1.06896 86.3006 1.89119L76.5038 27.2836L66.8055 1.87507C66.4772 0.988345 65.4762 -0.0112305 63.8352 -0.0112305C62.0465 -0.0112305 60.586 1.42364 60.5696 3.18096C60.5696 3.68075 60.6189 4.00319 60.7994 4.39013L73.5008 35.9412C73.9438 37.0376 74.8464 37.9888 76.5202 37.9888C76.6351 37.9888 76.7664 37.9888 76.8648 37.9726C78.6864 37.9726 82.395 38.021 84.4791 37.9888C84.9714 37.9888 85.2012 37.3278 84.8073 37.0214C84.7089 36.9408 84.594 36.9086 84.4463 36.9086H80.1633C79.9499 36.9086 79.7366 36.7957 79.6381 36.5861C79.5561 36.4088 79.5069 36.167 79.671 35.8768C79.7694 35.6833 79.9663 35.5866 80.1797 35.5866H83.396C83.6422 35.5866 83.8719 35.4253 83.954 35.1835C84.0032 35.0384 84.0196 34.8611 83.9704 34.6676C83.8884 34.4258 83.6586 34.2645 83.4125 34.2645H81.1479C80.8525 34.2645 80.6063 34.055 80.5571 33.7648C80.5571 33.7164 80.5407 33.6519 80.5571 33.6035C80.5899 33.3133 80.8525 33.1037 81.1479 33.1037L87.7283 33.1199C87.9252 33.1199 88.1222 33.0231 88.237 32.8297C88.3519 32.6201 88.4339 32.3299 88.237 31.9752C88.1386 31.7978 87.9416 31.685 87.7283 31.685H82.2966C82.0832 31.685 81.9027 31.5721 81.7879 31.3948C81.673 31.1852 81.5909 30.895 81.8043 30.5403C81.9027 30.363 82.0997 30.2662 82.313 30.2662L89.1232 30.2824C89.3693 30.2824 89.5826 30.1373 89.6811 29.8954C89.7303 29.7503 89.7632 29.573 89.6975 29.3795C89.6155 29.1377 89.3857 28.9926 89.1396 28.9926H84.1673C83.954 28.9926 83.7407 28.8797 83.6422 28.6701C83.5437 28.4606 83.4781 28.1704 83.6422 27.8318C83.7407 27.6383 83.9376 27.5255 84.1509 27.5255H87.6463C88.4339 27.5255 89.156 26.9773 89.3365 26.2034C89.4185 25.8326 89.4185 25.4135 89.2052 24.9459C88.9262 24.301 88.3027 23.898 87.6299 23.898H86.3991C86.1858 23.898 85.9724 23.769 85.874 23.5755C85.7755 23.3659 85.7099 23.0596 85.8576 22.7372C85.956 22.5437 86.1529 22.4147 86.3827 22.4147H91.8801C92.1262 22.4147 92.3559 22.2535 92.438 22.0278C92.4872 21.8827 92.5201 21.7054 92.4544 21.5119C92.3888 21.2539 92.1426 21.0927 91.8965 21.0927H87.1704C86.9242 21.0927 86.6945 20.9315 86.6124 20.6897C86.5796 20.5607 86.5468 20.3995 86.5632 20.2544C86.5796 19.948 86.8586 19.7062 87.154 19.7062H90.518C90.7642 19.7062 90.9775 19.5611 91.076 19.3193C91.1416 19.1419 91.1744 18.9162 91.1088 18.6744C91.0267 18.4326 90.797 18.2875 90.5508 18.2875H89.0903C88.8114 18.2875 88.5652 18.0779 88.516 17.8038C88.4504 17.4491 88.7293 17.1105 89.0903 17.1105H92.4052C92.6513 17.1105 92.8811 16.9493 92.9631 16.7075C93.0124 16.5785 93.0288 16.4334 92.9959 16.2722C92.9467 15.9981 92.7006 15.8046 92.4216 15.8046H88.6965C88.4832 15.8046 88.2863 15.6918 88.1878 15.4983C88.0893 15.321 88.0565 15.0791 88.2206 14.7728C88.3191 14.5955 88.516 14.4826 88.7293 14.4826H91.2401C91.7324 14.4826 92.1754 14.2085 92.3724 13.741C92.5201 13.4024 92.5693 12.9349 92.2739 12.4029C92.0606 11.9998 91.6339 11.758 91.1908 11.758H90.436C90.1898 11.758 89.9601 11.5967 89.878 11.3549C89.8288 11.2098 89.8124 11.0325 89.8616 10.8551C89.9273 10.5972 90.1734 10.4198 90.4196 10.4198H94.3088C94.5221 10.4198 94.7354 10.307 94.8175 10.0974C94.8995 9.92004 94.9323 9.69433 94.7846 9.40413C94.6862 9.22678 94.4893 9.11393 94.2759 9.11393H91.3713C91.076 9.11393 90.797 8.8721 90.797 8.56577C90.797 8.48516 90.797 8.40455 90.8298 8.32394C90.9119 8.08211 91.1416 7.93701 91.3878 7.93701H96.0318C96.2616 7.93701 96.4749 7.80803 96.5569 7.59844C96.6554 7.40498 96.7046 7.14702 96.5733 6.85682Z" fill="url(#paint0_linear)"/>
<defs>
<linearGradient id="paint0_linear" x1="0.0230365" y1="18.8864" x2="193.987" y2="19.1775" gradientUnits="userSpaceOnUse">
<stop offset="0.1851" stop-color="#302C3F"/>
<stop offset="0.6598" stop-color="#09a0bc"/>
<stop offset="1" stop-color="#0aacca"/>
</linearGradient>
</defs>
</svg>
