<svg width="358" height="19" viewBox="0 0 358 19" fill="none" xmlns="http://www.w3.org/2000/svg">
<path d="M12.4434 15L12.4254 7.44L8.7174 13.668H7.4034L3.7134 7.602V15H0.977399V2.4H3.3894L8.1054 10.23L12.7494 2.4H15.1434L15.1794 15H12.4434ZM21.8768 5.172C23.3768 5.172 24.5288 5.532 25.3328 6.252C26.1368 6.96 26.5388 8.034 26.5388 9.474V15H23.9108V13.794C23.3828 14.694 22.3988 15.144 20.9588 15.144C20.2148 15.144 19.5668 15.018 19.0148 14.766C18.4748 14.514 18.0608 14.166 17.7728 13.722C17.4848 13.278 17.3408 12.774 17.3408 12.21C17.3408 11.31 17.6768 10.602 18.3488 10.086C19.0328 9.57 20.0828 9.312 21.4988 9.312H23.7308C23.7308 8.7 23.5448 8.232 23.1728 7.908C22.8008 7.572 22.2428 7.404 21.4988 7.404C20.9828 7.404 20.4728 7.488 19.9688 7.656C19.4768 7.812 19.0568 8.028 18.7088 8.304L17.7008 6.342C18.2288 5.97 18.8588 5.682 19.5908 5.478C20.3348 5.274 21.0968 5.172 21.8768 5.172ZM21.6608 13.254C22.1408 13.254 22.5668 13.146 22.9388 12.93C23.3108 12.702 23.5748 12.372 23.7308 11.94V10.95H21.8048C20.6528 10.95 20.0768 11.328 20.0768 12.084C20.0768 12.444 20.2148 12.732 20.4908 12.948C20.7788 13.152 21.1688 13.254 21.6608 13.254ZM29.0802 5.316H31.8882V15H29.0802V5.316ZM30.4842 3.966C29.9682 3.966 29.5482 3.816 29.2242 3.516C28.9002 3.216 28.7382 2.844 28.7382 2.4C28.7382 1.956 28.9002 1.584 29.2242 1.284C29.5482 0.983999 29.9682 0.833999 30.4842 0.833999C31.0002 0.833999 31.4202 0.977999 31.7442 1.266C32.0682 1.554 32.2302 1.914 32.2302 2.346C32.2302 2.814 32.0682 3.204 31.7442 3.516C31.4202 3.816 31.0002 3.966 30.4842 3.966ZM40.3802 5.172C41.5802 5.172 42.5462 5.532 43.2782 6.252C44.0222 6.972 44.3942 8.04 44.3942 9.456V15H41.5862V9.888C41.5862 9.12 41.4182 8.55 41.0822 8.178C40.7462 7.794 40.2602 7.602 39.6242 7.602C38.9162 7.602 38.3522 7.824 37.9322 8.268C37.5122 8.7 37.3022 9.348 37.3022 10.212V15H34.4942V5.316H37.1762V6.45C37.5482 6.042 38.0102 5.73 38.5622 5.514C39.1142 5.286 39.7202 5.172 40.3802 5.172ZM53.1856 14.532C52.9096 14.736 52.5676 14.892 52.1596 15C51.7636 15.096 51.3436 15.144 50.8996 15.144C49.7476 15.144 48.8536 14.85 48.2176 14.262C47.5936 13.674 47.2816 12.81 47.2816 11.67V7.692H45.7876V5.532H47.2816V3.174H50.0896V5.532H52.5016V7.692H50.0896V11.634C50.0896 12.042 50.1916 12.36 50.3956 12.588C50.6116 12.804 50.9116 12.912 51.2956 12.912C51.7396 12.912 52.1176 12.792 52.4296 12.552L53.1856 14.532ZM58.6678 5.172C60.1678 5.172 61.3198 5.532 62.1238 6.252C62.9278 6.96 63.3298 8.034 63.3298 9.474V15H60.7018V13.794C60.1738 14.694 59.1898 15.144 57.7498 15.144C57.0058 15.144 56.3578 15.018 55.8058 14.766C55.2658 14.514 54.8518 14.166 54.5638 13.722C54.2758 13.278 54.1318 12.774 54.1318 12.21C54.1318 11.31 54.4678 10.602 55.1398 10.086C55.8238 9.57 56.8738 9.312 58.2898 9.312H60.5218C60.5218 8.7 60.3358 8.232 59.9638 7.908C59.5918 7.572 59.0338 7.404 58.2898 7.404C57.7738 7.404 57.2638 7.488 56.7598 7.656C56.2678 7.812 55.8478 8.028 55.4998 8.304L54.4918 6.342C55.0198 5.97 55.6498 5.682 56.3818 5.478C57.1258 5.274 57.8878 5.172 58.6678 5.172ZM58.4518 13.254C58.9318 13.254 59.3578 13.146 59.7298 12.93C60.1018 12.702 60.3658 12.372 60.5218 11.94V10.95H58.5958C57.4438 10.95 56.8678 11.328 56.8678 12.084C56.8678 12.444 57.0058 12.732 57.2818 12.948C57.5698 13.152 57.9598 13.254 58.4518 13.254ZM65.8712 5.316H68.6792V15H65.8712V5.316ZM67.2752 3.966C66.7592 3.966 66.3392 3.816 66.0152 3.516C65.6912 3.216 65.5292 2.844 65.5292 2.4C65.5292 1.956 65.6912 1.584 66.0152 1.284C66.3392 0.983999 66.7592 0.833999 67.2752 0.833999C67.7912 0.833999 68.2112 0.977999 68.5352 1.266C68.8592 1.554 69.0212 1.914 69.0212 2.346C69.0212 2.814 68.8592 3.204 68.5352 3.516C68.2112 3.816 67.7912 3.966 67.2752 3.966ZM77.1713 5.172C78.3713 5.172 79.3373 5.532 80.0693 6.252C80.8133 6.972 81.1853 8.04 81.1853 9.456V15H78.3773V9.888C78.3773 9.12 78.2093 8.55 77.8733 8.178C77.5373 7.794 77.0513 7.602 76.4153 7.602C75.7073 7.602 75.1433 7.824 74.7233 8.268C74.3033 8.7 74.0933 9.348 74.0933 10.212V15H71.2853V5.316H73.9673V6.45C74.3393 6.042 74.8013 5.73 75.3533 5.514C75.9053 5.286 76.5113 5.172 77.1713 5.172ZM83.7306 5.316H86.5386V15H83.7306V5.316ZM85.1346 3.966C84.6186 3.966 84.1986 3.816 83.8746 3.516C83.5506 3.216 83.3886 2.844 83.3886 2.4C83.3886 1.956 83.5506 1.584 83.8746 1.284C84.1986 0.983999 84.6186 0.833999 85.1346 0.833999C85.6506 0.833999 86.0706 0.977999 86.3946 1.266C86.7186 1.554 86.8806 1.914 86.8806 2.346C86.8806 2.814 86.7186 3.204 86.3946 3.516C86.0706 3.816 85.6506 3.966 85.1346 3.966ZM95.0306 5.172C96.2306 5.172 97.1966 5.532 97.9286 6.252C98.6726 6.972 99.0446 8.04 99.0446 9.456V15H96.2366V9.888C96.2366 9.12 96.0686 8.55 95.7326 8.178C95.3966 7.794 94.9106 7.602 94.2746 7.602C93.5666 7.602 93.0026 7.824 92.5826 8.268C92.1626 8.7 91.9526 9.348 91.9526 10.212V15H89.1446V5.316H91.8266V6.45C92.1986 6.042 92.6606 5.73 93.2126 5.514C93.7646 5.286 94.3706 5.172 95.0306 5.172ZM111.685 5.316V13.38C111.685 15.156 111.223 16.476 110.299 17.34C109.375 18.204 108.025 18.636 106.249 18.636C105.313 18.636 104.425 18.522 103.585 18.294C102.745 18.066 102.049 17.736 101.497 17.304L102.613 15.288C103.021 15.624 103.537 15.888 104.161 16.08C104.785 16.284 105.409 16.386 106.033 16.386C107.005 16.386 107.719 16.164 108.175 15.72C108.643 15.288 108.877 14.628 108.877 13.74V13.326C108.145 14.13 107.125 14.532 105.817 14.532C104.929 14.532 104.113 14.34 103.369 13.956C102.637 13.56 102.055 13.008 101.623 12.3C101.191 11.592 100.975 10.776 100.975 9.852C100.975 8.928 101.191 8.112 101.623 7.404C102.055 6.696 102.637 6.15 103.369 5.766C104.113 5.37 104.929 5.172 105.817 5.172C107.221 5.172 108.289 5.634 109.021 6.558V5.316H111.685ZM106.375 12.228C107.119 12.228 107.725 12.012 108.193 11.58C108.673 11.136 108.913 10.56 108.913 9.852C108.913 9.144 108.673 8.574 108.193 8.142C107.725 7.698 107.119 7.476 106.375 7.476C105.631 7.476 105.019 7.698 104.539 8.142C104.059 8.574 103.819 9.144 103.819 9.852C103.819 10.56 104.059 11.136 104.539 11.58C105.019 12.012 105.631 12.228 106.375 12.228ZM127.623 15L125.193 11.49H125.049H122.511V15H119.595V2.4H125.049C126.165 2.4 127.131 2.586 127.947 2.958C128.775 3.33 129.411 3.858 129.855 4.542C130.299 5.226 130.521 6.036 130.521 6.972C130.521 7.908 130.293 8.718 129.837 9.402C129.393 10.074 128.757 10.59 127.929 10.95L130.755 15H127.623ZM127.569 6.972C127.569 6.264 127.341 5.724 126.885 5.352C126.429 4.968 125.763 4.776 124.887 4.776H122.511V9.168H124.887C125.763 9.168 126.429 8.976 126.885 8.592C127.341 8.208 127.569 7.668 127.569 6.972ZM136.451 5.172C137.951 5.172 139.103 5.532 139.907 6.252C140.711 6.96 141.113 8.034 141.113 9.474V15H138.485V13.794C137.957 14.694 136.973 15.144 135.533 15.144C134.789 15.144 134.141 15.018 133.589 14.766C133.049 14.514 132.635 14.166 132.347 13.722C132.059 13.278 131.915 12.774 131.915 12.21C131.915 11.31 132.251 10.602 132.923 10.086C133.607 9.57 134.657 9.312 136.073 9.312H138.305C138.305 8.7 138.119 8.232 137.747 7.908C137.375 7.572 136.817 7.404 136.073 7.404C135.557 7.404 135.047 7.488 134.543 7.656C134.051 7.812 133.631 8.028 133.283 8.304L132.275 6.342C132.803 5.97 133.433 5.682 134.165 5.478C134.909 5.274 135.671 5.172 136.451 5.172ZM136.235 13.254C136.715 13.254 137.141 13.146 137.513 12.93C137.885 12.702 138.149 12.372 138.305 11.94V10.95H136.379C135.227 10.95 134.651 11.328 134.651 12.084C134.651 12.444 134.789 12.732 135.065 12.948C135.353 13.152 135.743 13.254 136.235 13.254ZM143.654 5.316H146.462V15H143.654V5.316ZM145.058 3.966C144.542 3.966 144.122 3.816 143.798 3.516C143.474 3.216 143.312 2.844 143.312 2.4C143.312 1.956 143.474 1.584 143.798 1.284C144.122 0.983999 144.542 0.833999 145.058 0.833999C145.574 0.833999 145.994 0.977999 146.318 1.266C146.642 1.554 146.804 1.914 146.804 2.346C146.804 2.814 146.642 3.204 146.318 3.516C145.994 3.816 145.574 3.966 145.058 3.966ZM149.068 1.644H151.876V15H149.068V1.644ZM157.741 15.144C156.937 15.144 156.151 15.048 155.383 14.856C154.615 14.652 154.003 14.4 153.547 14.1L154.483 12.084C154.915 12.36 155.437 12.588 156.049 12.768C156.661 12.936 157.261 13.02 157.849 13.02C159.037 13.02 159.631 12.726 159.631 12.138C159.631 11.862 159.469 11.664 159.145 11.544C158.821 11.424 158.323 11.322 157.651 11.238C156.859 11.118 156.205 10.98 155.689 10.824C155.173 10.668 154.723 10.392 154.339 9.996C153.967 9.6 153.781 9.036 153.781 8.304C153.781 7.692 153.955 7.152 154.303 6.684C154.663 6.204 155.179 5.832 155.851 5.568C156.535 5.304 157.339 5.172 158.263 5.172C158.947 5.172 159.625 5.25 160.297 5.406C160.981 5.55 161.545 5.754 161.989 6.018L161.053 8.016C160.201 7.536 159.271 7.296 158.263 7.296C157.663 7.296 157.213 7.38 156.913 7.548C156.613 7.716 156.463 7.932 156.463 8.196C156.463 8.496 156.625 8.706 156.949 8.826C157.273 8.946 157.789 9.06 158.497 9.168C159.289 9.3 159.937 9.444 160.441 9.6C160.945 9.744 161.383 10.014 161.755 10.41C162.127 10.806 162.313 11.358 162.313 12.066C162.313 12.666 162.133 13.2 161.773 13.668C161.413 14.136 160.885 14.502 160.189 14.766C159.505 15.018 158.689 15.144 157.741 15.144ZM169.143 5.316H171.951V15H169.143V5.316ZM170.547 3.966C170.031 3.966 169.611 3.816 169.287 3.516C168.963 3.216 168.801 2.844 168.801 2.4C168.801 1.956 168.963 1.584 169.287 1.284C169.611 0.983999 170.031 0.833999 170.547 0.833999C171.063 0.833999 171.483 0.977999 171.807 1.266C172.131 1.554 172.293 1.914 172.293 2.346C172.293 2.814 172.131 3.204 171.807 3.516C171.483 3.816 171.063 3.966 170.547 3.966ZM180.443 5.172C181.643 5.172 182.609 5.532 183.341 6.252C184.085 6.972 184.457 8.04 184.457 9.456V15H181.649V9.888C181.649 9.12 181.481 8.55 181.145 8.178C180.809 7.794 180.323 7.602 179.687 7.602C178.979 7.602 178.415 7.824 177.995 8.268C177.575 8.7 177.365 9.348 177.365 10.212V15H174.557V5.316H177.239V6.45C177.611 6.042 178.073 5.73 178.625 5.514C179.177 5.286 179.783 5.172 180.443 5.172ZM196.006 5.172C197.506 5.172 198.658 5.532 199.462 6.252C200.266 6.96 200.668 8.034 200.668 9.474V15H198.04V13.794C197.512 14.694 196.528 15.144 195.088 15.144C194.344 15.144 193.696 15.018 193.144 14.766C192.604 14.514 192.19 14.166 191.902 13.722C191.614 13.278 191.47 12.774 191.47 12.21C191.47 11.31 191.806 10.602 192.478 10.086C193.162 9.57 194.212 9.312 195.628 9.312H197.86C197.86 8.7 197.674 8.232 197.302 7.908C196.93 7.572 196.372 7.404 195.628 7.404C195.112 7.404 194.602 7.488 194.098 7.656C193.606 7.812 193.186 8.028 192.838 8.304L191.83 6.342C192.358 5.97 192.988 5.682 193.72 5.478C194.464 5.274 195.226 5.172 196.006 5.172ZM195.79 13.254C196.27 13.254 196.696 13.146 197.068 12.93C197.44 12.702 197.704 12.372 197.86 11.94V10.95H195.934C194.782 10.95 194.206 11.328 194.206 12.084C194.206 12.444 194.344 12.732 194.62 12.948C194.908 13.152 195.298 13.254 195.79 13.254ZM208.505 2.4H211.421V12.624H217.739V15H208.505V2.4ZM223.181 5.172C224.681 5.172 225.833 5.532 226.637 6.252C227.441 6.96 227.843 8.034 227.843 9.474V15H225.215V13.794C224.687 14.694 223.703 15.144 222.263 15.144C221.519 15.144 220.871 15.018 220.319 14.766C219.779 14.514 219.365 14.166 219.077 13.722C218.789 13.278 218.645 12.774 218.645 12.21C218.645 11.31 218.981 10.602 219.653 10.086C220.337 9.57 221.387 9.312 222.803 9.312H225.035C225.035 8.7 224.849 8.232 224.477 7.908C224.105 7.572 223.547 7.404 222.803 7.404C222.287 7.404 221.777 7.488 221.273 7.656C220.781 7.812 220.361 8.028 220.013 8.304L219.005 6.342C219.533 5.97 220.163 5.682 220.895 5.478C221.639 5.274 222.401 5.172 223.181 5.172ZM222.965 13.254C223.445 13.254 223.871 13.146 224.243 12.93C224.615 12.702 224.879 12.372 225.035 11.94V10.95H223.109C221.957 10.95 221.381 11.328 221.381 12.084C221.381 12.444 221.519 12.732 221.795 12.948C222.083 13.152 222.473 13.254 222.965 13.254ZM233.067 6.594C233.403 6.126 233.853 5.772 234.417 5.532C234.993 5.292 235.653 5.172 236.397 5.172V7.764C236.085 7.74 235.875 7.728 235.767 7.728C234.963 7.728 234.333 7.956 233.877 8.412C233.421 8.856 233.193 9.528 233.193 10.428V15H230.385V5.316H233.067V6.594ZM247.969 5.316V13.38C247.969 15.156 247.507 16.476 246.583 17.34C245.659 18.204 244.309 18.636 242.533 18.636C241.597 18.636 240.709 18.522 239.869 18.294C239.029 18.066 238.333 17.736 237.781 17.304L238.897 15.288C239.305 15.624 239.821 15.888 240.445 16.08C241.069 16.284 241.693 16.386 242.317 16.386C243.289 16.386 244.003 16.164 244.459 15.72C244.927 15.288 245.161 14.628 245.161 13.74V13.326C244.429 14.13 243.409 14.532 242.101 14.532C241.213 14.532 240.397 14.34 239.653 13.956C238.921 13.56 238.339 13.008 237.907 12.3C237.475 11.592 237.259 10.776 237.259 9.852C237.259 8.928 237.475 8.112 237.907 7.404C238.339 6.696 238.921 6.15 239.653 5.766C240.397 5.37 241.213 5.172 242.101 5.172C243.505 5.172 244.573 5.634 245.305 6.558V5.316H247.969ZM242.659 12.228C243.403 12.228 244.009 12.012 244.477 11.58C244.957 11.136 245.197 10.56 245.197 9.852C245.197 9.144 244.957 8.574 244.477 8.142C244.009 7.698 243.403 7.476 242.659 7.476C241.915 7.476 241.303 7.698 240.823 8.142C240.343 8.574 240.103 9.144 240.103 9.852C240.103 10.56 240.343 11.136 240.823 11.58C241.303 12.012 241.915 12.228 242.659 12.228ZM260.068 10.194C260.068 10.23 260.05 10.482 260.014 10.95H252.688C252.82 11.55 253.132 12.024 253.624 12.372C254.116 12.72 254.728 12.894 255.46 12.894C255.964 12.894 256.408 12.822 256.792 12.678C257.188 12.522 257.554 12.282 257.89 11.958L259.384 13.578C258.472 14.622 257.14 15.144 255.388 15.144C254.296 15.144 253.33 14.934 252.49 14.514C251.65 14.082 251.002 13.488 250.546 12.732C250.09 11.976 249.862 11.118 249.862 10.158C249.862 9.21 250.084 8.358 250.528 7.602C250.984 6.834 251.602 6.24 252.382 5.82C253.174 5.388 254.056 5.172 255.028 5.172C255.976 5.172 256.834 5.376 257.602 5.784C258.37 6.192 258.97 6.78 259.402 7.548C259.846 8.304 260.068 9.186 260.068 10.194ZM255.046 7.296C254.41 7.296 253.876 7.476 253.444 7.836C253.012 8.196 252.748 8.688 252.652 9.312H257.422C257.326 8.7 257.062 8.214 256.63 7.854C256.198 7.482 255.67 7.296 255.046 7.296ZM273.263 15.216C271.979 15.216 270.815 14.94 269.771 14.388C268.739 13.824 267.923 13.05 267.323 12.066C266.735 11.07 266.441 9.948 266.441 8.7C266.441 7.452 266.735 6.336 267.323 5.352C267.923 4.356 268.739 3.582 269.771 3.03C270.815 2.466 271.985 2.184 273.281 2.184C274.373 2.184 275.357 2.376 276.233 2.76C277.121 3.144 277.865 3.696 278.465 4.416L276.593 6.144C275.741 5.16 274.685 4.668 273.425 4.668C272.645 4.668 271.949 4.842 271.337 5.19C270.725 5.526 270.245 6 269.897 6.612C269.561 7.224 269.393 7.92 269.393 8.7C269.393 9.48 269.561 10.176 269.897 10.788C270.245 11.4 270.725 11.88 271.337 12.228C271.949 12.564 272.645 12.732 273.425 12.732C274.685 12.732 275.741 12.234 276.593 11.238L278.465 12.966C277.865 13.698 277.121 14.256 276.233 14.64C275.345 15.024 274.355 15.216 273.263 15.216ZM284.51 15.144C283.49 15.144 282.572 14.934 281.756 14.514C280.952 14.082 280.322 13.488 279.866 12.732C279.41 11.976 279.182 11.118 279.182 10.158C279.182 9.198 279.41 8.34 279.866 7.584C280.322 6.828 280.952 6.24 281.756 5.82C282.572 5.388 283.49 5.172 284.51 5.172C285.53 5.172 286.442 5.388 287.246 5.82C288.05 6.24 288.68 6.828 289.136 7.584C289.592 8.34 289.82 9.198 289.82 10.158C289.82 11.118 289.592 11.976 289.136 12.732C288.68 13.488 288.05 14.082 287.246 14.514C286.442 14.934 285.53 15.144 284.51 15.144ZM284.51 12.84C285.23 12.84 285.818 12.6 286.274 12.12C286.742 11.628 286.976 10.974 286.976 10.158C286.976 9.342 286.742 8.694 286.274 8.214C285.818 7.722 285.23 7.476 284.51 7.476C283.79 7.476 283.196 7.722 282.728 8.214C282.26 8.694 282.026 9.342 282.026 10.158C282.026 10.974 282.26 11.628 282.728 12.12C283.196 12.6 283.79 12.84 284.51 12.84ZM301.561 1.644V15H298.879V13.884C298.183 14.724 297.175 15.144 295.855 15.144C294.943 15.144 294.115 14.94 293.371 14.532C292.639 14.124 292.063 13.542 291.643 12.786C291.223 12.03 291.013 11.154 291.013 10.158C291.013 9.162 291.223 8.286 291.643 7.53C292.063 6.774 292.639 6.192 293.371 5.784C294.115 5.376 294.943 5.172 295.855 5.172C297.091 5.172 298.057 5.562 298.753 6.342V1.644H301.561ZM296.341 12.84C297.049 12.84 297.637 12.6 298.105 12.12C298.573 11.628 298.807 10.974 298.807 10.158C298.807 9.342 298.573 8.694 298.105 8.214C297.637 7.722 297.049 7.476 296.341 7.476C295.621 7.476 295.027 7.722 294.559 8.214C294.091 8.694 293.857 9.342 293.857 10.158C293.857 10.974 294.091 11.628 294.559 12.12C295.027 12.6 295.621 12.84 296.341 12.84ZM313.646 10.194C313.646 10.23 313.628 10.482 313.592 10.95H306.266C306.398 11.55 306.71 12.024 307.202 12.372C307.694 12.72 308.306 12.894 309.038 12.894C309.542 12.894 309.986 12.822 310.37 12.678C310.766 12.522 311.132 12.282 311.468 11.958L312.962 13.578C312.05 14.622 310.718 15.144 308.966 15.144C307.874 15.144 306.908 14.934 306.068 14.514C305.228 14.082 304.58 13.488 304.124 12.732C303.668 11.976 303.44 11.118 303.44 10.158C303.44 9.21 303.662 8.358 304.106 7.602C304.562 6.834 305.18 6.24 305.96 5.82C306.752 5.388 307.634 5.172 308.606 5.172C309.554 5.172 310.412 5.376 311.18 5.784C311.948 6.192 312.548 6.78 312.98 7.548C313.424 8.304 313.646 9.186 313.646 10.194ZM308.624 7.296C307.988 7.296 307.454 7.476 307.022 7.836C306.59 8.196 306.326 8.688 306.23 9.312H311C310.904 8.7 310.64 8.214 310.208 7.854C309.776 7.482 309.248 7.296 308.624 7.296ZM321.24 5.172C322.14 5.172 322.956 5.382 323.688 5.802C324.432 6.21 325.014 6.792 325.434 7.548C325.854 8.292 326.064 9.162 326.064 10.158C326.064 11.154 325.854 12.03 325.434 12.786C325.014 13.53 324.432 14.112 323.688 14.532C322.956 14.94 322.14 15.144 321.24 15.144C319.908 15.144 318.894 14.724 318.198 13.884V15H315.516V1.644H318.324V6.342C319.032 5.562 320.004 5.172 321.24 5.172ZM320.754 12.84C321.474 12.84 322.062 12.6 322.518 12.12C322.986 11.628 323.22 10.974 323.22 10.158C323.22 9.342 322.986 8.694 322.518 8.214C322.062 7.722 321.474 7.476 320.754 7.476C320.034 7.476 319.44 7.722 318.972 8.214C318.516 8.694 318.288 9.342 318.288 10.158C318.288 10.974 318.516 11.628 318.972 12.12C319.44 12.6 320.034 12.84 320.754 12.84ZM331.691 5.172C333.191 5.172 334.343 5.532 335.147 6.252C335.951 6.96 336.353 8.034 336.353 9.474V15H333.725V13.794C333.197 14.694 332.213 15.144 330.773 15.144C330.029 15.144 329.381 15.018 328.829 14.766C328.289 14.514 327.875 14.166 327.587 13.722C327.299 13.278 327.155 12.774 327.155 12.21C327.155 11.31 327.491 10.602 328.163 10.086C328.847 9.57 329.897 9.312 331.313 9.312H333.545C333.545 8.7 333.359 8.232 332.987 7.908C332.615 7.572 332.057 7.404 331.313 7.404C330.797 7.404 330.287 7.488 329.783 7.656C329.291 7.812 328.871 8.028 328.523 8.304L327.515 6.342C328.043 5.97 328.673 5.682 329.405 5.478C330.149 5.274 330.911 5.172 331.691 5.172ZM331.475 13.254C331.955 13.254 332.381 13.146 332.753 12.93C333.125 12.702 333.389 12.372 333.545 11.94V10.95H331.619C330.467 10.95 329.891 11.328 329.891 12.084C329.891 12.444 330.029 12.732 330.305 12.948C330.593 13.152 330.983 13.254 331.475 13.254ZM342.153 15.144C341.349 15.144 340.563 15.048 339.795 14.856C339.027 14.652 338.415 14.4 337.959 14.1L338.895 12.084C339.327 12.36 339.849 12.588 340.461 12.768C341.073 12.936 341.673 13.02 342.261 13.02C343.449 13.02 344.043 12.726 344.043 12.138C344.043 11.862 343.881 11.664 343.557 11.544C343.233 11.424 342.735 11.322 342.063 11.238C341.271 11.118 340.617 10.98 340.101 10.824C339.585 10.668 339.135 10.392 338.751 9.996C338.379 9.6 338.193 9.036 338.193 8.304C338.193 7.692 338.367 7.152 338.715 6.684C339.075 6.204 339.591 5.832 340.263 5.568C340.947 5.304 341.751 5.172 342.675 5.172C343.359 5.172 344.037 5.25 344.709 5.406C345.393 5.55 345.957 5.754 346.401 6.018L345.465 8.016C344.613 7.536 343.683 7.296 342.675 7.296C342.075 7.296 341.625 7.38 341.325 7.548C341.025 7.716 340.875 7.932 340.875 8.196C340.875 8.496 341.037 8.706 341.361 8.826C341.685 8.946 342.201 9.06 342.909 9.168C343.701 9.3 344.349 9.444 344.853 9.6C345.357 9.744 345.795 10.014 346.167 10.41C346.539 10.806 346.725 11.358 346.725 12.066C346.725 12.666 346.545 13.2 346.185 13.668C345.825 14.136 345.297 14.502 344.601 14.766C343.917 15.018 343.101 15.144 342.153 15.144ZM357.943 10.194C357.943 10.23 357.925 10.482 357.889 10.95H350.563C350.695 11.55 351.007 12.024 351.499 12.372C351.991 12.72 352.603 12.894 353.335 12.894C353.839 12.894 354.283 12.822 354.667 12.678C355.063 12.522 355.429 12.282 355.765 11.958L357.259 13.578C356.347 14.622 355.015 15.144 353.263 15.144C352.171 15.144 351.205 14.934 350.365 14.514C349.525 14.082 348.877 13.488 348.421 12.732C347.965 11.976 347.737 11.118 347.737 10.158C347.737 9.21 347.959 8.358 348.403 7.602C348.859 6.834 349.477 6.24 350.257 5.82C351.049 5.388 351.931 5.172 352.903 5.172C353.851 5.172 354.709 5.376 355.477 5.784C356.245 6.192 356.845 6.78 357.277 7.548C357.721 8.304 357.943 9.186 357.943 10.194ZM352.921 7.296C352.285 7.296 351.751 7.476 351.319 7.836C350.887 8.196 350.623 8.688 350.527 9.312H355.297C355.201 8.7 354.937 8.214 354.505 7.854C354.073 7.482 353.545 7.296 352.921 7.296Z" fill="#302C3F"/>
</svg>
