<svg width="120" height="120" viewBox="0 0 120 120" fill="none" xmlns="http://www.w3.org/2000/svg">
<g clip-path="url(#clip0)">
<path d="M54.1487 109.299C50.918 106.068 50.918 100.829 54.1487 97.5968L24.8872 68.3353L54.1487 97.5968C55.6994 96.042 57.8048 95.1702 60 95.1722V59.9998C50.4987 59.9846 41.1783 62.5991 33.0701 67.5533C41.1783 62.5991 50.4987 59.9846 60 59.9998V20.6895H0V120H60V111.724C57.8048 111.726 55.6994 110.854 54.1487 109.299ZM8.27586 111.724C8.25667 98.3302 13.4513 85.4548 22.7586 75.8231C13.4513 85.4548 8.25667 98.3302 8.27586 111.724Z" fill="#1dd5df"/>
<path d="M120 20.6895H60V59.9998C88.5665 59.9998 111.724 83.1575 111.724 111.724C111.724 83.1575 88.5665 59.9998 60 59.9998V95.1722C64.5703 95.1722 68.2759 98.8778 68.2759 103.448C68.2759 108.018 64.5703 111.724 60 111.724V120H120V20.6895Z" fill="#0aacca"/>
<path d="M0 20.6897H120V0H0V20.6897ZM109.655 8.27586C110.798 8.27586 111.724 9.20225 111.724 10.3448C111.724 11.4874 110.798 12.4138 109.655 12.4138C108.513 12.4138 107.586 11.4874 107.586 10.3448C107.586 9.20225 108.513 8.27586 109.655 8.27586ZM97.2414 8.27586C98.384 8.27586 99.3103 9.20225 99.3103 10.3448C99.3103 11.4874 98.384 12.4138 97.2414 12.4138C96.0988 12.4138 95.1724 11.4874 95.1724 10.3448C95.1724 9.20225 96.0988 8.27586 97.2414 8.27586ZM84.8276 8.27586C85.9702 8.27586 86.8965 9.20225 86.8965 10.3448C86.8965 11.4874 85.9702 12.4138 84.8276 12.4138C83.685 12.4138 82.7586 11.4874 82.7586 10.3448C82.7586 9.20225 83.685 8.27586 84.8276 8.27586Z" fill="#302C3F"/>
<path d="M99.3103 10.3448C99.3103 11.4874 98.3839 12.4138 97.2413 12.4138C96.0988 12.4138 95.1724 11.4874 95.1724 10.3448C95.1724 9.20227 96.0988 8.27588 97.2413 8.27588C98.3839 8.27588 99.3103 9.20227 99.3103 10.3448Z" fill="#78B9EB"/>
<path d="M111.724 10.3448C111.724 11.4874 110.798 12.4138 109.655 12.4138C108.513 12.4138 107.586 11.4874 107.586 10.3448C107.586 9.20227 108.513 8.27588 109.655 8.27588C110.798 8.27588 111.724 9.20227 111.724 10.3448Z" fill="#78B9EB"/>
<path d="M86.8967 10.3448C86.8967 11.4874 85.9703 12.4138 84.8278 12.4138C83.6852 12.4138 82.7588 11.4874 82.7588 10.3448C82.7588 9.20227 83.6852 8.27588 84.8278 8.27588C85.9703 8.27588 86.8967 9.20227 86.8967 10.3448Z" fill="#78B9EB"/>
<path d="M68.2758 103.448C68.2758 108.019 64.5703 111.724 60 111.724C55.4297 111.724 51.7241 108.019 51.7241 103.448C51.7241 98.8779 55.4297 95.1724 60 95.1724C64.5703 95.1724 68.2758 98.8779 68.2758 103.448Z" fill="#1dd5df"/>
<path d="M101.379 10.345C101.379 12.6301 99.5266 14.4829 97.2414 14.4829C94.9563 14.4829 93.1035 12.6301 93.1035 10.345C93.1035 8.05981 94.9563 6.20703 97.2414 6.20703C99.5266 6.20703 101.379 8.05981 101.379 10.345Z" fill="#1dd5df"/>
<path d="M113.793 10.345C113.793 12.6301 111.94 14.4829 109.655 14.4829C107.37 14.4829 105.517 12.6301 105.517 10.345C105.517 8.05981 107.37 6.20703 109.655 6.20703C111.94 6.20703 113.793 8.05981 113.793 10.345Z" fill="#1dd5df"/>
<path d="M88.9653 10.345C88.9653 12.6301 87.1125 14.4829 84.8274 14.4829C82.5422 14.4829 80.6895 12.6301 80.6895 10.345C80.6895 8.05981 82.5422 6.20703 84.8274 6.20703C87.1125 6.20703 88.9653 8.05981 88.9653 10.345Z" fill="#1dd5df"/>
<path d="M51.3702 97.7441C48.7557 101.698 49.1648 106.923 52.3612 110.424C55.5576 113.924 60.725 114.804 64.8993 112.559C69.0746 110.313 71.189 105.518 70.0313 100.921C68.8736 96.3247 64.7397 93.103 59.9996 93.103C57.9701 93.098 55.985 93.695 54.2958 94.8184L26.3496 66.8722C25.8304 66.3348 25.0616 66.1196 24.3383 66.3085C23.6149 66.4974 23.0492 67.0632 22.8603 67.7865C22.6714 68.5098 22.8866 69.2786 23.424 69.7979L51.3702 97.7441ZM64.3881 99.0574C66.8137 101.482 66.8137 105.414 64.3881 107.838C61.9312 110.18 58.0681 110.18 55.6112 107.838C53.1866 105.415 53.1856 101.484 55.6091 99.0594C58.0327 96.6348 61.9635 96.6338 64.3881 99.0574Z" fill="#302C3F"/>
<path d="M34.1507 69.3107C49.483 59.9721 68.6614 59.6336 84.313 68.4257C99.9646 77.2178 109.654 93.7726 109.656 111.724C109.656 112.867 110.582 113.793 111.725 113.793C112.867 113.793 113.794 112.867 113.794 111.724C113.788 92.2774 103.288 74.3477 86.3314 64.8273C69.3746 55.3058 48.6001 55.6755 31.9928 65.793C31.1149 66.4265 30.8735 67.6307 31.4402 68.554C32.0059 69.4764 33.1879 69.8067 34.1507 69.3107Z" fill="#302C3F"/>
<path d="M8.27562 113.792C9.4182 113.792 10.3446 112.866 10.3446 111.723C10.3193 98.8632 15.3079 86.4999 24.2525 77.2582C25.0092 76.4309 24.9688 75.1499 24.1606 74.372C23.3534 73.5931 22.0714 73.6012 21.2733 74.3892C11.5831 84.3986 6.17837 97.7923 6.20665 111.723C6.20665 112.866 7.13304 113.792 8.27562 113.792Z" fill="#302C3F"/>
</g>
<defs>
<clipPath id="clip0">
<rect width="120" height="120" fill="white"/>
</clipPath>
</defs>
</svg>
