<svg width="120" height="120" viewBox="0 0 120 120" fill="none" xmlns="http://www.w3.org/2000/svg">
<path d="M105.938 77.578H102.422C100.479 77.578 98.9062 76.0056 98.9062 74.0624C98.9062 72.1192 100.479 70.5468 102.422 70.5468H105.938C109.814 70.5468 112.969 67.3916 112.969 63.5155C112.969 61.6375 112.237 59.8729 110.909 58.5442C109.536 57.171 109.536 54.9461 110.909 53.5729C112.282 52.1997 114.507 52.1997 115.88 53.5729C118.537 56.2302 120 59.7597 120 63.5155C120 71.2712 113.693 77.578 105.938 77.578Z" fill="#0aacca"/>
<path d="M67.0312 35.1562H49.4531C47.2734 35.1562 45.0938 35.367 42.633 35.8591C37.9922 30.9373 31.3596 28.125 24.6094 28.125C22.6404 28.125 21.0938 29.6716 21.0938 31.6406V47.6953C16.8752 52.1953 13.7815 57.6091 12.0935 63.5156H10.5469C4.7107 63.5156 0 68.2263 0 74.0625V81.0938C0 86.9295 4.7107 91.6406 10.5469 91.6406C10.5469 91.6406 12.9377 91.6406 14.7654 91.6406C17.1562 96.3513 20.531 100.734 24.6094 104.109C24.6094 108.82 24.6094 116.484 24.6094 116.484C24.6094 118.453 26.156 120 28.125 120H42.4219C44.3909 120 45.9375 118.453 45.9375 116.484V112.828C47.1326 112.898 48.258 112.969 49.4531 112.969H67.0312V116.484C67.0312 118.453 68.5779 120 70.5469 120H84.6094C86.5784 120 88.125 118.453 88.125 116.484V106.711C99.0234 99.6094 105.938 87.1406 105.938 74.0625C105.938 52.7576 88.3362 35.1562 67.0312 35.1562Z" fill="#1dd5df"/>
<path d="M105.938 74.0625C105.938 87.1406 99.0234 99.6091 88.125 106.711V116.484C88.125 118.453 86.5784 120 84.6094 120H70.5469C68.5779 120 67.0312 118.453 67.0312 116.484V112.969H60V35.1562H67.0312C88.3362 35.1562 105.938 52.7576 105.938 74.0625Z" fill="#0aacca"/>
<path d="M28.0905 70.6155C26.1473 70.6155 24.5371 69.0089 24.5371 67.0657C24.5371 65.1225 26.147 63.5156 28.0905 63.5156C30.0339 63.5156 31.6403 65.1223 31.6403 67.0655C31.6403 69.0087 30.0337 70.6155 28.0905 70.6155ZM31.5681 67.0655H31.6368H31.5681ZM28.0905 67.0655H28.1591H28.0905Z" fill="#302C3F"/>
<path d="M60 35.1562C50.3079 35.1562 42.4219 27.2702 42.4219 17.5781C42.4219 7.88602 50.3079 0 60 0C69.6921 0 77.5781 7.88602 77.5781 17.5781C77.5781 27.2702 69.6921 35.1562 60 35.1562Z" fill="#302C3F"/>
<path d="M74.0625 56.4844H45.9375C43.9943 56.4844 42.4219 54.912 42.4219 52.9688C42.4219 51.0255 43.9943 49.4531 45.9375 49.4531H74.0625C76.0057 49.4531 77.5781 51.0255 77.5781 52.9688C77.5781 54.912 76.0057 56.4844 74.0625 56.4844Z" fill="#302C3F"/>
<path d="M74.0625 49.4531H60V56.4844H74.0625C76.0057 56.4844 77.5781 54.912 77.5781 52.9688C77.5781 51.0255 76.0057 49.4531 74.0625 49.4531Z" fill="#302C3F"/>
<path d="M77.5781 17.5781C77.5781 7.88602 69.6921 0 60 0V35.1562C69.6921 35.1562 77.5781 27.2702 77.5781 17.5781Z" fill="#302C3F"/>
</svg>
