<svg width="120" height="120" viewBox="0 0 120 120" fill="none" xmlns="http://www.w3.org/2000/svg">
<g clip-path="url(#clip0)">
<path d="M98.0811 34.8557C94.8587 22.8649 87.152 12.7987 76.3544 6.48607C65.4709 0.123743 52.8042 -1.63055 40.6877 1.54522C28.571 4.72194 18.3945 12.4647 12.0321 23.3484C5.66956 34.2316 3.91527 46.8983 7.09128 59.0148L7.15128 59.2443L20.553 93.8379V120H73.9138V99.4756H100.907V77.5627L114.453 74.1765L98.0811 34.8557Z" fill="#1dd5df"/>
<path d="M98.0813 34.8559C94.8588 22.8651 87.1521 12.7989 76.3545 6.48628C69.1543 2.27738 61.1738 0.0871483 53.0884 0.00488281V120H73.914V99.4763H100.908V77.5634L114.453 74.1772L98.0813 34.8559Z" fill="#0aacca"/>
<path d="M32.2155 33.6133C31.5993 32.9102 30.8591 32.3507 30.0159 31.9502C29.1693 31.5491 28.2379 31.3457 27.247 31.3457C26.2558 31.3457 25.3242 31.5491 24.4778 31.9504C23.6345 32.3505 22.8946 32.9097 22.2782 33.6133C21.6635 34.3143 21.1767 35.1555 20.8317 36.1133C20.4876 37.0677 20.313 38.1262 20.313 39.2594C20.313 40.3926 20.4874 41.451 20.8317 42.4054C21.1767 43.3633 21.6632 44.2044 22.2782 44.9057C22.8956 45.61 23.6364 46.1659 24.4802 46.5571C25.3253 46.9492 26.2563 47.1482 27.2472 47.1482C28.2379 47.1482 29.1686 46.9494 30.0142 46.5571C30.858 46.1657 31.5988 45.6097 32.2162 44.9057C32.8309 44.2044 33.3175 43.363 33.6627 42.4054C34.007 41.4498 34.1819 40.3916 34.1819 39.2594C34.1819 38.1271 34.0073 37.0689 33.6627 36.1133C33.3168 35.1555 32.83 34.3143 32.2155 33.6133ZM26.1203 37.0368C26.4126 36.5233 26.781 36.2739 27.2465 36.2739C27.6782 36.2739 28.0302 36.5237 28.3225 37.0368C28.6398 37.5948 28.8009 38.3427 28.8009 39.2596C28.8009 40.1762 28.6401 40.9194 28.3237 41.4683C28.0312 41.9744 27.6789 42.2204 27.2465 42.2204C26.7803 42.2204 26.4114 41.9744 26.1192 41.4681C25.8025 40.9201 25.642 40.1772 25.642 39.2594C25.6422 38.3418 25.803 37.5939 26.1203 37.0368Z" fill="#302C3F"/>
<path d="M47.9429 31.9995H42.6191L42.542 32.1542C42.486 32.2665 42.3381 32.4659 41.9513 32.7769C41.6199 33.0437 41.2473 33.2977 40.8435 33.5314C40.4378 33.7669 40.026 33.9729 39.6198 34.1433C39.1435 34.3435 38.8831 34.3852 38.7484 34.3852H38.4692V39.3132H38.7484C39.0882 39.3132 39.4742 39.2595 39.8956 39.154C40.3105 39.0502 40.726 38.9105 41.1301 38.7382C41.5339 38.5667 41.9049 38.3785 42.2328 38.1802C42.3329 38.1197 42.4262 38.0581 42.5124 37.9953V42.0701H38.9464V46.8975H51.1323V42.0701H47.9424V31.9995H47.9429Z" fill="#302C3F"/>
<path d="M56.3969 39.155C56.8112 39.0512 57.227 38.9115 57.6313 38.7392C58.0354 38.5677 58.4062 38.3795 58.7338 38.1812C58.8339 38.1207 58.9272 38.0591 59.0134 37.9963V42.0711H55.4474V46.8985H67.6333V42.0711H64.4439V32.0005H59.1203L59.043 32.1552C58.9869 32.2674 58.8393 32.4669 58.4523 32.7779C58.1209 33.0446 57.749 33.2987 57.3449 33.5324C56.939 33.7679 56.5274 33.9739 56.1208 34.1443C55.645 34.3445 55.3844 34.3862 55.2498 34.3862H54.9707V39.3141H55.2498C55.589 39.3141 55.9755 39.2605 56.3969 39.155Z" fill="#302C3F"/>
<path d="M75.6618 46.5578C76.507 46.9499 77.4379 47.1489 78.4288 47.1489C79.4196 47.1489 80.3507 46.9501 81.1959 46.5578C82.0394 46.1664 82.7809 45.6105 83.3978 44.9064C84.0126 44.2052 84.4992 43.3637 84.8444 42.4061C85.1887 41.4505 85.3638 40.3923 85.3638 39.2601C85.3638 38.1281 85.1887 37.0696 84.8444 36.1141C84.4994 35.1562 84.0128 34.3148 83.3978 33.6138C82.7814 32.9106 82.042 32.3512 81.1982 31.9506C80.3519 31.5496 79.4198 31.3462 78.4291 31.3462C77.4381 31.3462 76.5063 31.5496 75.6599 31.9509C74.8167 32.351 74.0767 32.9102 73.4603 33.6138C72.8456 34.3148 72.359 35.1559 72.0138 36.1138C71.67 37.0682 71.4951 38.1266 71.4951 39.2598C71.4951 40.3931 71.67 41.4515 72.0138 42.4059C72.3588 43.3637 72.8453 44.2049 73.4603 44.9062C74.0772 45.6109 74.8181 46.1666 75.6618 46.5578ZM77.3027 37.0375C77.5949 36.524 77.9631 36.2746 78.4286 36.2746C78.8603 36.2746 79.2124 36.5245 79.5049 37.0375C79.8222 37.5956 79.983 38.3434 79.983 39.2603C79.983 40.177 79.8229 40.9202 79.5056 41.4691C79.2133 41.9751 78.861 42.2212 78.4286 42.2212C77.9627 42.2212 77.5938 41.9751 77.3015 41.4688C76.9849 40.9209 76.8241 40.1779 76.8241 39.2601C76.8243 38.3425 76.9849 37.5946 77.3027 37.0375Z" fill="#302C3F"/>
<path d="M32.2155 51.584C31.5993 50.8809 30.8591 50.3214 30.0159 49.9209C29.1693 49.5198 28.2379 49.3164 27.247 49.3164C26.2558 49.3164 25.3242 49.5198 24.4778 49.9211C23.6345 50.3212 22.8946 50.8804 22.2782 51.584C21.6635 52.285 21.1767 53.1262 20.8317 54.0841C20.4876 55.0384 20.313 56.0969 20.313 57.2301C20.313 58.3633 20.4874 59.4217 20.8317 60.3761C21.1767 61.334 21.6632 62.1751 22.2782 62.8764C22.8956 63.5807 23.6364 64.1366 24.4802 64.5278C25.3253 64.9199 26.2563 65.1189 27.2472 65.1189C28.2379 65.1189 29.1686 64.9201 30.0142 64.5278C30.858 64.1364 31.5988 63.5805 32.2162 62.8764C32.8309 62.1751 33.3175 61.3337 33.6627 60.3761C34.007 59.4205 34.1819 58.3621 34.1819 57.2301C34.1819 56.098 34.0073 55.0396 33.6627 54.0841C33.3168 53.1264 32.83 52.285 32.2155 51.584ZM26.1203 55.0073C26.4126 54.4937 26.781 54.2444 27.2465 54.2444C27.6782 54.2444 28.0302 54.4942 28.3225 55.0073C28.6398 55.5653 28.8009 56.3132 28.8009 57.2301C28.8009 58.1467 28.6401 58.8899 28.3237 59.4388C28.0312 59.9448 27.6789 60.1909 27.2465 60.1909C26.7803 60.1909 26.4114 59.9448 26.1192 59.4386C25.8025 58.8906 25.642 58.1476 25.642 57.2298C25.6422 56.3125 25.803 55.5646 26.1203 55.0073Z" fill="#302C3F"/>
<path d="M47.9429 49.9697H42.6191L42.542 50.1244C42.486 50.2367 42.3381 50.4361 41.9513 50.7471C41.6199 51.0139 41.2473 51.2679 40.8435 51.5016C40.4378 51.7371 40.026 51.9432 39.6198 52.1136C39.1435 52.3137 38.8831 52.3554 38.7484 52.3554H38.4692V57.2834H38.7484C39.0882 57.2834 39.4742 57.2297 39.8956 57.1242C40.3105 57.0204 40.726 56.8807 41.1301 56.7085C41.5339 56.5369 41.9049 56.3487 42.2328 56.1504C42.3329 56.09 42.4262 56.0283 42.5124 55.9655V60.0403H38.9464V64.8677H51.1323V60.0403H47.9424V49.9697H47.9429Z" fill="#302C3F"/>
<path d="M66.8985 51.584C66.2821 50.8809 65.5422 50.3214 64.6982 49.9209C63.8519 49.5198 62.9205 49.3164 61.9296 49.3164C60.9382 49.3164 60.0067 49.5198 59.1604 49.9211C58.3169 50.3212 57.5765 50.8804 56.9608 51.584C56.3461 52.285 55.8593 53.1262 55.5143 54.0841C55.17 55.0384 54.9951 56.0969 54.9951 57.2301C54.9951 58.3633 55.1697 59.4217 55.5143 60.3761C55.8586 61.334 56.3456 62.1751 56.9608 62.8764C57.5777 63.5807 58.3183 64.1366 59.1628 64.5278C60.0079 64.9199 60.9389 65.1189 61.9298 65.1189C62.92 65.1189 63.851 64.9201 64.6968 64.5278C65.5403 64.1364 66.2812 63.5805 66.8988 62.8764C67.5135 62.1751 67.9999 61.3337 68.3453 60.3761C68.6896 59.4205 68.864 58.3621 68.864 57.2301C68.864 56.098 68.6896 55.0396 68.3453 54.0841C67.9996 53.1264 67.5126 52.285 66.8985 51.584ZM60.8029 55.0073C61.0952 54.4937 61.4634 54.2444 61.9293 54.2444C62.361 54.2444 62.7128 54.4942 63.0051 55.0073C63.3224 55.5653 63.4837 56.3132 63.4837 57.2301C63.4837 58.1467 63.3229 58.8899 63.0063 59.4388C62.7138 59.9448 62.3615 60.1909 61.9296 60.1909C61.4629 60.1909 61.0947 59.9448 60.8024 59.4386C60.4851 58.8906 60.325 58.1476 60.325 57.2298C60.325 56.3125 60.4858 55.5646 60.8029 55.0073Z" fill="#302C3F"/>
<path d="M82.6255 60.0398V49.9692H77.3017L77.2246 50.1239C77.1686 50.2362 77.0209 50.4356 76.6337 50.7467C76.3023 51.0134 75.9299 51.2674 75.5263 51.5011C75.1204 51.7367 74.7088 51.9427 74.3022 52.1131C73.8264 52.3132 73.5658 52.3549 73.431 52.3549H73.1519V57.2829H73.431C73.7708 57.2829 74.1573 57.2292 74.5785 57.1238C74.9931 57.0199 75.4086 56.8802 75.8129 56.708C76.2168 56.5364 76.5876 56.3482 76.9154 56.1499C77.0155 56.0895 77.1088 56.0278 77.1953 55.965V60.0398H73.629V64.8673H85.8149V60.0398H82.6255Z" fill="#302C3F"/>
</g>
<defs>
<clipPath id="clip0">
<rect width="120" height="120" fill="white"/>
</clipPath>
</defs>
</svg>
