<svg width="120" height="120" viewBox="0 0 120 120" fill="none" xmlns="http://www.w3.org/2000/svg">
<path d="M77.9677 111.01V96.9364L55.3086 92.2451L59.9998 111.01H77.9677Z" fill="#302C3F"/>
<path d="M42.0312 111.01H59.9991V92.2451L42.0312 96.9364V111.01Z" fill="#302C3F"/>
<path d="M119.999 75.826L55.3081 71.1348L59.9994 96.9366H119.999V75.826Z" fill="#302C3F"/>
<path d="M0 75.826V96.9366H60V71.1348L0 75.826Z" fill="#302C3F"/>
<path d="M88.5231 107.494H59.9999L57.6543 111.01L59.9999 114.525H88.5231V107.494Z" fill="#302C3F"/>
<path d="M59.9995 107.493H31.4761V114.524H59.9995V107.493Z" fill="#302C3F"/>
<path d="M120 5.47461H59.9998L55.3086 40.6505L59.9998 75.8265H120V5.47461Z" fill="#0aacca"/>
<path d="M60 5.47461H0V75.827H60V5.47461Z" fill="#1dd5df"/>
<path d="M41.9133 59.2759L23.2866 40.6492L41.9133 22.0225L46.8851 26.9943L33.2302 40.6492L46.8851 54.3041L41.9133 59.2759Z" fill="#302C3F"/>
<path d="M78.087 59.2759L73.1152 54.3041L86.7702 40.6492L73.1152 26.9943L78.087 22.0225L96.7137 40.6492L78.087 59.2759Z" fill="#302C3F"/>
<path d="M52.217 61.7591L59.1133 63.1309L67.7841 19.5413L60.8878 18.1695L52.217 61.7591Z" fill="#302C3F"/>
</svg>
