<svg width="107" height="96" viewBox="0 0 107 96" fill="none" xmlns="http://www.w3.org/2000/svg">
<path d="M53.0428 0L23.1461 3.16102L0 34.2321L53.0428 96L106.086 34.2321L82.9399 3.16102L53.0428 0Z" fill="#FDB300"/>
<path d="M0 34.2324L53.0428 95.9999L21.4848 34.2324H0Z" fill="#EB6C00"/>
<path d="M84.6003 34.2324L53.0427 95.9999L106.085 34.2324H84.6003Z" fill="#EB6C00"/>
<path d="M21.4846 34.2324L53.0426 95.9999L84.6006 34.2324H21.4846Z" fill="#FDAD00"/>
<path d="M23.1459 3.16102L21.4846 34.2321L53.0426 0L23.1459 3.16102Z" fill="#FDD231"/>
<path d="M84.6003 34.2321L82.9394 3.1606L53.0427 0L84.6003 34.2321Z" fill="#FDD231"/>
<path d="M84.6005 34.2321H106.085L82.9392 3.16064L84.6005 34.2321Z" fill="#FDAD00"/>
<path d="M0 34.2321H21.4848L23.1461 3.16064L0 34.2321Z" fill="#FDAD00"/>
<path d="M53.0426 0L21.4846 34.2321H84.6006L53.0426 0Z" fill="#FEEEB7"/>
</svg>
