<svg width="60" height="105" viewBox="0 0 60 105" fill="none" xmlns="http://www.w3.org/2000/svg">
<path d="M18.9688 98.8536C18.9688 102.242 21.7256 104.999 25.1143 104.999H34.3157C37.7044 104.999 40.4612 102.242 40.4612 98.8536V97.6777H18.9688V98.8536Z" fill="#0aacca"/>
<path d="M29.7164 0C13.3308 0 0 13.3308 0 29.7164C0 39.2951 7.24323 50.5407 12.5321 58.7516C12.9422 59.3879 13.3414 60.0077 13.7267 60.6097C16.2145 64.4993 17.7524 69.4064 18.5663 76.0522C19.0107 79.6794 22.0931 82.4151 25.737 82.4151H33.6965C37.3401 82.4151 40.4229 79.6794 40.8673 76.0522C41.6808 69.4064 43.2186 64.4993 45.7072 60.6097C46.0922 60.0077 46.4913 59.3876 46.9014 58.7516C52.1903 50.5407 59.4335 39.2951 59.4335 29.7164C59.4328 13.3308 46.1021 0 29.7164 0ZM36.9391 30.9163C37.9665 30.9372 38.8815 31.5721 39.2601 32.5274C39.6391 33.4826 39.4079 34.5719 38.6739 35.2913L24.3321 49.3433C23.8354 49.8301 23.1902 50.0726 22.5457 50.0726C21.8838 50.0726 21.2224 49.8167 20.7225 49.3069C19.7358 48.3 19.7524 46.684 20.7592 45.6973L30.7615 35.8976L22.494 35.7308C21.4713 35.7099 20.5598 35.0806 20.1777 34.1317C19.7959 33.1828 20.0175 32.0975 20.7409 31.3738L35.0827 17.0323C36.0793 16.036 37.6957 16.0364 38.6923 17.0326C39.6889 18.0292 39.6889 19.6453 38.692 20.6422L28.5858 30.748L36.9391 30.9163Z" fill="#0aacca"/>
<path d="M25.7351 87.5195C23.2511 87.5195 20.921 86.7739 18.9688 85.4863V92.5737H40.4612V85.4863C38.509 86.7739 36.1789 87.5195 33.6949 87.5195H25.7351Z" fill="#0aacca"/>
</svg>
