<svg width="383" height="268" viewBox="0 0 383 268" fill="none" xmlns="http://www.w3.org/2000/svg">
<path fill-rule="evenodd" clip-rule="evenodd" d="M0 0L7.94096e-06 152.75C8.54941e-06 164.454 11.1161 174.186 25.0746 174.339C39.2011 174.493 50.8187 164.848 50.8187 153.038V127.355C50.8187 120.383 57.56 114.731 65.8757 114.731H67.6922C76.0884 114.731 82.8946 120.438 82.8946 127.477L82.8946 253.421C82.8946 260.706 89.6204 266.86 98.2976 267.233C107.611 267.633 115.386 261.356 115.386 253.631V153.337C115.386 146.916 121.595 141.711 129.254 141.711H130.083C137.818 141.711 144.089 146.968 144.089 153.452V220.951C144.089 228.442 151.897 234.572 161.441 234.572C170.986 234.572 178.794 228.442 178.794 220.951L178.794 109.244C178.794 102.061 185.74 96.2381 194.307 96.2381H195.904C204.478 96.2381 211.429 102.065 211.429 109.254V245.274C211.429 252.493 219.238 258.399 228.782 258.399C238.326 258.399 246.135 252.493 246.135 245.274V99.7826C246.135 95.302 250.467 91.6698 255.812 91.6698H258.015C263.445 91.6698 267.068 95.3603 267.068 99.9121L267.847 124.745C267.847 136.449 282.596 146.181 296.555 146.334C310.681 146.488 325.413 136.842 325.413 125.033V98.2618C325.413 91.8908 327.94 86.7261 335.539 86.7261H338.653C347.049 86.7261 349.963 92.4327 349.963 99.472L350.482 188.863C350.482 196.148 357.208 202.303 365.885 202.675C375.198 203.075 382.973 196.798 382.973 189.073L382.454 119.457C382.454 118.874 382.607 58.5074 382.756 0H0Z" fill="url(#paint0_linear)"/>
<defs>
<linearGradient id="paint0_linear" x1="69.4783" y1="3.14423" x2="452.451" y2="3.14421" gradientUnits="userSpaceOnUse">
<stop offset="0.0773481" stop-color="#1dd5df"/>
<stop offset="0.906077" stop-color="#302C3F"/>
</linearGradient>
</defs>
</svg>
