<svg width="110" height="96" viewBox="0 0 110 96" fill="none" xmlns="http://www.w3.org/2000/svg">
<path d="M67.6251 0C115.858 32.1874 100.217 67.5566 100.217 67.5566C100.217 67.5566 113.918 82.7177 108.411 96C108.411 96 102.727 86.7223 93.2914 86.7223C84.1714 86.7223 78.7749 96 60.3634 96C19.4126 96 0 62.4411 0 62.4411C36.9051 86.304 62.1189 69.3943 62.1189 69.3943C45.456 59.9451 10.1143 14.6949 10.1143 14.6949C40.9234 40.416 54.2194 47.1703 54.2194 47.1703C46.224 40.752 23.9451 9.29829 23.9451 9.29829C41.7737 26.9829 77.2114 51.6411 77.2114 51.6411C87.3737 24.3909 67.6251 0 67.6251 0Z" fill="#FF5722"/>
</svg>
