<svg width="126" height="76" viewBox="0 0 126 76" fill="none" xmlns="http://www.w3.org/2000/svg">
<path d="M27.9543 40.6639C34.2792 40.6639 40.4871 31.8799 40.4871 22.9305C40.4871 15.3009 35.5675 10.3711 27.9543 10.3711C20.3411 10.3711 15.4219 15.3009 15.4219 22.9305C15.4219 31.8799 21.6294 40.6639 27.9543 40.6639Z" fill="#0aacca"/>
<path d="M97.0479 40.6634C103.373 40.6634 109.58 31.8794 109.58 22.93C109.58 15.3004 104.661 10.3706 97.0479 10.3706C89.4347 10.3706 84.5151 15.3004 84.5151 22.93C84.5151 31.8794 90.723 40.6634 97.0479 40.6634Z" fill="#0aacca"/>
<path d="M124.973 59.418C124.331 54.0892 123.8 49.9878 123.437 47.5562C122.732 42.8474 118.87 38.8346 113.826 37.5709L109.168 36.4043C108.305 39.7735 106.072 42.5906 103.105 44.2423C104.347 46.5123 105.203 48.9789 105.588 51.5555C106.001 54.3182 106.546 58.4403 107.212 63.8361H121.064C122.206 63.8361 123.253 63.3646 124.01 62.5084C124.768 61.6517 125.109 60.5543 124.973 59.418Z" fill="#0aacca"/>
<path d="M15.8341 36.4043L11.1767 37.5709C6.13248 38.8346 2.27011 42.8479 1.56557 47.5566C1.20193 49.9878 0.670789 54.0892 0.0293762 59.4175C-0.106987 60.5543 0.234342 61.6513 0.991916 62.5075C1.74949 63.3637 2.79621 63.8353 3.93846 63.8353H17.7907C18.4561 58.4394 19.0011 54.3178 19.414 51.5547C19.7995 48.978 20.6552 46.5114 21.8968 44.2414C18.9309 42.5906 16.6973 39.7731 15.8341 36.4043Z" fill="#0aacca"/>
<path d="M99.7375 52.4345C98.7076 45.5489 93.0868 39.6878 85.751 37.8501L78.2737 35.9766C76.8945 43.4488 70.3478 49.1273 62.4985 49.1273C54.6492 49.1273 48.1025 43.4484 46.7233 35.9766L39.2464 37.8501C31.9102 39.6878 26.289 45.5485 25.2595 52.4345C24.7536 55.8151 24.044 61.294 23.1501 68.7191C22.9249 70.5922 23.4881 72.4008 24.7372 73.8121C25.9864 75.2234 27.7107 76.0007 29.5937 76.0007H95.4042C97.2872 76.0007 99.0119 75.2234 100.261 73.8121C101.509 72.4008 102.073 70.5922 101.847 68.7186C100.953 61.294 100.244 55.8151 99.7375 52.4345Z" fill="#0aacca"/>
<path d="M62.502 43.7033C72.7899 43.7033 80.7697 30.0511 80.7697 18.307C80.7697 7.18589 73.5992 0 62.502 0C51.4048 0 44.2344 7.18589 44.2344 18.307C44.2344 30.0511 52.2142 43.7033 62.502 43.7033Z" fill="#0aacca"/>
</svg>
