<svg width="122" height="120" viewBox="0 0 122 120" fill="none" xmlns="http://www.w3.org/2000/svg">
<g clip-path="url(#clip0)">
<path d="M92.4892 6.11719V31.6406L85.3928 35.1562H7.09635L0 28.125V10.5469C0 4.7107 4.99087 0 10.8811 0H85.3928L92.4892 6.11719Z" fill="#1dd5df"/>
<path d="M92.4891 6.11719V31.6406L85.3928 35.1562H60.5555V0H85.3928L92.4891 6.11719Z" fill="#0aacca"/>
<path d="M110.467 0H85.3928V35.1562H114.015L121.111 28.125V10.5469C121.111 4.73109 116.336 0 110.467 0Z" fill="black"/>
<path d="M121.111 28.125V109.453C121.111 115.289 116.357 120 110.467 120H10.8811C4.99087 120 0 115.289 0 109.453V28.125H121.111Z" fill="#E4EAF8"/>
<path d="M121.111 28.125V109.453C121.111 115.289 116.357 120 110.467 120H60.5555V28.125H121.111Z" fill="#C3C8D1"/>
<path d="M25.0738 21.0938H17.9774C16.0162 21.0938 14.4293 19.5213 14.4293 17.5781C14.4293 15.6349 16.0162 14.0625 17.9774 14.0625H25.0738C27.035 14.0625 28.622 15.6349 28.622 17.5781C28.622 19.5213 27.035 21.0938 25.0738 21.0938Z" fill="#302C3F"/>
<path d="M46.3629 21.0938H39.2665C37.3053 21.0938 35.7183 19.5213 35.7183 17.5781C35.7183 15.6349 37.3053 14.0625 39.2665 14.0625H46.3629C48.3241 14.0625 49.911 15.6349 49.911 17.5781C49.911 19.5213 48.3241 21.0938 46.3629 21.0938Z" fill="#302C3F"/>
<path d="M71.2001 17.5781C71.2001 19.5471 69.6391 21.0938 67.6519 21.0938H60.5556C58.5683 21.0938 57.0074 19.5471 57.0074 17.5781C57.0074 15.6091 58.5683 14.0625 60.5556 14.0625H67.6519C69.6391 14.0625 71.2001 15.6091 71.2001 17.5781Z" fill="#302C3F"/>
<path d="M71.2001 17.5781C71.2001 19.5471 69.6391 21.0938 67.6519 21.0938H60.5555V14.0625H67.6519C69.6391 14.0625 71.2001 15.6091 71.2001 17.5781Z" fill="black"/>
<path d="M64.1037 73.8281V87.8906C64.1037 89.8596 62.5428 91.4062 60.5556 91.4062C58.5683 91.4062 57.0074 89.8596 57.0074 87.8906V73.8281C57.0074 71.8591 58.5683 70.3125 60.5556 70.3125C62.5428 70.3125 64.1037 71.8591 64.1037 73.8281Z" fill="#1dd5df"/>
<path d="M64.1037 52.7344V59.7656C64.1037 61.7346 62.5428 63.2812 60.5556 63.2812C58.5683 63.2812 57.0074 61.7346 57.0074 59.7656V52.7344C57.0074 50.7654 58.5683 49.2188 60.5556 49.2188C62.5428 49.2188 64.1037 50.7654 64.1037 52.7344Z" fill="#1dd5df"/>
<path d="M32.1702 98.4375H25.0738C23.1126 98.4375 21.5256 96.8651 21.5256 94.9219C21.5256 92.9787 23.1126 91.4062 25.0738 91.4062H32.1702C34.1314 91.4062 35.7183 92.9787 35.7183 94.9219C35.7183 96.8651 34.1314 98.4375 32.1702 98.4375Z" fill="#1dd5df"/>
<path d="M96.0373 98.4375H88.941C86.9798 98.4375 85.3928 96.8651 85.3928 94.9219C85.3928 92.9787 86.9798 91.4062 88.941 91.4062H96.0373C97.9985 91.4062 99.5855 92.9787 99.5855 94.9219C99.5855 96.8651 97.9985 98.4375 96.0373 98.4375Z" fill="#0aacca"/>
<path d="M39.267 77.3436C38.3592 77.3436 37.4513 77.0002 36.7585 76.3135L29.6621 69.2822C28.2762 67.909 28.2762 65.6841 29.6621 64.3109C31.048 62.9377 33.2936 62.9377 34.6795 64.3109L41.7758 71.3422C43.1618 72.7154 43.1618 74.9403 41.7758 76.3135C41.0828 77.0002 40.1749 77.3436 39.267 77.3436Z" fill="#1dd5df"/>
<path d="M81.8452 77.3436C80.9373 77.3436 80.0295 77.0002 79.3366 76.3135C77.9507 74.9403 77.9507 72.7154 79.3366 71.3422L86.433 64.3109C87.8189 62.9377 90.0644 62.9377 91.4503 64.3109C92.8363 65.6841 92.8363 67.909 91.4503 69.2822L84.354 76.3135C83.6609 77.0002 82.753 77.3436 81.8452 77.3436Z" fill="#0aacca"/>
<path d="M64.1037 52.7344V59.7656C64.1037 61.7346 62.5428 63.2812 60.5555 63.2812V49.2188C62.5428 49.2188 64.1037 50.7654 64.1037 52.7344Z" fill="#0aacca"/>
<path d="M64.1037 73.8281V87.8906C64.1037 89.8596 62.5428 91.4062 60.5555 91.4062V70.3125C62.5428 70.3125 64.1037 71.8591 64.1037 73.8281Z" fill="#0aacca"/>
<path d="M99.5855 87.8906V94.9219C99.5855 96.8909 98.0246 98.4375 96.0374 98.4375C94.0501 98.4375 92.4892 96.8909 92.4892 94.9219V87.8906C92.4892 70.4534 78.1543 56.25 60.5556 56.25C42.9569 56.25 28.622 70.4534 28.622 87.8906V94.9219C28.622 96.8909 27.061 98.4375 25.0738 98.4375C23.0866 98.4375 21.5256 96.8909 21.5256 94.9219V87.8906C21.5256 66.5857 39.0534 49.2188 60.5556 49.2188C82.0578 49.2188 99.5855 66.5857 99.5855 87.8906Z" fill="#1dd5df"/>
<path d="M99.5855 87.8906V94.9219C99.5855 96.8909 98.0245 98.4375 96.0373 98.4375C94.0501 98.4375 92.4891 96.8909 92.4891 94.9219V87.8906C92.4891 70.4534 78.1543 56.25 60.5555 56.25V49.2188C82.0577 49.2188 99.5855 66.5857 99.5855 87.8906Z" fill="#0aacca"/>
<path d="M60.5555 84.375C54.6653 84.375 49.911 89.0857 49.911 94.9219C49.911 100.758 54.6653 105.469 60.5555 105.469C66.4458 105.469 71.2001 100.758 71.2001 94.9219C71.2001 89.0857 66.4458 84.375 60.5555 84.375Z" fill="#302C3F"/>
<path d="M71.2001 94.9219C71.2001 100.758 66.4458 105.469 60.5555 105.469V84.375C66.4458 84.375 71.2001 89.0857 71.2001 94.9219Z" fill="black"/>
</g>
<defs>
<clipPath id="clip0">
<rect width="121.111" height="120" fill="white"/>
</clipPath>
</defs>
</svg>
