<svg width="123" height="96" viewBox="0 0 123 96" fill="none" xmlns="http://www.w3.org/2000/svg">
<path fill-rule="evenodd" clip-rule="evenodd" d="M12.7749 68.3674L0 54.0801L39.1033 39.8467L45.1898 56.5695L12.7749 68.3674Z" fill="#F89920"/>
<path fill-rule="evenodd" clip-rule="evenodd" d="M12.6812 68.1098L12.0793 87.2671L51.1826 73.0336L45.0961 56.312L12.6812 68.1098Z" fill="#FFBE22"/>
<path fill-rule="evenodd" clip-rule="evenodd" d="M121.346 28.8774C126.925 45.042 108.948 66.2827 80.9827 76.4619C53.0152 86.6398 25.5906 81.9248 19.4734 65.9549L121.346 28.8774Z" fill="#F0670A"/>
<path fill-rule="evenodd" clip-rule="evenodd" d="M121.347 28.8795C115.27 12.8686 87.8158 8.13439 59.8201 18.3225C31.8232 28.512 13.8364 49.7872 19.4734 65.9595L121.347 28.8795Z" fill="#FFD00E"/>
<path fill-rule="evenodd" clip-rule="evenodd" d="M121.345 28.8823C124.823 39.698 105.304 56.5425 77.4253 66.6884C49.5449 76.8368 23.7658 76.4796 19.4785 65.9585L121.345 28.8823Z" fill="#F89920"/>
<path fill-rule="evenodd" clip-rule="evenodd" d="M121.347 28.8802C117.124 18.3091 91.3051 17.9339 63.3799 28.0991C35.4547 38.2629 15.9184 55.1445 19.4771 65.9576L121.347 28.8802Z" fill="#FFBE22"/>
<path d="M74.3504 14.2079C71.6894 5.00709 68.6622 -0.0959559 65.22 0.00136692C58.5649 0.19089 56.3278 21.292 58.4817 48.3311C60.6587 75.657 66.3047 96.1844 73.3439 95.9987C77.5416 95.8886 79.9055 89.1733 80.7353 77.5138C80.7521 77.2757 80.4869 77.4409 80.5022 77.1975C80.5022 77.1975 80.4677 76.7724 80.3102 76.7621L79.4176 76.7045C78.6864 88.0247 76.471 94.5479 73.3081 94.6311C67.5225 94.7822 61.9366 74.4763 59.8468 48.2235C57.7889 22.401 60.0043 1.51882 65.2597 1.36899C67.7478 1.29856 70.5356 5.99823 73.002 14.4717C73.002 14.4717 74.3517 14.2118 74.3504 14.2079L74.3504 14.2079Z" fill="#F0670A"/>
<path d="M41.3707 7.64339C35.7016 11.1355 44.3147 30.527 59.6994 52.8677C75.2467 75.4441 90.4009 90.3985 96.4041 86.7181C99.7592 84.6616 98.818 78.4175 94.4961 68.9926C94.461 68.9075 94.4091 68.8304 94.3434 68.7659C94.2778 68.7014 94.1998 68.6508 94.1142 68.6171C94.0286 68.5835 93.937 68.5674 93.845 68.57C93.753 68.5726 93.6625 68.5936 93.5789 68.632C93.4953 68.6704 93.4202 68.7252 93.3583 68.7933C93.2963 68.8614 93.2488 68.9412 93.2184 69.0281C93.1881 69.115 93.1756 69.2071 93.1817 69.2989C93.1878 69.3907 93.2124 69.4803 93.254 69.5624C97.2698 78.3253 98.1329 84.0533 95.6883 85.5515C90.7543 88.5749 75.7653 73.7832 60.8263 52.0904C46.1344 30.7575 37.6109 11.567 42.0891 8.8087C44.4658 7.34373 50.1208 10.8781 57.5928 18.5115C57.6761 18.596 58.1537 19.0916 58.26 19.1236C58.4918 19.194 58.3753 18.7036 58.5609 18.5218C58.6253 18.4589 58.6766 18.384 58.7119 18.3013C58.7473 18.2186 58.766 18.1298 58.7669 18.0399C58.7679 17.9499 58.7511 17.8607 58.7175 17.7773C58.6839 17.6938 58.6343 17.6179 58.5713 17.5537C50.5882 9.39904 44.5977 5.65467 41.3707 7.6421V7.64339Z" fill="#F0670A"/>
</svg>
