<?xml version="1.0" encoding="UTF-8" standalone="no"?>
<svg
   width="122"
   height="120"
   viewBox="0 0 122 120"
   fill="none"
   version="1.1"
   id="svg39611"
   sodipodi:docname="list.svg"
   inkscape:version="1.2 (dc2aedaf03, 2022-05-15)"
   xmlns:inkscape="http://www.inkscape.org/namespaces/inkscape"
   xmlns:sodipodi="http://sodipodi.sourceforge.net/DTD/sodipodi-0.dtd"
   xmlns="http://www.w3.org/2000/svg"
   xmlns:svg="http://www.w3.org/2000/svg">
  <sodipodi:namedview
     id="namedview39613"
     pagecolor="#ffffff"
     bordercolor="#000000"
     borderopacity="0.25"
     inkscape:showpageshadow="2"
     inkscape:pageopacity="0.0"
     inkscape:pagecheckerboard="0"
     inkscape:deskcolor="#d1d1d1"
     showgrid="false"
     inkscape:zoom="6.9083333"
     inkscape:cx="37.852835"
     inkscape:cy="60.072376"
     inkscape:window-width="1920"
     inkscape:window-height="1009"
     inkscape:window-x="-8"
     inkscape:window-y="-8"
     inkscape:window-maximized="1"
     inkscape:current-layer="svg39611" />
  <g
     clip-path="url(#clip0)"
     id="g39604">
    <path
       d="M121.111 88.3594C121.111 89.2734 114.086 109.875 113.802 110.578C113.376 111.984 112.028 112.969 110.467 112.969C108.906 112.969 107.557 111.984 107.132 110.578C106.847 109.805 99.8221 89.2734 99.8221 88.3594L110.467 81.3281L121.111 88.3594Z"
       fill="#E4EAF8"
       id="path39562"
       style="fill:#063f5c;fill-opacity:1" />
    <path
       d="M121.111 88.3594C121.111 89.2734 114.086 109.875 113.802 110.578C113.376 111.984 112.028 112.969 110.467 112.969V81.3281L121.111 88.3594Z"
       fill="#C3C8D1"
       id="path39564"
       style="fill:#063f5c;fill-opacity:1" />
    <path
       d="M92.7257 17.5781V109.453C92.7257 115.289 87.9714 120 82.0812 120H10.6445C4.75432 120 0 115.289 0 109.453V17.5781C0 11.742 4.75432 7.03125 10.6445 7.03125H82.0812C87.9714 7.03125 92.7257 11.742 92.7257 17.5781Z"
       fill="#1dd5df"
       id="path39566"
       style="fill:#f27721;fill-opacity:1" />
    <path
       d="M92.7257 17.5781V109.453C92.7257 115.289 87.9714 120 82.0812 120H46.3629V7.03125H82.0812C87.9714 7.03125 92.7257 11.742 92.7257 17.5781Z"
       fill="#0aacca"
       id="path39568"
       style="fill:#f27721;fill-opacity:1" />
    <path
       d="M85.6293 17.5781V109.453C85.6293 111.422 84.0684 112.969 82.0812 112.969H10.6445C8.65731 112.969 7.09634 111.422 7.09634 109.453V17.5781C7.09634 15.6091 8.65731 14.0625 10.6445 14.0625H82.0812C84.0684 14.0625 85.6293 15.6091 85.6293 17.5781Z"
       fill="#E4EAF8"
       id="path39570" />
    <path
       d="M85.6293 17.5781V109.453C85.6293 111.422 84.0684 112.969 82.0812 112.969H46.3629V14.0625H82.0812C84.0684 14.0625 85.6293 15.6091 85.6293 17.5781Z"
       fill="#C3C8D1"
       id="path39572" />
    <path
       d="M60.5556 0H32.1701C26.2799 0 21.5256 4.7107 21.5256 10.5469C21.5256 16.3826 26.2799 21.0938 32.1701 21.0938H60.5556C66.4458 21.0938 71.2001 16.3826 71.2001 10.5469C71.2001 4.7107 66.4458 0 60.5556 0Z"
       fill="#302C3F"
       id="path39574"
       style="fill:#063f5c;fill-opacity:1" />
    <path
       d="M22.565 76.7822C23.2581 77.469 24.166 77.8123 25.0736 77.8123C25.9812 77.8123 26.8893 77.469 27.5822 76.7822L41.7749 62.7197C43.1608 61.3465 43.1608 59.1216 41.7749 57.7484C40.389 56.3752 38.1434 56.3752 36.7575 57.7484L25.0736 69.3254L20.4858 64.7797C19.0999 63.4065 16.8544 63.4065 15.4685 64.7797C14.0825 66.1529 14.0825 68.3778 15.4685 69.751L22.565 76.7822Z"
       fill="#1dd5df"
       id="path39576"
       style="fill:#f27721;fill-opacity:1" />
    <path
       d="M36.7578 85.8739L25.0736 97.4506L20.4858 92.9049C19.0999 91.5317 16.8544 91.5317 15.4685 92.9049C14.0825 94.2781 14.0825 96.503 15.4685 97.8762L22.5648 104.907C23.2579 105.594 24.1657 105.938 25.0734 105.938C25.981 105.938 26.8891 105.594 27.5819 104.907L41.7746 90.845C43.1606 89.4718 43.1606 87.2468 41.7746 85.8736C40.3887 84.5004 38.1437 84.5004 36.7578 85.8739Z"
       fill="#1dd5df"
       id="path39578"
       style="fill:#f27721;fill-opacity:1" />
    <path
       d="M15.4687 48.4229C16.8546 49.7961 19.0999 49.7963 20.4861 48.4229L25.0736 43.8774L29.6614 48.4231C31.0473 49.7963 33.2926 49.7965 34.6788 48.4231C36.0647 47.0499 36.0647 44.825 34.6788 43.4518L30.091 38.9061L34.6788 34.3604C36.0647 32.9872 36.0647 30.7622 34.6788 29.389C33.2928 28.0158 31.0473 28.0158 29.6614 29.389L25.0736 33.9347L20.4858 29.389C19.0999 28.0158 16.8544 28.0158 15.4685 29.389C14.0825 30.7622 14.0825 32.9872 15.4685 34.3604L20.0562 38.9061L15.4685 43.4518C14.0825 44.825 14.0825 47.0497 15.4687 48.4229Z"
       fill="#302C3F"
       id="path39580"
       style="fill:#063f5c;fill-opacity:1" />
    <path
       d="M74.9848 35.3906H60.5555C58.5943 35.3906 57.0074 33.8182 57.0074 31.875C57.0074 29.9318 58.5943 28.3594 60.5555 28.3594H74.9848C76.946 28.3594 78.533 29.9318 78.533 31.875C78.533 33.8182 76.946 35.3906 74.9848 35.3906Z"
       fill="#302C3F"
       id="path39582"
       style="fill:#063f5c;fill-opacity:1" />
    <path
       d="M74.9848 49.4531H53.4592C51.498 49.4531 49.911 47.8807 49.911 45.9375C49.911 43.9943 51.498 42.4219 53.4592 42.4219H74.9848C76.946 42.4219 78.533 43.9943 78.533 45.9375C78.533 47.8807 76.946 49.4531 74.9848 49.4531Z"
       fill="#302C3F"
       id="path39584"
       style="fill:#063f5c;fill-opacity:1" />
    <path
       d="M74.9848 63.75H60.5555C58.5943 63.75 57.0074 62.1776 57.0074 60.2344C57.0074 58.2912 58.5943 56.7188 60.5555 56.7188H74.9848C76.946 56.7188 78.533 58.2912 78.533 60.2344C78.533 62.1776 76.946 63.75 74.9848 63.75Z"
       fill="#302C3F"
       id="path39586"
       style="fill:#063f5c;fill-opacity:1" />
    <path
       d="M74.9848 77.8125H53.4592C51.498 77.8125 49.911 76.2401 49.911 74.2969C49.911 72.3537 51.498 70.7812 53.4592 70.7812H74.9848C76.946 70.7812 78.533 72.3537 78.533 74.2969C78.533 76.2401 76.946 77.8125 74.9848 77.8125Z"
       fill="#302C3F"
       id="path39588"
       style="fill:#063f5c;fill-opacity:1" />
    <path
       d="M74.9848 91.875H60.5555C58.5943 91.875 57.0074 90.3026 57.0074 88.3594C57.0074 86.4162 58.5943 84.8438 60.5555 84.8438H74.9848C76.946 84.8438 78.533 86.4162 78.533 88.3594C78.533 90.3026 76.946 91.875 74.9848 91.875Z"
       fill="#302C3F"
       id="path39590"
       style="fill:#063f5c;fill-opacity:1" />
    <path
       d="M74.9848 105.938H53.4592C51.498 105.938 49.911 104.365 49.911 102.422C49.911 100.479 51.498 98.9062 53.4592 98.9062H74.9848C76.946 98.9062 78.533 100.479 78.533 102.422C78.533 104.365 76.946 105.938 74.9848 105.938Z"
       fill="#302C3F"
       id="path39592"
       style="fill:#063f5c;fill-opacity:1" />
    <path
       d="M71.2001 10.5469C71.2001 16.3826 66.4458 21.0938 60.5556 21.0938H46.3629V0H60.5556C66.4458 0 71.2001 4.7107 71.2001 10.5469Z"
       fill="black"
       id="path39594"
       style="fill:#063f5c;fill-opacity:1" />
    <path
       d="M121.111 17.8125V28.3594L114.015 35.3906H106.918L99.8221 28.3594V17.8125C99.8221 11.9763 104.576 7.26562 110.467 7.26562C116.357 7.26562 121.111 11.9763 121.111 17.8125Z"
       fill="#302C3F"
       id="path39596"
       style="fill:#063f5c;fill-opacity:1" />
    <path
       d="M121.111 17.8125V28.3594L114.015 35.3906H110.467V7.26562C116.357 7.26562 121.111 11.9763 121.111 17.8125Z"
       fill="black"
       id="path39598"
       style="fill:#063f5c;fill-opacity:1" />
    <path
       d="M121.111 28.3594C121.111 28.3594 121.111 86.9531 121.111 88.2891V88.3594H99.8221C99.8221 88.3594 99.8221 88.3594 99.8221 88.2891V28.3594H121.111Z"
       fill="#1dd5df"
       id="path39600"
       style="fill:#f27721;fill-opacity:1" />
    <path
       d="M121.111 28.3594C121.111 28.3594 121.111 86.9531 121.111 88.2891V88.3594H110.467V28.3594H121.111Z"
       fill="#0aacca"
       id="path39602"
       style="fill:#f27721;fill-opacity:1" />
  </g>
  <defs
     id="defs39609">
    <clipPath
       id="clip0">
      <rect
         width="121.111"
         height="120"
         fill="white"
         id="rect39606" />
    </clipPath>
  </defs>
</svg>
