<?xml version="1.0" encoding="UTF-8" standalone="no"?>
<svg
   width="120"
   height="120"
   viewBox="0 0 120 120"
   fill="none"
   version="1.1"
   id="svg50197"
   sodipodi:docname="maintenance.svg"
   inkscape:version="1.2 (dc2aedaf03, 2022-05-15)"
   xmlns:inkscape="http://www.inkscape.org/namespaces/inkscape"
   xmlns:sodipodi="http://sodipodi.sourceforge.net/DTD/sodipodi-0.dtd"
   xmlns="http://www.w3.org/2000/svg"
   xmlns:svg="http://www.w3.org/2000/svg">
  <defs
     id="defs50201" />
  <sodipodi:namedview
     id="namedview50199"
     pagecolor="#ffffff"
     bordercolor="#000000"
     borderopacity="0.25"
     inkscape:showpageshadow="2"
     inkscape:pageopacity="0.0"
     inkscape:pagecheckerboard="0"
     inkscape:deskcolor="#d1d1d1"
     showgrid="false"
     inkscape:zoom="6.9083333"
     inkscape:cx="36.839566"
     inkscape:cy="60.072376"
     inkscape:window-width="1920"
     inkscape:window-height="1009"
     inkscape:window-x="-8"
     inkscape:window-y="-8"
     inkscape:window-maximized="1"
     inkscape:current-layer="svg50197" />
  <path
     d="M120 38.6719V91.1719L112.969 98.6719H7.03125L0 91.1719V38.6719C0 32.8357 4.7107 28.125 10.5469 28.125H109.453C115.289 28.125 120 32.8357 120 38.6719Z"
     fill="#1dd5df"
     id="path50149"
     style="fill:#f27721;fill-opacity:1" />
  <path
     d="M120 38.6719V91.1719L112.969 98.6719H60V28.125H109.453C115.289 28.125 120 32.8357 120 38.6719Z"
     fill="#0aacca"
     id="path50151"
     style="fill:#063f5c;fill-opacity:1" />
  <path
     d="M112.969 38.6719V98.6719H7.03125V38.6719C7.03125 36.7029 8.57789 35.1562 10.5469 35.1562H109.453C111.422 35.1562 112.969 36.7029 112.969 38.6719Z"
     fill="#E4EAF8"
     id="path50153" />
  <path
     d="M112.969 38.6719V98.6719H60V35.1562H109.453C111.422 35.1562 112.969 36.7029 112.969 38.6719Z"
     fill="#C3C8D1"
     id="path50155" />
  <path
     d="M90.9374 54.7732L74.484 83.4373H45.5152L29.0619 54.7732C28.0777 53.4373 28.1478 51.6795 29.1322 50.4138L57.2572 15.2576C57.8902 14.4844 58.9447 14.0625 59.9996 14.0625C61.0545 14.0625 62.109 14.4844 62.7418 15.2576L90.8668 50.4138C91.8514 51.6795 91.9213 53.4373 90.9374 54.7732Z"
     fill="#1dd5df"
     id="path50157"
     style="fill:#f27721;fill-opacity:1" />
  <path
     d="M90.9377 54.7732L74.4844 83.4373H60V14.0625C61.0549 14.0625 62.1094 14.4844 62.7422 15.2576L90.8672 50.4138C91.8518 51.6795 91.9216 53.4373 90.9377 54.7732Z"
     fill="#0aacca"
     id="path50159"
     style="fill:#063f5c;fill-opacity:1" />
  <path
     d="M46.9447 116.484H73.0544L77.2262 103.969C77.7184 102.914 77.7184 101.578 77.0854 100.594C76.3825 99.5393 75.2572 98.9062 74.0619 98.9062H45.9372C44.7421 98.9062 43.6166 99.5393 42.9137 100.594C42.2807 101.578 42.2807 102.914 42.7729 103.969L46.9447 116.484Z"
     fill="#1dd5df"
     id="path50161"
     style="fill:#f27721;fill-opacity:1" />
  <path
     d="M73.0549 116.484L77.2268 103.969C77.719 102.914 77.719 101.578 77.0859 100.594C76.3831 99.5393 75.2578 98.9062 74.0625 98.9062H60V116.484H73.0549Z"
     fill="#0aacca"
     id="path50163"
     style="fill:#063f5c;fill-opacity:1" />
  <path
     d="M52.9688 14.0625H17.5781C15.6349 14.0625 14.0625 12.4901 14.0625 10.5469C14.0625 8.60367 15.6349 7.03125 17.5781 7.03125H52.9688C54.912 7.03125 56.4844 8.60367 56.4844 10.5469C56.4844 12.4901 54.912 14.0625 52.9688 14.0625Z"
     fill="#302C3F"
     id="path50165"
     style="fill:#063f5c;fill-opacity:1" />
  <path
     d="M102.422 14.0625H67.0312C65.088 14.0625 63.5156 12.4901 63.5156 10.5469C63.5156 8.60367 65.088 7.03125 67.0312 7.03125H102.422C104.365 7.03125 105.938 8.60367 105.938 10.5469C105.938 12.4901 104.365 14.0625 102.422 14.0625Z"
     fill="#302C3F"
     id="path50167"
     style="fill:#f27721;fill-opacity:1" />
  <path
     d="M17.5781 21.0938H3.51562C1.57242 21.0938 0 19.5213 0 17.5781V3.51562C0 1.57242 1.57242 0 3.51562 0H17.5781C19.5213 0 21.0938 1.57242 21.0938 3.51562V17.5781C21.0938 19.5213 19.5213 21.0938 17.5781 21.0938Z"
     fill="#1dd5df"
     id="path50169"
     style="fill:#f27721;fill-opacity:1" />
  <path
     d="M116.484 21.0938H102.422C100.479 21.0938 98.9062 19.5213 98.9062 17.5781V3.51562C98.9062 1.57242 100.479 0 102.422 0H116.484C118.428 0 120 1.57242 120 3.51562V17.5781C120 19.5213 118.428 21.0938 116.484 21.0938Z"
     fill="#0aacca"
     id="path50171"
     style="fill:#063f5c;fill-opacity:1" />
  <path
     d="M63.5156 17.5781V45.7031C63.5156 47.6716 61.969 49.2188 60 49.2188C58.031 49.2188 56.4844 47.6716 56.4844 45.7031V17.5781C56.4844 15.6091 58.031 14.0625 60 14.0625C61.969 14.0625 63.5156 15.6091 63.5156 17.5781Z"
     fill="#302C3F"
     id="path50173"
     style="fill:#063f5c;fill-opacity:1" />
  <path
     d="M84.6094 116.484C84.6094 118.453 83.0627 120 81.0938 120H38.9062C36.9373 120 35.3906 118.453 35.3906 116.484C35.3906 114.515 36.9373 112.969 38.9062 112.969H81.0938C83.0627 112.969 84.6094 114.515 84.6094 116.484Z"
     fill="#302C3F"
     id="path50175"
     style="fill:#f27721;fill-opacity:1" />
  <path
     d="M63.5156 17.5781V45.7031C63.5156 47.6716 61.969 49.2188 60 49.2188V14.0625C61.969 14.0625 63.5156 15.6091 63.5156 17.5781Z"
     fill="black"
     id="path50177"
     style="fill:#f27721;fill-opacity:1" />
  <path
     d="M84.6094 116.484C84.6094 118.453 83.0627 120 81.0938 120H60V112.969H81.0938C83.0627 112.969 84.6094 114.515 84.6094 116.484Z"
     fill="black"
     id="path50179" />
  <path
     d="M60 42.1875C54.1638 42.1875 49.4531 46.8982 49.4531 52.7344C49.4531 58.5701 54.1638 63.2812 60 63.2812C65.8362 63.2812 70.5469 58.5701 70.5469 52.7344C70.5469 46.8982 65.8362 42.1875 60 42.1875Z"
     fill="#302C3F"
     id="path50181"
     style="fill:#063f5c;fill-opacity:1" />
  <path
     d="M60 63.2812V42.1875C65.8362 42.1875 70.5469 46.8982 70.5469 52.7344C70.5469 58.5701 65.8362 63.2812 60 63.2812Z"
     fill="black"
     id="path50183"
     style="fill:#f27721;fill-opacity:1" />
  <path
     d="M67.0312 77.1094H52.9688C43.2656 77.1094 35.3906 84.9844 35.3906 94.6875C35.3906 96.656 36.9373 98.6719 38.9062 98.6719H81.0938C83.0627 98.6719 84.6094 96.656 84.6094 94.6875C84.6094 84.9844 76.7344 77.1094 67.0312 77.1094Z"
     fill="#C3C8D1"
     id="path50185" />
  <path
     d="M81.0938 98.6719H60V77.1094H67.0312C76.7344 77.1094 84.6094 84.9844 84.6094 94.6875C84.6094 96.656 83.0627 98.6719 81.0938 98.6719Z"
     fill="#E4EAF8"
     id="path50187" />
  <path
     d="M120 91.1719V95.3906C120 101.227 115.289 105.938 109.453 105.938H10.5469C4.7107 105.938 0 101.227 0 95.3906V91.1719H120Z"
     fill="#302C3F"
     id="path50189"
     style="fill:#f27721;fill-opacity:1" />
  <path
     d="M120 91.1719V95.3906C120 101.227 115.289 105.938 109.453 105.938H60V91.1719H120Z"
     fill="black"
     id="path50191" />
  <path
     d="M60 0C54.1638 0 49.4531 4.7107 49.4531 10.5469C49.4531 16.3826 54.1638 21.0938 60 21.0938C65.8362 21.0938 70.5469 16.3826 70.5469 10.5469C70.5469 4.7107 65.8362 0 60 0Z"
     fill="#1dd5df"
     id="path50193"
     style="fill:#f27721;fill-opacity:1" />
  <path
     d="M60 21.0938V0C65.8362 0 70.5469 4.7107 70.5469 10.5469C70.5469 16.3826 65.8362 21.0938 60 21.0938Z"
     fill="#0aacca"
     id="path50195"
     style="fill:#063f5c;fill-opacity:1" />
</svg>
